<?xml version="1.0" encoding="utf-8"?>
<!-- Generated by IcoMoon.io -->
<!DOCTYPE svg PUBLIC "-//W3C//DTD SVG 1.1//EN" "http://www.w3.org/Graphics/SVG/1.1/DTD/svg11.dtd">
<svg version="1.1" xmlns="http://www.w3.org/2000/svg" xmlns:xlink="http://www.w3.org/1999/xlink" width="98" height="80" viewBox="0 0 98 80">
<path d="M-14.4 66l0.48-0.080-0.24-0.16-0.24 0.16v0.080zM-18.72 62.72l0.72 1.68 0.16 0.16-0.16-0.32zM-19.92 61.68l0.24 0.32h0.24zM-13.28 64.64l0.16-0.080-0.16-0.16v0.24zM-7.6 66.16h-0.24v0.64h0.48zM-7.040 66.4l-0.080 0.4h0.24v-0.4h-0.16zM-6.72 66.4h-0.32l0.32 0.4v-0.4zM-11.040 65.040l-0.8-0.4 0.32 1.28 1.040-0.72zM-9.52 66v-0.64l-1.52 0.4v0.16zM-6.080 66.4v-0.24l-0.24 0.24h0.24zM-8.16 65.76l-0.32-0.32-0.72 1.36h1.040v-1.040zM-19.040 61.68h0.4l-0.080-0.32-0.32 0.080v0.24zM-16.56 62.72l0.56-0.080-0.32-0.64-0.64 0.4zM-6.48 65.92l-0.24-0.48-0.16 0.32 0.16 0.24zM-20.72 60.24l0.080-0.24-1.12 0.24v0.32zM-1.040 67.2l-0.88-0.16 0.88 0.64 1.36 0.24-0.88-0.24zM-23.76 57.6v-0.16l-0.16-0.24v0.24zM1.92 67.44v-0.24l-0.56 0.24h0.56zM-1.68 65.92l-3.44 0.48 1.44 0.64h1.36zM-28.24 54.64l-0.32-0.080h-0.56l0.56 0.48zM4.88 67.68v-0.24l-0.16-0.080-0.24 0.080zM6.24 67.44v-0.24l-0.56 0.24h0.56zM7.52 67.36l0.4-0.16-0.4-0.16-0.24 0.32h0.24zM8.48 66.8l-0.56 0.24 0.56 0.32v-0.56zM-28.88 51.84l-1.2-0.080 1.6 1.44-0.32-0.8zM8.56 66.8l0.16-0.4h-0.16v0.4zM13.040 65.2l-3.12 2.24 0.8-0.080 2.56-1.36zM17.44 65.040l-0.4 0.16v0.24l0.24-0.080zM14.96 66l-1.68 0.16h2.4l1.6-1.6-1.76-0.16 0.56 0.96zM20.4 64.56l-0.56-0.16-0.24 0.16 0.56 0.080zM18.32 64l-0.32-0.16v0.56h0.72zM19.040 63.84h-0.32l0.16 0.56 0.4-0.16zM26.16 64.4l-0.32-0.16v0.16h0.32zM25.52 64l-0.24-0.16 0.24 0.56v-0.4zM91.52 55.92v0.32l0.56 0.24-0.24-0.56h-0.32zM33.2 62.72v0.48l0.24-0.16zM26.88 62.4v-0.4l-0.48 0.24zM94.64 55.040v-0.48l-0.48 0.48h0.48zM23.52 61.44l-1.84 0.4-0.96 1.44 4.16-0.24-0.080-0.4-0.56-0.24-0.16-0.96h-0.56zM33.2 62.4h-0.32v0.32h0.32v-0.32zM27.92 61.68h-0.4l0.16 0.32 0.48-0.16zM91.040 55.040v0.56h0.080l0.4-0.16zM28.88 61.44h-0.32l0.32 0.24v-0.24zM32.88 62v-0.32l-0.4 0.72zM90.48 55.6v0.64l1.36 0.64zM94.16 54.080l-0.32-0.24-0.32-0.080 0.16 1.12zM32.080 61.84l-0.8 0.16-0.080 1.040 1.12-1.040zM89.76 54.88l-0.24 0.16 0.16 0.4 0.4-0.24zM31.040 61.12h-0.16l-0.24 0.24 0.4 0.32v-0.56zM30.32 61.36v-0.48l-0.4 1.12 0.72-0.16zM92.48 53.44l0.64 0.88h0.16v-0.56zM89.12 54.64l-0.24 0.56 0.48 0.24 0.16-0.8h-0.4zM31.28 60.56l-0.24 0.32 0.56 0.24v-0.24zM89.36 54.56l0.16-0.24h-0.4v0.24h0.24zM89.68 54.32v-0.24h-0.32zM88.72 54.32v0.32l0.16-0.080zM33.68 59.84v-0.24h-0.24zM88.72 53.2l0.16 0.32 0.48-0.32h-0.64zM34.72 59.2h-0.4v0.4h0.64zM89.36 53.040l-0.24 0.16h0.24v-0.16zM87.040 53.2l-0.16 0.24 0.4 0.080 0.080-0.32h-0.32zM41.76 60v-0.4h-0.24l-0.4 0.4h0.64zM88.080 53.2l-0.24-0.16v0.16h0.24zM93.28 51.040l-0.8 2.16 1.040 0.32v-1.12l0.88 1.36v-1.92zM88.72 51.76l-0.56 0.4v0.88l0.72-0.64zM90.32 51.040v-0.4l-0.24 0.8 1.44 0.32-0.4-0.72h-0.8zM88.080 51.12l0.080 0.64h0.56l0.8 1.040-0.16 0.96 0.8-0.32-0.080 1.44 1.040-0.24 2.16 1.68-0.8-2.24-1.6-0.24 0.16-0.64 1.040 0.24zM89.76 50.4l-0.4 0.24-0.24 0.24 0.64 0.16v-0.64zM90.88 50.4l-0.56-0.32 1.2 0.96 0.16-0.24zM45.2 57.2l-0.32-0.16-0.080 0.16 0.4 0.24v-0.24zM38.48 56.88h-0.4l-0.16 0.16h0.8zM44.080 56.88l-0.64 0.8 0.64-0.48v-0.32zM44.8 56.88l-0.32 0.16-0.24 0.16h0.4zM11.92 53.040l0.080 0.16h0.48zM88.88 49.040l0.24 1.2h0.4l0.24-0.56zM86.72 49.68l-0.72 0.4 1.28 2.96 0.080-2.64zM86.72 48.64l0.88 2.24 1.12-0.24-0.88-1.52 1.040 0.72-0.16-1.2h-2zM46.8 54.64l-0.56 0.4 0.24 0.4 0.88-0.56zM11.68 50.64v-0.24l-0.8 0.24 0.32 0.24zM82.96 49.040h-0.64l0.4 1.2 0.56-0.16zM83.28 48.4l0.72 2.24 1.040 0.16 1.040 1.76-0.64-1.92-1.12-2zM48.080 51.6l-0.16 0.16 0.4 0.080v-0.080zM46.56 51.84l-0.48-0.24-0.16 0.16 0.64 0.4v-0.32zM47.6 51.76l0.080-0.16h-0.32v0.16h0.24zM47.040 51.76l-0.56-0.32 0.56 0.72-0.96 0.88-0.88-0.64 0.48 1.92-0.16-0.24-0.32-0.32v-0.56h-0.4l0.080-0.16-0.24-0.24-1.2 1.040 1.040 2.080 0.32-1.040h0.72l-0.72 1.44 2-2.48 1.12 0.24-0.64-0.64 1.44-0.24zM80.56 46.72l-0.32-0.32 0.32 1.12v-0.8zM46.56 51.040l-0.32 0.080 1.12 0.32h-0.32l-0.24-0.4h-0.24zM49.36 50.8l0.16-0.16v-0.24zM81.68 45.6l-0.64 0.8-0.48-0.64-0.080 0.24 1.12 1.040-0.8-0.32v0.8l1.52 1.12 0.4-0.24-0.8-1.12 2.32 0.8-0.56-1.12-2.080-0.56 1.92 0.32v-0.96l-1.6 0.64zM47.6 50.4l-0.24-0.16h-0.080l0.080 0.16h0.24zM84.24 44.64h-0.24l-0.32 0.16 0.8 0.16zM83.28 44.64l2 3.2-0.24 1.6 1.28-1.68-1.84-2.4 1.84 1.36-1.6-1.76zM47.6 50.4l-1.040 0.48 1.040 0.72 1.68-1.36-1.6-0.56-0.32 0.4 0.24 0.16v0.16zM47.92 49.68l0.16-0.56v-0.080l-0.4 0.4zM31.28 48.24l0.4-0.48-0.8 0.64zM48.32 47.84v-0.080l-0.24 0.32 0.48-0.24h-0.24zM51.44 46.24l0.24-0.24-0.24-0.24-0.16 0.48h0.16zM46.24 46.4v-0.4l-0.32 0.24v0.16h0.32zM52.32 45.6h-0.24v0.16h0.24v-0.16zM61.92 41.44v-0.48l-0.4 0.48h0.4zM22.16 40.16l-2.8 0.080 2.32 2.4 1.2-0.8zM59.12 41.28v0.72l0.72-0.56v-0.16l-0.32 0.16zM48.72 42.32l0.56-0.48-0.32-0.24-0.4 0.72h0.16zM10.64 37.84l-1.12-1.36 0.4 0.96zM59.84 40.96l0.8-0.48v-0.24l-1.12 1.040zM56.32 40.24v0.48l0.16-0.24zM56.080 40.72v-0.48h-0.32v0.24zM57.84 39.6h-0.32l0.32 0.24v-0.24zM56.16 39.6l-0.080 0.32 0.080 0.24 0.16-0.24zM16.88 27.68l-0.16-0.24-0.4-0.32 0.56 0.72v-0.16zM30.64 28.72h-0.32l-0.24 0.32 0.56 0.080v-0.4zM16.16 26.24l-0.88-1.2-0.56 1.52 0.56 0.56 0.72-0.56h0.16l0.88 1.12-0.16 0.32 0.8 0.4 0.32 0.72 1.6-0.72-2.32-2.4zM24.24 19.040l0.56-0.24 0.080-0.24zM25.12 18.4l0.72-0.56h-0.16zM27.28 17.44l-0.32 0.16h0.24zM27.52 17.44l0.8-0.32 0.16-0.080zM50.080 45.040l0.64-0.4-0.48 1.12-0.96 0.24 0.24 0.96 1.36-0.24 0.56-1.36 1.28-0.4v-0.64l0.56 0.48v-1.2l0.32 1.040 0.24-1.76 0.32 1.2 1.52-0.64v-1.2l0.8-0.64h-1.36l0.4-0.32 0.56-0.32-1.2-0.8 1.6-1.92v1.68l0.4-1.12 0.64 0.8 1.76-0.96-0.8 0.96h1.2l-0.8 0.56 0.96-0.32-0.32 0.4 1.36-0.080-0.24 0.56-0.24 0.24 1.12 0.48 1.040-1.84-0.24 2 1.52 0.64 4.88-0.64 0.4-0.64 0.24 0.64-0.080 0.4 2 0.24 1.44-1.76 1.28 0.8-0.56 0.96-0.56-1.52-0.4 1.92 7.44 3.6 0.88-1.28-1.52-1.36-1.040 0.48v-1.040l2 0.96-0.32-1.28 0.88 0.32 0.24 2 0.88-0.4 1.040 0.4-1.92-4.32 2.32 3.6h0.64l0.72 0.48 0.32-1.52v1.76l0.64-0.24 0.64 1.2v-0.56l1.52 0.96-0.24 0.32-1.12-0.48-0.16 0.16 1.52 0.64v0.24l-0.24 0.48-0.56 0.080v0.4l1.68-0.16 1.040 1.36 2.64 0.96v0.24l-0.88 0.24 0.32 2.32 1.68-2.8 1.76 2.8-0.4 0.64 0.64-1.040-0.24 2.24 1.2-1.2-1.2-4-4.16-0.72-5.040-5.68-5.040-3.6-1.84 0.88-0.32 1.92-0.24 0.080-1.12 1.36-4.4-3.92v-0.96l-3.44 0.72-7.12-35.12-3.040-1.28-2.48 1.040-6.16-1.52-2.16 0.48-1.92-0.32 0.8-0.16-0.32-1.12-2.48 0.32-1.12-1.44-1.2 1.44-0.32-0.4 0.72-1.040-0.96-0.88-1.92 2-3.12 0.56 1.2 0.56-0.8 1.2-0.56-0.72 0.4-0.88-3.040 1.36 0.24-0.72-2.72 4.32-3.92 0.24-0.8 1.76 3.040 3.44 0.4 2.080h2.16v0.32l-0.16 0.64 1.36 0.16-0.24 1.52 1.92-0.16v0.96l-2.16-0.4-0.88-2.080 0.32 2.72 1.12-0.24 0.24 0.88-4.16-0.24-0.72-0.64 0.96-1.44v-0.080h-0.8l-2.4 0.56 0.32 0.8-1.52-0.24-2 1.28h-1.2l1.2 1.2 1.84 0.96-1.28-0.16v0.48l0.56 0.96 0.080 1.36 4.96 1.36 0.080-0.96 0.4 1.36 2.88-2.16 0.56 1.12-1.28 1.040 1.2 2.24-1.040 1.2-1.76-0.32-2.96 1.92 0.24-0.8-0.96-0.24v0.64l-1.36 0.56 0.32 1.6-0.88-0.4-1.2 2.4h-1.040l0.64 2.72 0.8-0.88 1.040-0.56-0.4 0.4h-0.24l-0.080 0.16h-0.32l-0.080 0.56-0.32 0.080 1.040 0.56-0.72 0.72h0.4l1.6 0.4 0.56-0.32-0.32 0.56 0.88 0.4-2 0.32 0.16-0.48-0.56-0.48-0.32-0.4-1.28 1.28 3.12 3.2 1.92-0.32-0.080-1.12 1.6-1.44-1.2 1.44 1.040 3.36-0.64 0.64 0.32 0.8h0.48l-0.24 1.12-1.28 0.56 1.040 0.32 2.88-1.68 2.72 2.96 0.88-2.96 0.64 0.56 0.16 0.56-0.32-0.56-0.48 0.24 0.48 1.28 2.88-1.84-0.32 1.44-1.28 1.68 0.88 0.72-0.88 0.080 0.080 2.32-1.84 0.64-0.88 2.080-0.48-0.48-3.44 2.16v2l-0.96-0.56v0.56l-0.64-1.2-1.52 0.24-3.76 2.72-0.16 0.88 0.64-0.24-0.080-0.64 1.040 0.64v-1.44l0.56 1.28h1.12l0.8-2 1.28 0.4-0.48 0.64 3.2-1.68 0.32 1.040 0.32-1.040 2-0.16 0.16-0.8h0.24v0.72l0.72-0.72-0.96-0.4 0.56-0.64 4-1.76v-1.6l4.56-2.72 2.24-2.88-2-1.2 1.6-2.4 0.4 0.4 1.12-0.96-0.8-1.44h0.48l0.4 0.24 0.24-0.24 3.36-4.080 1.2 0.24 1.36-1.28-1.36 1.68 1.92 0.72-2.72-0.32-1.68 1.12-0.72 3.92 0.080 0.32z"></path>
</svg>
