<?xml version="1.0" encoding="UTF-8"?>
<svg width="60px" height="28px" viewBox="0 0 60 28" version="1.1" xmlns="http://www.w3.org/2000/svg" xmlns:xlink="http://www.w3.org/1999/xlink">
    <title>American Samoa</title>
    <g id="Symbols" stroke="none" stroke-width="1" fill="none" fill-rule="evenodd">
        <g id="\" fill-rule="nonzero">
            <path d="M42.18,2.28 L41.8,2.45 L41.39,3.22 L40.54,3.56 L40.54,3.81 L41.07,4.47 L41.35,4.97 L41.66,5.26 L42.16,5.86 L42.7,4.6 L42.39,3.86 L42.44,2.5 L42.17,2.28 L42.18,2.28 Z M35.95,2.65 L35.84,2.87 L35.95,3.19 L35.93,3.42 L36.22,4.15 L36.2,4.51 L36.49,4.99 L36.94,5.23 L37.92,4.88 L38.9,4.1 L39.44,3.84 L39.87,3.84 L40.21,3.64 L40.24,3.53 L39.15,3.52 L36.99,2.97 L35.95,2.66 L35.95,2.65 Z M58.96,7.67 L57.37,7.95 L56.59,7.7 L55.76,7.93 L55.4,8.11 L54.28,8.05 L53.96,8.15 L53.44,8.09 L52.37,8.2 L51.76,7.81 L51.71,8.06 L51.49,8.15 L51.41,8.45 L51.08,8.54 L50.92,8.44 L50.7,8.56 L50.78,8.88 L50.82,9.44 L51.25,10.24 L51.98,10.9 L52.12,11.37 L52.4,12 L52.55,12.66 L53.09,13.46 L53.4,13.59 L53.89,13.38 L54.28,12.77 L55.09,11.75 L55.56,11.58 L55.69,11.34 L56.66,11.18 L57.29,11.45 L57.93,11.82 L58.5,11.98 L58.78,12.12 L59.14,12.15 L59.44,11.94 L59.63,10.88 L59.56,10.24 L59.69,9.67 L59.82,8.46 L58.97,7.68 L58.96,7.67 Z M15.46,14.32 L15.29,14.33 L14.95,14.69 L14.66,14.88 L14.41,14.77 L14.28,15.1 L13.97,15.02 L13.72,15.2 L13.88,15.49 L13.84,15.69 L13.59,15.71 L13.45,15.4 L13.33,15.48 L13.25,15.66 L12.8,15.78 L12.55,16.29 L12.39,16.49 L12.24,16.46 L12.05,16.37 L11.66,16.51 L11.65,16.71 L11.56,16.91 L11.34,17.04 L11.24,17.27 L10.84,17.48 L10.78,17.68 L10.68,18.31 L10.89,18.55 L10.92,18.78 L10.71,18.95 L10.63,18.88 L10.64,18.78 L10.02,18.38 L9.23,18.94 L9.3,19.14 L9.17,19.29 L9.03,19.21 L8.69,19.37 L8.57,19.29 L8.44,19.27 L8.22,19.41 L8.11,19.61 L8.04,19.68 L7.94,19.6 L7.91,19.41 L7.73,19.21 L7.48,19.28 L7.36,19.15 L7.36,18.94 L6.87,19.12 L6.19,19.4 L6.06,19.3 L5.85,19.46 L5.62,19.61 L5.53,19.3 L5.36,18.94 L5.14,19.19 L4.86,19.29 L4.6,19.2 L4.55,19.39 L4.28,19.4 L4.11,19.27 L3.94,19.15 L3.74,19.42 L3.28,19.41 L2.86,19.62 L2.87,19.99 L2.45,20.2 L2.42,20.43 L2.27,20.41 L2.01,20.22 L1.9,20.24 L1.67,20.42 L1.32,20.87 L0.87,21.15 L0.63,21.83 L0.43,21.88 L0.15,22.03 L0,22.19 L0.3,22.39 L0.75,22.47 L1.07,22.51 L1.27,22.88 L2.36,23.12 L2.9,22.61 L3.15,22.75 L3.28,23.11 L3.76,23.24 L4.25,23.2 L5.03,23.67 L4.92,24.4 L5.14,24.88 L5.22,25.48 L5.94,25.93 L6.57,26.2 L6.9,25.96 L7.46,26.1 L7.2,26.56 L7.3,27.05 L7.56,27.02 L7.93,26.38 L8.03,25.74 L8.45,25.68 L9.05,26.33 L9.27,26.1 L9.72,25.46 L10.48,24.63 L10.81,24.38 L10.98,23.89 L11.46,23.44 L11.95,23.16 L11.86,22.67 L11.4,21.83 L11.87,21.52 L12.25,21.28 L12.58,21.46 L12.53,21.9 L12.32,22.13 L12.52,22.17 L12.79,21.92 L13.01,21.23 L13.57,20.66 L14.3,20.11 L14.64,20.17 L14.86,19.72 L14.32,19.24 L15.13,18.77 L14.93,18.53 L14.5,18.53 L14.42,18.03 L14.52,17.87 L14.38,17.8 L13.77,18.01 L13.02,17.65 L12.73,17.49 L13.12,17.27 L13.61,17.46 L14.07,17.41 L14.4,17.1 L15.02,17.17 L15.54,17.37 L15.76,17.33 L16.06,17.53 L15.87,17.69 L15.99,18.11 L16.15,18.85 L16.03,19.11 L16.17,19.21 L16.4,19.1 L16.91,19.08 L18.14,18.81 L18.41,18.3 L18.65,18.27 L19.21,18.32 L19.3,18.02 L19.69,17.72 L19.75,17.53 L20.3,17.34 L20.44,17.2 L20.75,17.14 L21.2,17.42 L21.45,17.73 L21.48,17.96 L21.28,18.24 L21.61,18.6 L22.38,18.2 L23.02,17.97 L23.09,17.79 L23.36,17.67 L23.59,17.78 L23.95,17.7 L24.19,17.46 L24.67,17.48 L24.95,17.25 L25,16.99 L25.31,16.2 L25.05,15.67 L25.3,14.99 L25.05,14.98 L24.76,15.2 L24.23,15.23 L23.95,15.04 L23.52,15.56 L23.24,15.48 L23.08,15.93 L23.14,16.28 L23.02,16.46 L22.76,16.53 L22.62,16.4 L22.58,16.22 L22.01,15.95 L21.5,15.8 L21.42,16.12 L21.33,16.12 L21.22,15.98 L21.05,15.86 L20.76,15.85 L20.7,15.57 L20.49,15.69 L20.1,15.86 L19.71,16.07 L19.41,16.17 L19.02,15.89 L19.54,15.49 L19.28,15.31 L19.2,15.49 L19.03,15.46 L18.85,15.2 L18.44,15.37 L18.28,15.15 L18.24,15.17 L18.22,15.45 L18.13,15.65 L17.94,15.61 L17.96,15.45 L17.79,15.32 L17.69,15.5 L17.76,15.88 L17.37,15.94 L17.27,16.18 L17.06,16.12 L17.08,15.86 L17.04,15.62 L17.2,15.37 L17.05,15.27 L16.87,15.46 L16.63,15.65 L16.52,15.39 L16.45,14.99 L16.33,15 L16.11,15.16 L15.9,15.07 L15.65,15.31 L15.44,15.44 L15.15,15.4 L15.16,15.12 L15.47,14.72 L15.46,14.37 L15.46,14.32 Z M26.17,18 L25.55,18.13 L25.3,18.53 L25.37,18.82 L26.1,19.05 L26.57,18.95 L26.75,18.55 L26.55,18.18 L26.17,18.01 L26.17,18 Z M0.07,0.6 L0.09,0.39 L0.36,0.21 L1.56,-5.68434189e-14 L1.77,-5.68434189e-14 L2.16,0.24 L2.31,0.51 L2.34,0.75 L2.15,0.96 L1.76,1.23 L1.28,1.62 L0.99,1.71 L0.66,1.56 L0.15,1 L0.07,0.6 Z" id="American-Samoa"></path>
        </g>
    </g>
</svg>