<?xml version="1.0" encoding="utf-8"?>
<!-- Generated by IcoMoon.io -->
<!DOCTYPE svg PUBLIC "-//W3C//DTD SVG 1.1//EN" "http://www.w3.org/Graphics/SVG/1.1/DTD/svg11.dtd">
<svg version="1.1" xmlns="http://www.w3.org/2000/svg" xmlns:xlink="http://www.w3.org/1999/xlink" width="67" height="80" viewBox="0 0 67 80">
<path d="M38.72 63.76l-1.2-1.76h-0.24l0.8 1.68zM31.68 60.64h-0.32l0.8 0.32v-0.24zM38.72 59.6l-1.52-0.32 1.040 0.96h0.64zM28.48 55.52h-1.2l0.56 0.96 0.8-0.48zM26.88 55.36l-0.48-0.24-0.32 0.24 0.8 0.16v-0.16zM29.76 55.2l-0.72-0.080 0.88 0.72 1.52-0.48-0.16-0.24zM27.6 6.64l-0.080-7.68h-22.4l-0.080 1.44 0.4 0.72 0.56 1.76-0.96 4.8 0.48-0.56-0.96 0.96-0.56 1.92 0.080 1.36 2.080 1.76 0.96 2.080-0.32 2.24 0.56 1.92v1.2l3.28 3.44 1.52 2.48-0.8-0.72-0.16 1.68 0.4-0.64 2.32 1.76 0.4-0.4-0.4-1.76 0.72-0.080 1.28 0.8 0.8-0.72 0.64 0.72 1.28-0.72-0.4 0.72 0.88-0.64 0.96 0.72-1.2-0.72-0.24 0.72h-2.64l-0.4-0.080-0.8 0.080-0.16 0.32 0.48 1.2 0.72 0.56 0.88 1.92h-0.56l-1.44-1.040-0.080-1.44-0.72 0.24v1.84l1.2 2.8 1.040 1.2h1.28l0.8 0.88-0.4 1.44-0.64 0.16 0.48 2.24 2.080 2.080 1.36 2.32 2.24 1.68v1.44l1.52 0.4v4.32l0.8 0.48 5.2 0.32 1.92 0.96 1.040 1.2 1.92 0.64 1.76-0.16 0.72 1.92 1.52-0.080 3.76 2.56 1.44 1.92 0.48 2.88 0.72-0.32 0.16 0.48-0.64-0.16 0.64 0.96 15.52-2.72 0.080-1.68-1.2-0.56-0.72-2.4 1.2-0.96-0.16-2.96 2.24-2.72-1.52-0.96-2-3.52-31.92-26.72z"></path>
</svg>
