<?xml version="1.0" encoding="utf-8"?>
<!-- Generated by IcoMoon.io -->
<!DOCTYPE svg PUBLIC "-//W3C//DTD SVG 1.1//EN" "http://www.w3.org/Graphics/SVG/1.1/DTD/svg11.dtd">
<svg version="1.1" xmlns="http://www.w3.org/2000/svg" xmlns:xlink="http://www.w3.org/1999/xlink" width="73" height="80" viewBox="0 0 73 80">
<path d="M53.76 65.28l-0.56 0.24-0.16 0.080h0.72v-0.32zM54.56 65.28l-0.48-0.080-0.32 0.4zM56.4 64.56v-0.32h-0.24v0.24zM55.52 64.24l0.16 0.4-0.56-0.080-0.48 0.72 1.12-0.64zM56.080 64.24l-0.080-0.080h-0.24v0.4zM59.68 64.16l0.32-0.080v-0.24l-1.040 0.24zM57.2 64.56l-0.16-0.48-0.32-0.32 0.4 0.88zM60.96 63.76l0.080-0.56-1.040 0.88zM62.080 63.040v-0.32l-0.56 0.4zM63.52 62l0.32-0.32-0.4 0.32h0.080zM59.92 58.32l0.080-0.32h-0.32v0.32h0.24zM59.68 57.84h-0.4l0.32 0.16zM66.080 59.52l1.040-1.92-1.040 0.64v0.64l-2.080 2.8h0.24zM67.36 56.88l0.24-0.32 0.080-0.16-0.4 0.64zM67.84 54.32v-0.4h-0.080l-0.080 0.4h0.16zM57.12 53.2l-0.4-0.56-0.32 0.24v0.32h0.72zM56.16 52.56h-0.16l-0.24 0.080 0.4 0.32v-0.4zM54.56 52.48h-0.48l0.16 0.16zM55.68 52.56v-0.080l-0.16-0.24v0.4zM50.48 46.64l-0.72-0.72 0.4 0.72 1.040 0.24zM50.8 46.24l-0.32-1.68-0.64-0.080 0.72 1.52zM49.36 44l-0.24-0.48v0.88zM46.4 38.080l-0.56-0.96h-0.24l0.8 1.040v-0.080zM67.68 39.52l-1.6-5.12-0.8-1.44 1.44 4.24zM63.52 26.080l-0.080-0.48-0.88 0.88 0.88 2.88v-1.92zM45.6 24.16v0.16h0.24v-0.16h-0.24zM45.6 24h0.24l-0.24-0.24v0.24zM42.72 20.24l-0.080-0.32-0.16 0.24v0.080h0.24zM25.12 14.4h-0.96l0.64 0.48zM26.16 15.040l2.48-1.44-2.72 1.36h-0.8l0.48 0.32zM29.28 13.52l0.4-0.4-0.88 0.48zM12.8 6.8h0.32l-1.44-0.24-5.2 0.56h0.4zM48.32 33.28l-1.92 2.72h0.16l-0.64 0.080 0.48 0.4h-0.8l0.24 0.24-0.64-0.48 0.32 0.48 1.040 0.72 0.080 1.12 2.16 4.48 1.36 0.4-1.040-2.4 1.040 1.040 1.76-0.64-1.12 0.88 0.16 3.6h1.040l0.32-1.040 0.96-0.48-1.84 2.24 1.040 0.24v-0.56l0.24 0.56 0.56 3.6v-0.48l0.48 1.2 0.8 0.24-0.8 0.72 0.96-0.32 2.4 1.12 1.52 2.64 0.32 1.76 2.080 1.28-0.8 0.24h0.32l-0.88-0.56-0.4-0.48-0.64 0.96 0.32 0.72 0.72 0.64 1.84-0.8 1.36 0.32 1.92-0.88 0.080 0.48 0.48 0.24-0.080-0.48-0.4-0.16 0.48-0.080 0.4 0.56-0.24-0.56 0.88-1.2 0.32-2.56 1.12-2.8v1.36l0.96-10.24-0.96-3.2-1.52-1.040 1.040 0.32v0.16l-1.28-3.12-0.32-1.76-2.96-6.88-1.28-4.080 0.96 0.4-0.080 1.44h1.44l-0.32 3.76 1.76 3.52-1.36-3.52v-1.76l0.56-0.64-0.96-1.76-2.48-4-2.8-7.28-1.2-6.72-0.96-0.64v-0.8l0.64 0.96v-1.76l-4.72-1.040-0.56 0.48v3.76l-0.96 0.080-0.72-2-22.48-2-1.040-2.8-22-0.96-0.24 1.36 1.84 1.84-0.4 1.6 0.64 0.56-1.52 1.76 2.24-0.56 1.040-1.28-0.32-1.040 0.96 1.12 0.4-1.44 0.48 0.56-0.4 0.48 1.040 0.72-2.56 0.88 3.68-0.48 1.44 0.16 0.8-1.040 0.8 0.080v0.48l1.6-0.48 0.64 0.4 0.32 0.96-1.12-0.56v0.56l-0.4-0.56-0.56 0.48-1.44-0.32 3.84 1.36 2.88 1.6-0.32-1.040-0.72-0.16 0.72-0.4 0.56 0.48 1.12-0.48 0.24 0.4-1.6 0.72 1.36 0.8 0.64-0.32 0.080 1.28 0.8-0.24-0.56 0.32-1.92-1.36 2.72 2.72 0.32 0.72-0.32 1.28-0.72-1.84 0.48 1.36 0.24 0.48 2.88-0.32 1.28-0.64-0.16 0.48 3.28-1.52 1.12 0.16 0.16-0.16v-0.32l-0.96-0.4 0.080-0.32 0.88 0.32-0.48-0.56 1.76-0.64 0.32 0.48 1.36-0.32 2.88 1.76 1.12 2 1.28 0.64-0.16 1.28 1.52 1.12 1.52 2.48h2.24l0.56 1.92 0.72 0.88v1.040l-0.64-0.080 0.64 0.8-0.4 2.64-1.68 5.52 1.040 2.080v-0.48l-0.64-1.040 1.28 1.2 0.8-1.6-1.2-0.64 0.48-0.32h-0.32v-0.48l1.28 0.56 0.080 1.36h0.64v-1.040h0.4zM62 39.52l1.12 0.96 0.4 1.2-0.72 2.88-1.44-0.72-1.76-1.92z"></path>
</svg>
