<?xml version="1.0" encoding="utf-8"?>
<!-- Generated by IcoMoon.io -->
<!DOCTYPE svg PUBLIC "-//W3C//DTD SVG 1.1//EN" "http://www.w3.org/Graphics/SVG/1.1/DTD/svg11.dtd">
<svg version="1.1" xmlns="http://www.w3.org/2000/svg" xmlns:xlink="http://www.w3.org/1999/xlink" width="93" height="80" viewBox="0 0 93 80">
<path d="M4.96 50.32v-0.96h-0.96v0.96h0.96zM59.36 16.16l-0.96-1.040-1.52 1.28 0.56 1.12-0.56 0.8 1.040 0.32-0.48 1.6-1.28-0.24-2.72 1.36-0.72-0.72-2.080 0.32 0.32 2.32-1.84 1.28-0.88 2.080-2 0.48-1.12 3.44-1.36 0.72-2.16-1.28-0.32-1.28-1.040-0.56 0.4 0.72h-1.2l0.080 0.96-0.88 0.4v1.28l-1.12 1.28-2-2-2.32 0.96-1.12 1.68-3.040-2.16-1.76 0.48-0.56-0.96v1.6l-0.56 0.4-0.32-1.040-1.28 0.4-1.36-0.88 0.16 1.28-0.48 0.72-0.96-0.32-1.44 1.92 0.72 2.4-4.64 1.2-0.16 1.2 0.64 2.4-0.64 0.88-4.32-2.32-2.080 0.48-1.28 1.44 0.48 1.6-0.24 3.040-0.96 2.16-1.68-0.88-0.72 1.84 15.6 0.8-0.32-2.72 2.64 0.88 45.92 1.52 6.8-2.4 0.72-1.44 2.080-0.8 2.080-3.2 3.52-2.080 4.32-3.6-1.92-0.48-3.040-3.36-2.8-4.72 0.72-1.2-0.16-2.48-2.48-2.080-0.72-2.32-1.6 0.4-1.28 1.36-1.76 0.24-2.4-1.44-2.080 0.96-1.6-1.6-3.92-0.88-0.96-2.8-1.36-1.040z"></path>
</svg>
