<?xml version="1.0" encoding="utf-8"?>
<!-- Generated by IcoMoon.io -->
<!DOCTYPE svg PUBLIC "-//W3C//DTD SVG 1.1//EN" "http://www.w3.org/Graphics/SVG/1.1/DTD/svg11.dtd">
<svg version="1.1" xmlns="http://www.w3.org/2000/svg" xmlns:xlink="http://www.w3.org/1999/xlink" width="80" height="80" viewBox="0 0 80 80">
<path d="M46.32 65.36l0.48 0.16h0.48l-0.4-0.16h-0.56zM50.4 65.12l-1.68 0.56h0.24l1.12-0.32zM53.76 65.36l-0.64-0.24-0.8-0.080 0.72 0.32h0.72zM55.44 65.040l-0.4-0.24-0.4 0.56zM53.12 62.48l0.24-0.32h-0.24l-0.080 0.56zM59.12 62.72l1.040-0.56-0.32-0.32-0.72 0.56v0.32zM60.64 61.52h-0.080l-0.32 0.16 0.080 0.16zM70.48 58.24h0.32v-0.4l-0.72 0.56zM57.84 58.16v0.4l1.44 0.48-0.16-0.48zM71.76 57.6l0.24-0.16 0.32-0.64zM34.48 58.88l1.12-1.68-2.88-0.96-1.52 0.88 2.72 1.76h0.56zM74.080 54.96l0.4-0.72 0.080-0.32-0.8 1.2zM67.040 53.76l-0.56-0.56-0.24 1.040 0.4-0.48 0.4 0.48v-0.48zM68.32 53.12l-0.080 0.080 0.88 0.56v-0.88zM69.12 51.28h0.56v-0.32l-0.56 0.080v0.24zM68.4 51.44l0.4-0.48 0.32-0.56-0.8 1.040h0.080zM75.44 52.88l0.080-1.6-0.080-1.2-0.88-1.040 0.88 1.92-0.56 2.64zM66.96 48.080v-0.24l-0.16 0.16zM69.76 48.64l-0.4-0.24 0.96-0.96-2.32 1.68 1.36-0.080 0.4 0.48 0.56-0.4zM9.76 54.24l5.2-0.080 6.88 2.8 5.44 1.040 3.52-0.8 0.48-0.64-1.040 0.24-0.48-1.12 0.56-0.48-1.040 0.4-0.4-1.040 0.88-0.16v0.56l2.16-1.52h1.76l-0.080 1.68 3.040-0.48v1.6h1.12v1.76l1.92-0.4v0.64l1.84 0.64 0.4-2.080h0.32l-0.32 2.24 2 2v1.12l-0.4 0.24-0.24-1.36-0.72-0.080-0.080-0.56-0.96 0.96-0.64-0.32 0.24 0.8 0.48 0.56 2.88 0.96 0.88-0.56 0.16 0.8 1.76 0.72 0.56-0.96 0.8 0.32-0.4 0.72 0.64 0.24 1.44-0.96 0.080 0.48 0.32-1.68 0.56 0.24-0.24-1.36 1.6 0.32 0.48-1.12 0.88 1.84 0.64-1.040 0.72 1.12 0.48-0.48 0.24 2.8 1.76-1.040 0.88-1.28h-0.48l-0.16-0.8 1.12-0.32-0.48-0.8 0.16 0.32v-1.52l-2.48-1.36 0.4-1.040 0.64 0.88 0.4-0.24 2.4 1.28 0.96 0.16 0.080-0.48h0.64l-0.32 0.64 0.96 0.16 0.24 0.96-1.040 0.72h1.92l0.88-0.4 0.32 1.36h2.080l-0.48 0.16 1.52 2.48 0.8-0.64v-1.040l0.32 0.8 0.32-0.4-1.76 3.76 1.44-2 0.64-0.32v-0.64l1.76 1.6-0.16-0.64 0.4-0.8 0.32 0.32-0.080-0.88 0.32 0.64 0.72-1.040-1.040-0.080 1.12-0.32-0.4-0.56-1.52-0.24 0.48-0.64-1.2-1.2-0.72 0.56-0.4-0.56-1.44-0.24 0.48-0.48h-2.56l0.080-1.040-2.24-0.88-1.040-1.68 1.92 0.16-1.2-1.36 2.96 1.2-0.48-0.88h-0.88l-0.080-0.72 0.72-0.48 0.64-1.12 1.040 1.040 0.96-0.4-0.48-0.72 0.56-0.8h-0.88l0.32-0.48-0.48 0.32-0.32-0.48 0.8-0.32-1.12-0.48 1.12-1.12-0.72 0.16-0.8-0.48-1.2 1.040-0.4 1.84-0.96 0.32-0.72-0.8 0.24-0.48-1.6 0.080-0.32-0.96 0.64-0.64 1.040 0.24 0.96-1.68-0.32-0.32h-0.56l0.48 0.32-0.88 0.64v-1.040l-0.72 1.040-1.28-0.64-1.44 1.52-2.16 0.48-3.28-0.88-0.72-1.040 0.4-1.040 2.96-2.8 1.84 0.4 1.040 1.44 3.28 0.48 0.48 1.040 1.6-0.32v0.4l0.88-0.56-0.64-0.4-1.52-3.52-1.76-1.92-0.72-1.76 1.44-4.96-26.080 0.32 1.12-1.040-1.040-3.2 1.6-0.32 0.4-1.92-0.4-1.44 1.28-1.12 0.96-4.080 3.44-2.96v-2.080l0.88-0.080 1.52-2.4-2.48-2.56v-1.68l-0.96-1.36 1.36-0.88-1.36-0.8 1.2-2.4-1.2-0.8-0.080-0.64h-38.16l-0.32 15.92 2.8 3.36 0.080 3.2 1.28 1.12-0.32 0.64 1.36 1.6-0.32 0.88 0.96 1.92 0.72 0.24-0.16 1.36 0.72 0.88-0.96 0.48 0.56 0.96-0.56 2.16-2.32 3.84 0.48 1.52-0.64 1.6 0.48 1.6-0.16 3.040-1.12 1.36 0.48 1.44-0.56 0.96-1.2 0.24-0.16 0.48 0.64 1.28 1.76-0.8z"></path>
</svg>
