<?xml version="1.0" encoding="utf-8"?>
<!-- Generated by IcoMoon.io -->
<!DOCTYPE svg PUBLIC "-//W3C//DTD SVG 1.1//EN" "http://www.w3.org/Graphics/SVG/1.1/DTD/svg11.dtd">
<svg version="1.1" xmlns="http://www.w3.org/2000/svg" xmlns:xlink="http://www.w3.org/1999/xlink" width="112" height="80" viewBox="0 0 112 80">
<path d="M105.52 62.88l-0.88-0.56 0.48 1.040-1.28 2.48 1.76-1.52-0.72 1.52-5.68 1.040 5.040 1.2 2.88-0.72zM92.96 63.76l-0.24-2.56-1.36 1.6 1.36 1.2zM88.72 59.52l-1.92 0.72-2.72 3.28-2.48 0.72 1.92 1.6 2.96-1.6 4.64-0.24-0.24-2.080-1.76-0.56 1.040-0.64-0.48-1.040-1.2 0.96zM106 56.24l1.12-3.12-0.48-0.88-1.28 4.16zM80.24 5.36l-1.76-0.48-4.16 2.56-1.92 0.16-1.76 2.48-2.96 2-55.76-2.48-7.92 26 0.88 0.96 19.6 1.2v0.96l1.2-0.16 0.24-0.8 39.44 0.8 0.48 4.56 0.88 0.4 0.48 4.32 2.64 2.8 0.48-0.88h1.36l1.76-2.72-2.24 4.8 1.68 0.56 0.32 5.84 0.64-0.56-0.4-0.72 1.12 0.4 0.48-1.12 0.56 1.12-1.040 0.8 1.040 0.080 2.64-0.88 1.36-3.92 1.76 1.52-0.16-1.44 1.28-1.12 1.040 0.48 0.8-1.68h0.72v-2.24l1.76 1.2 0.24-0.96 0.64 0.56-0.88 1.84 0.16 3.92-1.12 1.92 5.28-1.2 2.48-3.12 0.8 0.88 3.76-1.28-0.16 1.52 2.64-2 6.88-0.64 0.24-4.72h-1.52l0.4-2.4 1.36 0.64-1.92-5.36-2.24-2.72-2.96-1.84h-1.92l-0.72 1.12 2.080 1.68 0.48-1.44 1.92 0.56 1.12 6 0.8-1.84 1.44 0.96-0.96 0.24 0.88 3.6-0.88 0.96-6.4 2.72-2.56 0.4 1.52-0.64-3.68-0.56-2.88-1.84-0.8-0.8-0.48-4.72-2.16-0.72-2.32-2.16h0.96l0.48-2.080 0.96 1.92-0.72 0.16 1.44-0.16-4.4-8.48-4.48-3.2 0.96 2.24-2.8 0.72-0.080-1.36-1.12-0.32 0.4-1.040-1.36 0.24-0.24-0.96 0.88-0.32-1.12-0.72 0.48-0.48 1.44 0.48-0.48-0.88 1.2 0.88-0.080-3.040 2.080 0.24-0.8-1.44 2.24-1.12-0.4-1.040-1.040 0.56 0.48-1.040 5.12-1.92 3.12-2.080-0.8-2.24-1.6 1.040v1.44l-0.56-0.8-1.68-0.24-0.32-0.72 0.8-0.16-2.48-1.44v-1.28l1.68 1.28-1.040-2.48-2.16-1.76h1.52l-0.080-2.16z"></path>
</svg>
