<?xml version="1.0" encoding="utf-8"?>
<!-- Generated by IcoMoon.io -->
<!DOCTYPE svg PUBLIC "-//W3C//DTD SVG 1.1//EN" "http://www.w3.org/Graphics/SVG/1.1/DTD/svg11.dtd">
<svg version="1.1" xmlns="http://www.w3.org/2000/svg" xmlns:xlink="http://www.w3.org/1999/xlink" width="100" height="80" viewBox="0 0 100 80">
<path d="M76.64 57.12l-0.8-1.36 0.56 1.36-0.96 0.56 0.88 0.48zM76.32 52.48l-0.48-0.88-1.040 0.4 0.48 0.48h1.040zM92.32 55.76l1.2-0.96 2-6-1.84 3.6zM96 47.52l0.48-2.72h-0.24l-0.64 2.96zM9.44 10.88h-4.88l-0.56 13.68 4.16-2.56 4.080-4.24 1.12-0.4 1.68 0.72 3.28-2.96 0.8-1.92 0.64 0.8-0.32 0.96 3.52 1.28h2.24l0.8-0.8-0.48-0.48 1.040-0.4-0.56-0.56 3.28-0.4 1.92-1.76 0.88 0.080 3.52 2.64 2.4-0.080 0.32 0.64-0.88 0.48 0.48 1.2 0.4-0.56 0.32 1.12h1.040l-0.72 1.36 1.2 0.72-0.16 1.68 3.84 1.6 1.92 1.44 0.24 0.88-1.12 1.44 1.28 1.92 3.68 0.96 0.8 1.68 2.72 1.28 1.36-1.6 2.8 2.96-2.4 2.24 0.16 2.24-1.84 1.040-0.56 1.52-1.12 0.48 0.24 0.72-1.28 0.48-0.64 2.4 0.64 2.24 1.76-0.16 0.88-2.080 0.56 1.36 0.88-1.76 3.040 5.040 0.96 0.32 0.080-0.64-0.8-2.48 1.12 0.96 1.12 3.2h3.12l2.24 2.96 0.16-0.88 0.88 0.64 0.080-1.92 0.96 2.72 2.16 1.44-0.32-2.8-1.36-2.16 0.16-1.68h-1.6l-1.040-1.6-2.24-1.44-1.28-3.2-0.16-3.68 0.96 4.96 4 3.92 1.44-0.32-0.24-1.6-2.48-3.36v-4.64l-0.88-1.12 1.44-2.24h-1.12l-0.24-1.12 1.36-0.4-1.36-1.68 2.080 0.8-2.64-3.36 0.56-0.48 1.76 2.16 1.2-0.64-2.24-1.76 2 0.56-0.88-2.88-0.56 0.4-2.8-2.72 0.88-0.48 3.12 1.84 0.8-0.8-1.2-0.56-0.8-1.44 1.52 1.44-0.56-1.52 1.28 0.080 0.8-1.12-1.52-1.040 1.84-0.080 0.8 2.24 0.72-0.8-0.48-0.96 0.56-2.64 0.56 3.040 3.040-2.56-1.12-0.96 0.8-1.76 1.84-0.16 1.040-0.96-1.44 3.6 3.6-3.12-1.12 1.92 1.040 1.36-1.92-0.4-1.68 2.16 3.6 0.64-5.76 0.24-1.12 1.28-1.92 4.32 1.12 3.2 0.8-2.32 2.24-0.48-2.16 2.24v1.44l-1.44 0.16-1.6-0.8-0.64 3.84 0.64 0.4-0.16-1.36 1.76-1.52 1.36 0.8v1.12l0.56-0.48v0.56l0.88 0.48-1.44 1.68 0.64 0.64 0.8-0.64-0.080 1.040-1.36 0.080-2.080-1.76-1.44 4.16 0.88-0.32 0.56-2.56v1.84l1.2-1.36 0.4 2.16 0.56-0.8 0.4 1.28 0.96-0.24-0.88 0.88 1.36-0.16 0.32 0.96 1.12 0.56 1.36-1.52-0.24 1.2-1.6 1.040-2.4-0.72v-0.88l-2.56 0.32 0.64 0.72-0.72 0.96 1.76-0.64 0.48 0.32-1.44 1.36-0.24 1.44-0.56-0.88-0.8 0.8 2.16 4.080 0.32-2.16 3.76 4.32v-2.080l0.8-1.28 0.64-0.32 0.080 0.48-0.96 1.12 0.88 1.6 2.24-4.32-0.96 3.84 1.68 0.96-2.24 1.040-0.16 1.52 2.96-0.56 0.48 0.080-1.76 1.6 2.24-0.64-2.88 3.36 0.88-0.16-0.24 1.68 1.68-1.040 2.88 0.080 0.48-0.8 5.040-0.88 0.56-1.6 1.6-0.88 0.64-3.28 1.12-0.48-0.32 0.8 0.8-0.32 1.12-2.16 0.4-0.72-0.96-0.32 0.080-1.12-0.96-0.48h1.44l-0.080-0.64 0.56-0.24-12.96 0.24-2.080-33.68z"></path>
</svg>
