<?xml version="1.0" encoding="utf-8"?>
<!-- Generated by IcoMoon.io -->
<!DOCTYPE svg PUBLIC "-//W3C//DTD SVG 1.1//EN" "http://www.w3.org/Graphics/SVG/1.1/DTD/svg11.dtd">
<svg version="1.1" xmlns="http://www.w3.org/2000/svg" xmlns:xlink="http://www.w3.org/1999/xlink" width="52" height="80" viewBox="0 0 52 80">
<path d="M28.4 52.72l0.24-0.72-1.2-0.48 0.16 0.88zM30.4 49.68l-0.48-0.64-0.4 1.76h0.88l-0.4-0.8zM34.96 48.48l0.24-0.64-1.12-1.36-0.96 0.32-0.72 1.68 1.12 1.2 0.48-0.32-0.32-0.88h1.28zM26.88 4.48l-0.88-0.72-0.24-2.4-1.84-0.4-8.16 11.28-0.56 4.24-1.2 1.040-1.12 2.080 0.32 1.12-0.64 0.96-0.080 1.44 0.48 0.8-1.6 1.92v1.2l-2 0.88-1.44 2.24 0.88 1.52-0.8 0.24-1.040-0.56-0.96 2.88-0.96-1.76-1.040 0.64 0.48 28.96 1.52 2.32-0.16 1.2 0.72 1.36 0.4-0.4 0.64 0.32 1.6-3.84 2.32-1.76-0.48-0.24 0.4-1.040 1.44-0.48v-0.8l-0.88-0.48 0.56-0.16 0.64-1.52 2.24-1.36-0.32 0.4 0.64-0.32-0.88 1.52 1.040-1.2-0.56 1.52 1.28-1.040v-0.88l0.56 2.56 0.48-0.64-0.48-3.76-0.48 0.4-0.080-0.32 1.12-1.2 0.080 4.48 0.64-1.36-0.4 0.32-0.24-0.88 1.44-2.080-0.24 1.040 0.24 0.48-0.24 0.96 0.64 0.16v0.56l0.080-2 0.72-1.12-0.16 2.8v-0.96l0.4 0.96 1.44-3.36v1.2h0.88l-0.32 0.48 1.040-0.96-0.4 1.2 0.8-0.24v-0.8l1.52-0.88-0.080-1.2 1.36-2.8-0.56-1.44 2-0.88v-1.36l0.56 0.48-0.72 2 0.88-0.56 0.48 0.48-1.2 0.64-0.16 0.8 0.88-0.16 2.24 1.28-0.4-2.56 0.88-0.16 0.24 0.32-0.24-1.44h0.56l0.16 1.36 0.56-1.040 0.96 0.32-0.16-1.2 0.88 0.88 0.16-0.88 0.24 1.040 0.24-0.56 0.48 0.32 0.64 2.32 0.88-1.2-0.64-1.040 0.64-0.4 0.4 1.36 0.32-1.28 0.080 1.36 0.72-2.72 0.4-0.24v1.040l0.72-1.040 0.080 1.52 0.56-1.040 0.8 0.56 0.32-1.76 1.28 0.56 0.080-0.8 0.4 0.96 0.56-0.56-0.56-1.12 0.88-0.24 0.4 1.36 0.16-0.4 0.96 0.080 2.16-2.64-0.96-1.040 0.24 0.96-0.32-0.88-0.96 1.12-0.48-1.52 0.88 0.32v-0.88l0.64 0.16 0.24-0.48-1.36-2.96-1.2-0.32-0.64 0.64-1.44-1.52 0.32-1.76-0.8-1.68 0.8-0.72v-0.8l-1.84-0.4-2.32-1.44 0.4-2.96-0.48-17.84-2.080-2.080-3.12-2.080-1.28 1.12-0.96-0.4-3.92 2z"></path>
</svg>
