<?xml version="1.0" encoding="utf-8"?>
<!-- Generated by IcoMoon.io -->
<!DOCTYPE svg PUBLIC "-//W3C//DTD SVG 1.1//EN" "http://www.w3.org/Graphics/SVG/1.1/DTD/svg11.dtd">
<svg version="1.1" xmlns="http://www.w3.org/2000/svg" xmlns:xlink="http://www.w3.org/1999/xlink" width="72" height="80" viewBox="0 0 72 80">
<path d="M62 59.68v-1.2l-0.32 1.2h0.32zM37.28 27.52l0.32-0.24-0.32-0.32-0.32 0.32zM38.4 26.64v-0.56l-0.56-0.32v0.88h0.56zM39.52 22.96l-0.32-0.24-0.24-0.32 0.56 0.88v-0.32zM41.84 20.96l0.32-1.92h-0.64l-0.56 1.6zM48.32 18.72l-2.24 0.32 0.32 0.24-1.2 1.2v1.36l0.64 0.88 0.8 0.24-3.44 1.44-0.32 3.12-1.040 2.8 0.32-2.8-0.88 2.56-0.32-0.8 0.56-4.080-2 2.88-0.88-0.24-1.040 0.88-0.32 1.6-1.44 0.88 0.32 3.44-2.32 3.12 0.88 3.12-0.88 2 1.44 4.32 0.88-0.32-0.64 0.56 0.64 2.56 0.24 3.36-1.44 4.88-2.24 4.24-1.68 1.44h17.28v0.56l11.12-0.56 2.24-3.36-0.32-0.88 0.64-2.080 2-1.36v-1.68l0.88-0.64-0.32-0.56 1.36-0.24v1.44l0.88-0.88 0.88-4.56-2.24-8.8-0.88-1.68-1.68-1.12-2.56 1.12-1.12 0.8h0.56l-1.2 2.32-0.56-0.32-1.12 1.44-2-1.12 0.64-3.12 1.92-0.88 0.56-2.32 1.44-0.8 0.32-5.12-1.44-2.24 0.24-0.88 1.2 0.56-0.88-2.8-4.56-2.32h-1.44l-0.8-1.36-2.32-0.56zM50.64 18.4h-1.44l1.12 0.88h0.64zM42.4 18.4l-0.24-0.24h-0.32l0.32 0.56zM50.96 16.4l-0.64 0.32h0.88l-0.56-0.32h0.32zM57.68 16.080l-1.6-1.040 0.24 0.56-1.68 0.8 2.48 0.56zM52.88 13.6l-0.32-0.56-0.24-0.64-0.24 0.64zM52.56 12.4l-0.24-1.12 0.24-0.8-0.48-0.24-0.56 0.8 0.8 1.36h0.24zM33.52 11.040l-0.8-0.8 0.32 0.8h0.48zM18.8 4.48l0.32-0.88-0.88-0.24h-0.32v-1.2l-2.56 2.32-1.12 0.32-2.32 1.44-2.8 0.32-5.12 2.8 1.44 0.56 0.8 1.92 7.76 2.64 1.92 1.12 2.56 0.24 3.12 1.12v1.44l2.32 1.52-0.56 3.36h1.68l-0.64 1.92 0.88 1.2v-0.88l4.24-5.6 0.88-2.64v2.64l0.88-0.64 0.88-1.44h1.68v1.2l-0.56-0.32-0.8 1.44 0.8 0.48 0.8-1.6 1.2-0.64 0.88-1.44 2.48 0.32 0.32-0.56 2-0.32 0.88-1.040 4 0.72 2.16 1.76 0.64-2 0.88 0.56 0.56-0.32 4.56 0.32v-0.32l-1.44-1.040 0.24-0.56-1.6-0.56 0.48-0.32-1.36-2.8-1.76 0.8-0.56-0.8-1.36 0.48-1.76-0.48 0.56-3.2-4.24 1.12h-4.88l-3.92 2.88-0.88-0.8-0.88 0.48-0.88-1.040-1.6 0.56-1.2-0.32-2-3.44-1.2-0.8-2.48-0.32-1.44 0.8 1.12-1.36-1.92 1.2-0.56 1.040 0.24-2.56zM25.040 0.24l-0.8-0.56-3.52 0.56-2.48 1.92v0.88l1.44 0.56-0.56 0.64 0.56 0.8 1.68-2.56 2-1.36-0.56-0.56z"></path>
</svg>
