<?xml version="1.0" encoding="UTF-8"?>
<svg width="21px" height="32px" viewBox="0 0 21 32" version="1.1" xmlns="http://www.w3.org/2000/svg" xmlns:xlink="http://www.w3.org/1999/xlink">
    <title>Northern Mariana Islands</title>
    <g id="Symbols" stroke="none" stroke-width="1" fill="none" fill-rule="evenodd">
        <g id="Northern-Mariana-Islands" fill-rule="nonzero">
            <path d="M6.4,17.7 L6.4,18.5 L6.2,19.4 L6.5,20.4 L5.6,21.4 L5.6,22.3 L6.4,23.7 L7.1,23.7 L7.8,24.8 L7.4,26.9 L7.1,27.3 L7.1,27.8 L6.8,28.8 L7.1,29.9 L6.4,29.8 L5.9,30.4 L6,30.9 L5.2,32 L4.3,32 L3.9,30.4 L4.1,29.5 L3.6,28.5 L2.6,27.8 L2.5,27 L2.2,26.2 L1.7,26 L1.1,26.3 L0.2,25.7 L0.4,24.4 L5.68434189e-14,23.8 L0.5,22 L1.2,21.8 L1.2,20.6 L4.1,17.7 L5.1,16.5 L5.5,16.5 L6.4,17.7 Z M21,1.5 L20.7,1.3 L20.2,0.4 L19.3,5.68434189e-14 L18,1.2 L16.8,2.6 L16.4,3.2 L14.2,4.4 L13.2,5.3 L12.4,6.1 L11.4,6.1 L11.2,8.1 L10.6,10.7 L9.9,11.7 L9.8,12.4 L9.2,14 L9.2,14.9 L10.4,15.5 L10.6,16.1 L13.1,16.1 L13.7,16.5 L13.8,17.2 L14.3,17.3 L14.6,16 L14.9,15.4 L14.8,14.6 L14.1,14.4 L13.6,13.7 L14.3,11.4 L15.2,11.1 L15.8,11.4 L16,11.9 L17.7,12.2 L17.9,11.2 L18.2,10.8 L17.5,10.2 L17.2,9.5 L16.7,8.9 L16.6,8.2 L16.9,8 L16.9,7.6 L16.7,7.1 L17.9,5.4 L18.6,5.2 L19.3,4.3 L19.5,2.8 L20.7,2.7 L21,2.2 L21,1.5 Z"></path>
        </g>
    </g>
</svg>