<?xml version="1.0" encoding="utf-8"?>
<!-- Generated by IcoMoon.io -->
<!DOCTYPE svg PUBLIC "-//W3C//DTD SVG 1.1//EN" "http://www.w3.org/Graphics/SVG/1.1/DTD/svg11.dtd">
<svg version="1.1" xmlns="http://www.w3.org/2000/svg" xmlns:xlink="http://www.w3.org/1999/xlink" width="104" height="80" viewBox="0 0 104 80">
<path d="M73.52 55.6l-0.8 0.48-0.24 0.4 0.56 0.16zM74.64 52.24l-0.24 0.16-0.32 0.96 0.16-0.080zM79.84 47.68l-1.2 0.24-1.28 1.040-0.64 0.72 1.2-1.12zM88.64 45.92l-0.4-0.48-0.88-0.24 1.040 0.72h0.24zM86.88 45.2l-0.56-0.16-1.76 0.16-2.080 0.72 2.96-0.72h1.44zM88.8 46.32l1.36-2.32 1.92-2.4-2.080 2.24zM92.8 41.2v-0.32l1.040-0.72h-0.48zM95.12 39.28l1.52-1.040-2.24 1.2-0.4 0.56zM99.12 37.84l0.48-1.52 0.4-3.28-0.88-2.48 0.56 2.8-0.24 3.52-2.4 1.52zM98.080 30l-0.4-1.36-0.8-0.080 0.8 1.28zM95.92 23.52l-0.96-2.96 0.8 3.2 1.44 3.6-0.32 0.080 2.24 3.040-2.24-4.48zM94.56 20.56h-0.88l0.32 0.64h0.72zM49.36 21.2l-15.92-1.36-0.56 3.36-1.92 0.48-1.92 2.64-1.6-0.72-3.84 2.48-0.8-1.36-1.84 1.84-0.88-0.48-1.2 2.080-1.92 0.4-3.68 2.4-4.24 0.4-1.36 1.2-0.72 1.92-2.4 0.4-0.56 3.28 13.28 0.4 7.92-2.48 14.24 1.2v1.040l1.36-0.64 1.52 2.24 0.080 1.6 12.24 0.56 11.92 12.4 2.080-1.2 3.68 0.8 1.040-1.52-0.32-2.48 0.64 1.2-0.16 2.16 2.080-5.12 2-1.92 1.76-0.72-0.72-1.2 0.72-0.48-0.56-1.44 1.2 1.36-0.72 0.72 0.8 0.4 1.92-1.6v-1.040l0.48 1.040 2.080-0.72h2.16l-0.88-0.32 1.040-0.56 0.56 1.2 0.16-1.52 1.2 1.040 2.48-3.040-0.96-0.8 0.4 0.64-1.44 0.56 0.080-1.76-0.4 1.36-0.88-0.16 0.32 0.72-0.96-0.72-1.28 1.12-2.24-0.96-1.44-2.24 3.36 2.080 2.4-1.76-0.16-0.8-1.2 0.16 2.080-1.44-5.28-1.92-1.040-1.36 4.96 1.68-0.56-1.68 1.92-0.24-1.2 0.56 1.040 1.36 0.72-0.96 0.64 1.52 0.16-0.72 2.16 0.72 1.36-0.88 1.44-3.12 0.48 0.88 1.12-0.88v-2.48l-1.28-1.92 0.16 0.56h-0.8l0.32 0.72-0.72-0.56-0.56 0.48-0.32 3.2-1.2-0.56 1.2-0.16-1.040-1.2h0.72v-2.48l-2.48 0.16 0.24 0.56-1.76-0.72-3.2 0.56 0.32-0.72-0.8-1.6 0.16-2.56 0.64 0.48-0.32 1.36 0.32 1.76 1.12 0.56 2.96-1.2-1.76-1.6 2.64 1.52-0.72-1.68 1.36 1.2 1.12-0.48-1.44-2 2.96 1.92-0.64-1.84 1.92 2.96-1.44-4.56v0.8l-0.56-0.48v-0.32l-0.64-0.56v-1.040z"></path>
</svg>
