<?xml version="1.0" encoding="utf-8"?>
<!-- Generated by IcoMoon.io -->
<!DOCTYPE svg PUBLIC "-//W3C//DTD SVG 1.1//EN" "http://www.w3.org/Graphics/SVG/1.1/DTD/svg11.dtd">
<svg version="1.1" xmlns="http://www.w3.org/2000/svg" xmlns:xlink="http://www.w3.org/1999/xlink" width="42" height="80" viewBox="0 0 42 80">
<path d="M29.040 53.84l1.28-1.52h-1.28l-0.64 1.52-1.68-0.64 0.88 0.64h1.44zM31.92 49.6l2-2.88 0.72-2.96-3.52 6.48zM36.88 14.88l1.28-3.52 0.72-2.24-17.040-9.84-2 0.64-1.52 1.36-1.44 4.32-2 2.16-2.16 2 1.28 2.96-0.64 2.16h-1.28l-0.8 1.36v4.96l2.080 0.72 1.52 3.52h0.72l0.56 1.36 4.96 5.76-0.56 0.72-3.68 2-3.52 2.96h-0.64l0.64 1.36-1.28 1.44-3.76 0.72-2 0.64-2.8 5.68 0.56 1.52v1.36h-0.56v0.64l3.52 4.32 0.64-0.72 0.64 1.36h1.44l1.52 2.16 0.8 1.52 1.92-0.72 0.88 0.72h2l0.72 2.16-1.44 2.080v2.8l1.44-0.56 2.24-1.6v-0.64l2-2.080-1.28-0.72h1.28l0.72-2.16 2.080-2.16h-2.080l0.8-0.8h1.28l1.44-2v0.64l-0.64 1.36 2.96-1.36-0.8-1.36h-0.88v-1.52h1.68v-2.72h0.64l1.28 1.36-0.64-1.36 3.52-4.24v-2.24l1.44-3.52-0.72-0.72 0.72-0.64-0.72-0.72 1.28-0.64v-1.6l0.96 1.6-1.52 6.24h0.56l0.96-6.96v-1.52l1.28-5.6v-3.6l-0.56 0.64-2.96-1.36h-1.44l-1.36-0.64v-2.16l1.36-2.72 1.44-2.24v1.36l2.24-1.36z"></path>
</svg>
