<?xml version="1.0" encoding="utf-8"?>
<!-- Generated by IcoMoon.io -->
<!DOCTYPE svg PUBLIC "-//W3C//DTD SVG 1.1//EN" "http://www.w3.org/Graphics/SVG/1.1/DTD/svg11.dtd">
<svg version="1.1" xmlns="http://www.w3.org/2000/svg" xmlns:xlink="http://www.w3.org/1999/xlink" width="92" height="80" viewBox="0 0 92 80">
<path d="M64.48 64.080l-1.2 0.16-0.72 1.84 1.92-1.2v-0.8zM73.44 63.68l-1.040 0.24-2.48 0.56 1.76-0.16zM74.4 63.92l3.92-1.84-5.44 2v0.16zM83.92 56.88l-1.040-0.16-2.96 2.4-5.28 0.32-1.12 0.8-2-0.56 0.4 0.72-0.8-0.72-0.4 0.8-1.44-0.080-0.32 1.12-0.72-0.88-0.16 1.040-0.24-0.24v0.64l-1.84 0.16-1.28 1.84 0.4 1.040 1.36-0.32-0.24-0.56 0.8-0.32 0.8 0.56-1.84 0.8 3.68-0.48-1.44-0.32 11.6-2.96-0.96 0.56 9.28-4.4-2.72 1.040-0.72-0.8-0.080 0.56-1.44-0.080-1.44 1.84h-1.84zM86.48 55.040h0.16l0.56-0.56-0.96 0.4zM13.92 28.88l-1.040-0.48-0.080 0.88 0.48 0.4zM42.080 16.16l0.16-0.080v-0.48l-0.72 1.040zM43.68 11.92l-0.56 0.16-0.16 0.24 0.96-0.24zM45.36 11.040l-1.28 0.4 0.16 0.64 0.64-0.64zM56.32 2.080l-4.080 2-4.56 3.84-1.6 2.96-5.2 3.44 0.56 1.36 0.96-0.64 0.88 0.4-0.88 1.040 1.52-0.32-1.68 2.16-0.16-0.72-0.64 0.72 0.8 2.96 0.24-0.24-0.080 1.040-0.88 0.96-1.6-0.16-3.040 2.64-2.32 0.4-0.32 0.8-4.080-0.88-2.32 0.56-1.68-1.44-6.48-0.96-7.36 1.28-0.080 2.56 1.84 0.8-0.56 1.040 0.4 2.8-1.68 0.88-1.28 1.92-6.72 4-0.24 3.76 46.88 1.84 0.88 1.76 1.92 0.8 0.080 3.040 0.72 1.52 2.64 1.040 0.48 0.96 8.48 5.12-0.8-3.84 0.56-0.72 0.64 4.16-1.36 4.4 0.88-1.44 1.28-0.16-0.16-0.64 1.84-1.76-0.88-1.44 2.64-1.68-0.8-0.96 0.48-11.44 2.48-9.36-0.24-11.36-0.4-1.040-1.12 0.72-0.16-0.56 0.56-2.48-0.8-3.92 1.12-2.56 0.4-2.96-0.8-2.4 0.080-4.8v-0.8h-15.2z"></path>
</svg>
