<?xml version="1.0" encoding="utf-8"?>
<!-- Generated by IcoMoon.io -->
<!DOCTYPE svg PUBLIC "-//W3C//DTD SVG 1.1//EN" "http://www.w3.org/Graphics/SVG/1.1/DTD/svg11.dtd">
<svg version="1.1" xmlns="http://www.w3.org/2000/svg" xmlns:xlink="http://www.w3.org/1999/xlink" width="90" height="80" viewBox="0 0 90 80">
<path d="M83.52 21.040l-0.16-5.92-39.36 0.56-39.68-1.2-0.32 5.84 28.32 1.040-0.32 22.56h0.96l2.16 2.4 2.48 0.16 0.48-1.12 1.68 1.76 0.080 1.040 4.48 1.2 1.28-0.32 0.96 1.040 1.44-0.8h2.4l0.16 1.44 1.28 0.24 0.32 1.52h0.8l2-1.52 2 2.080 2.16-0.96 0.72 2.16 0.64-1.76 1.44-1.040 1.68 1.2 1.52-0.56 0.080 0.56 2.56 1.68 0.56-0.64 3.2-1.6 1.6 0.24 1.68-1.2 1.040 1.040h1.36l1.36-1.2 2.4 1.2 1.12 1.12 3.84 1.2-0.32-20.24z"></path>
</svg>
