<?xml version="1.0" encoding="utf-8"?>
<!-- Generated by IcoMoon.io -->
<!DOCTYPE svg PUBLIC "-//W3C//DTD SVG 1.1//EN" "http://www.w3.org/Graphics/SVG/1.1/DTD/svg11.dtd">
<svg version="1.1" xmlns="http://www.w3.org/2000/svg" xmlns:xlink="http://www.w3.org/1999/xlink" width="63" height="80" viewBox="0 0 63 80">
<path d="M14.64 13.92l-0.8 0.32-0.64-0.080-0.64-0.8-1.28 0.4-0.48-0.16-0.56 0.080 0.48 0.48-0.16 0.32-0.080-0.56-1.12-0.56 0.32 1.76-0.4 0.8-0.080 1.68 0.32 0.88 0.4-0.16-0.56 1.040 0.56 0.72-0.4 0.16-0.16-0.64-0.16 0.96 0.32 0.32-0.56 0.72 0.080 1.68-0.72 3.040v1.76l0.32 0.24h-0.32l-0.32 1.52 0.4 0.48-0.32-0.16-0.32 1.12-0.8 5.6 0.48-0.32 0.4 0.32-0.56-0.24-0.4 0.8-0.88 2.4 0.96-0.96 0.24 1.040-0.48-0.4-0.64 1.2-0.080-0.72-0.32 0.24-0.64 2.72-1.040 1.92 1.040 1.84-0.32 2.8 0.4 2.16 0.96 1.12 25.84 0.56 24.56-0.4-0.88-17.2 0.56-1.84-0.24-0.8 0.56-0.64-0.64-0.88-1.44-0.080-0.16-1.040 1.040-3.28 1.2-1.6v-1.040l2.24-5.36-0.72-1.68-1.36-0.64-0.88-1.52-13.92 0.4-0.56 0.56-3.2 0.24-4.24 1.84h-2.56l-1.76 0.88-1.68 0.080-0.88-0.72-3.36-0.24-3.040 1.44-3.040-0.96-0.88-3.84-1.44-1.12h-0.56z"></path>
</svg>
