<?xml version="1.0" encoding="utf-8"?>
<!-- Generated by IcoMoon.io -->
<!DOCTYPE svg PUBLIC "-//W3C//DTD SVG 1.1//EN" "http://www.w3.org/Graphics/SVG/1.1/DTD/svg11.dtd">
<svg version="1.1" xmlns="http://www.w3.org/2000/svg" xmlns:xlink="http://www.w3.org/1999/xlink" width="85" height="80" viewBox="0 0 85 80">
<path d="M68.24 46.080l0.32-0.72v-0.32l-0.32 0.32v0.72zM19.76 3.84l-0.24-0.32-0.64 0.8-4 0.88-1.040 1.040-5.84 1.28-3.2 3.36-0.8 2.16 2.96 2 1.92 2.24 2.96 0.8 2 5.52 1.84 2.32 0.56 1.68 4.8 3.68 1.52 3.2 1.84 0.72 2 2 0.16 2.16 1.36 1.12-0.16 0.88 1.2 0.96 0.16 1.040 4 2.32 0.32 2.16 1.52 3.52v2.24l3.36 2.8 1.12 3.2-0.48 2.48 1.36 2h1.2l1.84 1.040 1.68-4.16 0.16 0.8-0.72 1.84 2.32-2-1.84-2-1.12-4.32 1.2 0.96 0.48 2.56 1.28 1.12v-3.040h0.4l0.32 3.76 2.8-1.2 0.56-1.68-1.84 1.2 1.44-1.36-2.16-0.64 1.84-0.4-3.36-0.32 0.080-0.48h2.32l-0.16-0.88 2.48 1.68 0.48-1.12 0.56 0.96 2-1.52-0.88-1.28 1.36 1.12 2.72-0.8-0.24-0.72 1.2-0.16 1.2-0.96 0.16-0.72-1.68-0.8h0.64l-0.32-1.36h0.88l-0.24 1.040 1.36 0.8 3.84-3.12 0.32-0.4-0.64 0.4-0.32-0.4 0.64-1.52 1.040-0.48 0.48 0.88 1.68-0.4 0.32-0.96 1.2-0.88-0.72-0.96 1.040 0.64v-0.8l0.8 0.48 0.56-0.8-1.84-2.24 1.12-2.16 0.56-0.64-1.2 2.48 0.88 0.32 0.48 1.52 0.8-3.84 3.040-4.48 2.8-2.56 3.040-1.36-0.48-0.64 0.48-0.16-17.6-17.28-18-0.48-0.080-2.64-2.32-2.88-1.84 0.88-0.16-1.68z"></path>
</svg>
