<?xml version="1.0" encoding="utf-8"?>
<!-- Generated by IcoMoon.io -->
<!DOCTYPE svg PUBLIC "-//W3C//DTD SVG 1.1//EN" "http://www.w3.org/Graphics/SVG/1.1/DTD/svg11.dtd">
<svg version="1.1" xmlns="http://www.w3.org/2000/svg" xmlns:xlink="http://www.w3.org/1999/xlink" width="99" height="80" viewBox="0 0 99 80">
<path d="M79.36 58.080h-0.080l-0.16 0.16h0.24v-0.16zM79.52 58h-0.080l-0.080 0.080zM79.84 57.84l-0.080-0.080-0.16-0.080 0.24 0.32v-0.16zM81.52 56.48l0.16-0.32-0.16 0.080v0.080l-0.32 0.72zM67.12 47.6l1.2-0.32h-0.24l-1.040 0.32h0.080zM49.36 54.080l0.32-0.48v-0.080l-0.080 0.080zM50.48 53.040v-0.16l-0.64 0.48-0.16 0.24 0.32-0.24zM79.84 49.44l-0.24 0.24 0.24 0.48-0.080-0.4zM61.12 50.8l-0.24 0.16h0.24v-0.16zM53.52 50.8h-0.16l-0.56 0.48zM77.76 54.24l-0.080-0.32h-0.16zM49.2 57.76l-0.4-1.76v0.32zM49.12 54.56h-0.16l-0.16 0.88 0.16-0.56zM81.2 52.16l-0.8-1.2 0.48 0.8zM58.96 50.16l0.080-0.16-0.32-0.24-0.16 0.24 0.24 0.16h0.16zM71.44 48.48l0.56-0.32-0.8 0.32 0.080 0.16zM63.68 48.64v-0.32l-0.32 0.16zM64.4 49.040v-0.4l-0.16-0.24zM85.52 34.16l0.16-0.24-0.4 0.24v0.24zM86 33.84l0.080-0.32-0.080-0.48-0.24-0.32 0.24 0.88-0.32 0.32zM85.6 32.56l-0.080-0.16h-0.16zM85.040 34.56l0.16-0.080 0.080-0.080h-0.080zM82.96 36.16l-0.080 0.080v0.16zM8.64 37.92l-0.32-0.16 0.080 0.32 0.32-0.080zM9.2 39.6h-0.080l0.32 0.16-0.080-0.080zM9.040 37.92l-0.24-0.16 0.24 0.32 0.56-0.080-0.16-0.080h-0.4zM11.12 40.88l-0.24-0.48h-0.080l0.080 0.4zM11.28 39.68l-0.4-0.16 0.24 0.080v0.24h0.32zM84.32 35.36h-0.080l-0.32 0.080-0.32 0.16 0.4-0.16zM86.080 24.4l0.16-0.24v-0.16l-0.16 0.48v-0.080zM86 24.8l0.080-0.24-0.24 0.24h0.16zM92.96 12.32l-0.16-0.24-0.16 0.4 0.24 0.080v-0.24h0.080zM92.48 12.64h-0.24v0.16l0.24-0.080v-0.080zM92.24 13.12v-0.080l-0.24-0.080 0.080 0.16h0.16zM91.84 18.96v0.24l-0.24 0.080 0.4-0.080zM90.88 19.040l-0.32 0.32h0.16l0.32-0.16zM77.2 18.88h-0.24l0.080 0.080 0.16 0.080v-0.16zM81.2 15.2l-0.16 0.16 0.080 0.080 0.080-0.080v-0.16zM50.96 8.96l0.080 0.48 0.24-0.080v-0.24zM63.84 16.24l-0.48 0.72 0.16 0.32 0.32-0.64v-0.24h0.080zM69.040 14.080l-0.32-0.24v0.16l-0.16 0.16 0.4 0.16zM68 13.6v-0.48h-0.16l-0.16 0.16zM64.16 13.76l-0.16-0.16v0.16h0.16zM66 15.36l0.080-0.32h-0.080l-0.080 0.32h0.080zM67.84 14.72l-0.16-0.080-0.16 0.080 0.16 0.080zM57.92 13.76l0.24-0.080-0.16-0.080-0.24 0.24zM58.16 13.52v-0.16l-0.24 0.16h0.24zM10.080 9.36l0.080-0.24-0.080-0.16-0.16 0.4h0.16zM62.32 12l-0.16-0.080-0.72 0.16-0.4 0.48v0.16h0.24l0.080-0.080v0.16h-0.080l0.080 0.24 0.24-0.48 0.32-0.32-0.080-0.16zM10.16 9.68v-0.16h-0.080l-0.16 0.32zM60.88 10.64l-0.8 0.56-0.080 0.24 0.4-0.16h-0.080l0.48-0.32zM10.24 7.6l-0.32 0.32 0.24 0.24v0.32l0.24 0.16 0.080-0.16-0.24-0.16-0.080 0.16 0.080-0.4-0.16-0.16h0.32zM10.4 7.28v-0.16l-0.16-0.080zM9.76 7.36l-0.16-0.24v0.24l0.16 0.080v-0.080zM10.16 7.12l-0.24-0.24-0.16 0.24 0.16 0.16v-0.24l0.16 0.24zM87.12 21.84h-0.080l-0.16 0.080zM87.36 21.84l0.48-0.48-0.72 0.48v0.080zM85.84 22.080l-0.16 0.080v0.32l0.16-0.32v-0.080zM88.48 20.4l-0.56 0.48-1.52 0.48v0.24l-0.080-0.16v0.24l-0.32 0.16-0.16 0.24 0.16 0.080 0.32-0.16-0.080 0.16 0.4-0.16-0.24 0.080 1.68-0.8-0.24 0.080 1.28-1.040-0.32 0.32-0.080-0.080v0.080h-0.32l-0.080 0.32-0.4 0.080zM85.28 27.040l0.080 0.16-0.080-0.56-0.24 0.16 0.16-0.16-0.16-0.16 0.16 0.080v-0.24l-0.56-0.16-0.72-1.36 0.24-0.56 0.32-0.16 0.16-0.32-0.080 0.32-0.4 0.32-0.24 0.4 0.080 0.24 0.8 0.48 0.48-0.080v0.56l0.24-0.16 0.24-0.72h-0.16l0.24-0.16-0.080-0.16v-0.080h0.080v-0.24h0.16l0.24-0.4v-0.16h0.080l-0.080-1.040-0.16-0.48v0.24l-0.48-0.16 0.080-0.32 0.16-0.16 0.16-0.56-0.32-0.64 0.16 0.16 0.16 0.32-0.16 0.72 0.16-0.16 0.24-0.16 0.080-0.4 0.8-0.64 0.24-0.32 0.72-0.080 0.24-0.16-0.16-0.080 0.24 0.080 0.24-0.16 0.88-0.32v-0.88l0.24 0.080h0.080l0.080-0.080-0.080 0.24 0.080 0.32 0.24-0.24v0.16l0.24-0.16v-0.16h0.080l0.080-0.32h0.24v0.4l0.24-0.24 0.8-0.4-0.080-0.32-0.32-0.32-0.4 0.080h0.4l0.080 0.16h0.080v0.24l-0.32 0.16h-0.4l-0.080-0.32h-0.32v-0.16l0.080 0.080-0.32-0.24-0.32-0.16h0.080l-0.080 0.16-0.16-0.16 0.080-0.080v-0.24h0.080l-0.080-0.24 0.4-0.24v-0.080l-0.080 0.16-0.16-0.080-0.24-0.24 0.080-0.72 0.080 0.080v-0.48l0.32-0.48-0.080-0.16 0.24-0.080-0.24-0.080 0.32-0.56 0.080 0.16 0.16-0.32 0.16 0.32-0.080-0.4-0.080-0.080 0.080-0.16 0.16 0.56-0.080-0.32 0.080-0.24v0.24l0.24 0.080 0.24-0.56v0.24l0.16-0.16v0.24l0.16-0.080 0.080-0.96-0.080-0.080 0.16-0.24v-0.16h0.080v0.4l0.080-0.16-0.080 0.24 0.56 0.080-0.24-0.4h0.24l-0.080-0.24 0.16 0.24 0.16-0.24-0.16-0.080 0.24 0.080v-0.080l0.24 0.32v-0.48l0.16 0.24v-0.24l0.080 0.24v-0.4l0.16 0.080v-0.16l0.080 0.16v-0.080h0.24v-0.16h0.080v-0.16l0.080 0.16v-0.4l0.16 0.24 0.16-0.080 0.24-0.48-0.24-0.080-0.16 0.24-0.080-0.24 0.24-0.16-0.32-0.32-0.16 0.080-0.32-0.080-0.16-0.72h-0.56l-0.88-2.72-0.72-0.32h-0.24l-0.72 0.64-0.24-0.16-0.080-0.32h-0.24l-0.8 1.84 0.080 0.56-0.16 0.56 0.16 0.48-0.080 0.48-0.24 0.4-0.16 0.16 0.24 0.16-0.32 0.080v0.32l-0.24-0.080-0.24 0.16h-0.16l-0.16 0.24 0.080 0.4-5.2 1.28-0.4 0.4-0.56 0.72-0.16 0.48-0.72 0.64 0.16 0.24 0.24-0.16v0.16h0.16l-0.32 0.32 0.32 0.32-0.080 0.24-0.32 0.16-0.64 0.72-1.040 0.16-0.8-0.080-1.44 0.56 0.080 0.32 0.24 0.080 0.16 0.48-0.96 1.040-1.12 0.96-1.44 0.96-0.64 0.56-0.4 0.080-0.64 0.24-0.4-0.080 0.080 0.080h-0.72l0.64-0.16-0.32-0.080-0.24 0.080-0.8-0.16 0.4-0.72-0.080-0.16 0.080-0.4 0.32-0.32v-0.48l0.16-0.16h0.16v0.32l0.24-0.080v-0.88l-0.56-1.68-0.4-0.4h-0.24l-0.56 0.32 0.080 0.080-0.24 0.48-0.32 0.16-0.4-0.16 0.080-0.56 0.32-0.24 0.16-0.32 0.16-0.24v-0.96l-0.32-0.4v-0.16h0.24l-0.24-0.32-1.12-0.4-0.32-0.32h-0.4l-0.48-0.16-0.24 0.080 0.080 0.080-0.16 0.56 0.24 0.16-0.56 0.32v0.56l-0.16 0.48v-0.32l-0.24 0.32-0.080-0.080 0.080-0.72-0.24 0.56h-0.24l-0.16 0.080v0.4l-0.24 0.080 0.080 0.64-0.32 0.8 0.080 0.48-0.080 0.4 0.48 0.72 0.080-0.080v0.080l0.24 0.56v1.040l-0.48 1.28-0.56 0.48-0.32 0.24-0.56-0.4-0.48-0.88v-1.2l-0.4-0.4-0.080-0.48 0.32-0.96-0.080-0.4 0.32-0.64-0.080-0.24 0.16-1.040-0.16-0.16-0.4 0.16-0.32 0.64-0.16-0.080v-0.16l0.24-0.56 0.24-0.24v-0.24l0.72-1.2 0.080-0.56 0.080 0.56 0.16-0.4 0.48-0.16-0.24 0.56 0.16 0.16 0.48-0.88h0.56l0.4-0.080 0.080-0.32 0.88 0.080 0.32 0.24 0.16-0.48 0.24 0.16h0.080l0.8-0.16-0.24-0.32-0.32-0.080h0.16l-0.32-0.48-0.4 0.24-0.16-0.16-0.16 0.16-0.4-0.16 0.080-0.56-0.8 0.32-0.96 0.16-0.72 0.56-0.24-0.080-0.080 0.080-0.16-0.16-0.72 0.080-0.32-0.48-0.32-0.16h-0.56l-0.16 0.24 0.16-0.32-0.4 0.48v-0.48l-0.48-0.48-0.32 0.48-0.56 0.32-0.72 0.24-0.96 0.56-0.56-0.16v0.080l-0.16 0.080 0.16-0.56-0.080-0.080-0.8 0.32-0.8 0.24-0.24-0.24 1.84-1.76 1.68-0.88h-0.32l-0.24 0.080-0.24-0.32-0.96 0.24-0.16-0.32-0.56 0.4h-0.4l-0.88-0.56-0.24 0.16-0.16 0.16-0.16-0.4h-0.4v-0.16l-0.8-0.080-0.8 0.16-0.080-0.16-1.2-0.16-0.080-0.32-0.4-0.24-0.4 0.24-0.16-0.24-5.6 0.24-5.6-0.080-5.52-0.24-5.84-0.4-9.040-1.12-8.88-1.6-0.080 0.080 0.080 0.48h0.4v0.32h-0.24l0.080 0.24-0.24-0.16-0.080 0.080 0.24 0.080 0.24 0.32-0.16 0.16h-0.080v0.24l0.080 0.16-0.080-0.32 0.080-0.080 0.24 0.48-0.48 0.32v0.96l-0.16 0.080-0.16-0.080-0.080 0.16-0.24 0.24-0.16-0.24-0.080 0.24-0.16-0.24-0.080 0.16 0.24-0.16h-0.32l0.56-0.4v0.4l0.24-0.4v0.080l-0.16 0.16 0.16 0.080 0.24-0.48v-0.080l-0.32 0.080 0.080-0.24 0.080 0.16v-0.24l0.16-0.16h0.080l-0.080-0.4v0.24l-0.32 0.32h-0.32l-0.32 0.4h0.48l-0.48 0.080-0.080-0.080 0.64-0.64v0.080l0.4-0.32-0.24-0.32 0.080-0.16h-0.16v0.24l-0.080-0.24-0.080 0.16-0.16-0.4-0.24 0.16-1.040-0.32-1.040-0.72-0.080 0.8 0.32 0.72v1.44l0.16-0.16 0.32 0.32-0.32 0.080 0.080 0.16-0.24-0.24v0.4l0.48 0.16h-0.24v0.48h-0.080v0.080l-0.16-0.64-0.24 0.8 0.64 0.080 0.32 0.080 0.24 0.32-0.24-0.24h-0.56l0.080 0.080-0.32-0.16 0.080 0.32-0.32 0.56 0.080 0.16h0.16l-0.24 0.16 0.080 0.24h-0.080v-0.080l-0.48 1.36v0.48l-0.24 0.24 0.16 0.080-0.24 0.24-0.32 1.28h0.080l-0.24 0.080-0.24 0.4 0.24-0.16v0.24l-0.080-0.080-0.16 0.16-0.080-0.080-0.56 0.96 0.16 0.4-0.16 0.64v0.56l0.16 0.24-0.16 0.4 0.16 0.24v0.48l-0.32 0.72v0.24l-0.24 0.4 0.24-0.080-0.24 0.32-0.080-0.080-0.4 0.48v0.4l0.56 0.64 0.080 0.8-0.080 0.56v0.56l-0.080 0.4 0.8 1.2 0.32 0.72-0.16-0.24-0.24 0.48 0.24-0.24 0.56 0.8 0.080-0.080v-0.56h0.24l0.32 0.32 0.32-0.24 0.080 0.24 0.48-0.16-0.24 0.24 0.32-0.080-0.24 0.24-0.72-0.24-0.080-0.16-0.24 0.16-0.080 0.080 0.080 0.16v0.16l0.16 0.080 0.16 0.8h-0.080l-0.48-0.48v-0.4h-0.16l-0.16 0.48 0.24 0.96 0.32 0.32 0.32 0.16 0.080 0.24-0.080 0.4-0.32 0.16 0.16 0.56 0.48 0.8 0.16 0.72 0.64 0.56-0.080 0.48 0.32 0.24-0.24 1.2 0.32 0.32 1.52 0.32 0.48 0.4 0.16 0.4 0.56 0.32h0.48l0.16 0.64 0.4 0.080 0.96 1.040 0.24 0.64v0.72l0.24 0.16v0.080l-0.24-0.080 0.16 0.24 4.32 0.24-0.32 0.4 6.56 3.36 5.12 0.4 0.16-0.96 3.2 0.24 0.32 0.56 0.4 0.32 1.040 1.2 0.72 0.48 0.56 0.96-0.16 0.48 0.32 0.64 0.88 0.8 0.48 0.080 0.72 0.48 0.4 0.080 0.32-0.32 0.24-0.080v-0.24l0.32-0.88h0.64l0.080-0.32 0.4 0.24 1.2 0.080 0.24 0.4 0.16-0.080 0.080 0.16 0.32 0.16 0.64 0.8 0.080 0.32 0.48 0.96 0.080 0.48 0.48 0.24 0.4 0.8 0.64 0.4 0.080 1.040 0.4 0.56 0.32 0.88 0.56 0.080 0.24 0.24h0.48l0.4 0.32 1.040 0.16 0.64 0.4v-0.16l0.4-0.16v-0.24l-0.16 0.16 0.080-0.16-0.24-0.080-0.080-0.48-0.24-0.32h0.16l-0.24-0.64-0.16-0.080v-0.080l0.16 0.080-0.16-0.32h0.16l0.080-0.56h-0.56l0.48-0.24v0.080l-0.16 0.080 0.24-0.080 0.32-0.8-0.32-0.16v-0.080l-0.24-0.080 0.72 0.080 0.24-0.56-0.16 0.24-0.24-0.24 0.16-0.24 0.24-0.080 0.080 0.24 0.16-0.16 0.24-0.080-0.16-0.4h0.16v-0.080l0.16 0.32 0.48-0.32h-0.24l0.080-0.16-0.16-0.080-0.16-0.32 0.4 0.080-0.080 0.24 0.080-0.080 0.080-0.16-0.080-0.16h0.080l0.16 0.16 0.32-0.080-0.080 0.080h0.16l-0.16 0.16 0.4-0.16-0.4 0.32 0.88-0.48-0.4 0.16v-0.080l0.64-0.16 0.8-0.64-0.080-0.32h0.080l0.56-0.4-0.24-0.16 0.16-0.080-0.24-0.080v-0.24l-0.080-0.16 0.32 0.080 0.16-0.16 0.080 0.080-0.080 0.4 0.56-0.16v0.16l-0.48 0.080-0.080 0.24 1.2-0.72h0.48l-0.24-0.32 0.24-0.32h0.24l-0.16 0.32h-0.16l0.080 0.24 1.12-0.24 1.040 0.32 0.72 0.080 0.56-0.16h-0.24v-0.24l-0.080 0.080-0.080-0.24 0.64-0.080v0.24l0.4-0.16 0.16 0.48 0.24-0.080 0.24 0.16 0.16-0.32v0.32l0.32 0.4-0.080 0.080-0.24-0.32-0.16 0.24 0.88 0.24v-0.16l0.16 0.24 0.24-0.080 0.16-0.32h0.16v-0.24l0.16 0.32 0.080-0.24 0.16 0.16 0.080 0.32 0.4-0.48v-0.24l-0.48-0.080 0.080-0.24 0.48 0.24h0.24l0.080 0.16-0.080 0.080 0.32-0.080v0.16h0.4l0.16 0.32 0.16-0.16-0.24 0.56 0.32-0.48 0.16 0.24 0.24-0.32-0.24-0.16-0.16-0.24v0.080l-0.32-0.080h-0.32v-0.080l-0.4-0.4 0.16-0.080-0.080-0.080 0.4 0.080-0.32-0.24 0.24-0.16 0.24 0.080h0.080v-0.16l-0.24-0.080 0.16-0.16h-0.16l0.16-0.24h-0.24l-0.32 0.56-0.32-0.32 0.24-0.080 0.080-0.24-0.16 0.080-0.24-0.080-0.24 0.24-0.32 0.080-0.4-0.080-0.080-0.24 0.4-0.4 1.12 0.4 0.24-0.080 0.24-0.4 0.16 0.080 0.64-0.32h-0.16l0.4 0.16 0.32-0.16 0.16 0.16 0.16-0.24 0.48 0.24 0.080-0.96 0.24 0.24 0.080 0.32h0.080l0.24 0.4-0.48 0.16 0.72-0.16h0.080l-0.080-0.24h0.32v-0.32l0.16 0.080-0.32 0.32 0.32-0.080 0.32-0.32-0.16-0.24 0.24 0.24 0.16-0.32 0.080 0.080-0.080 0.080 0.32 0.16-0.56 0.16 0.72-0.16h0.32l0.080-0.32 0.24 0.080 0.32-0.080 0.16 0.16h-0.16l-0.56 0.16 0.8 0.080 0.8 0.32-0.32-0.32 0.24-0.080 0.080 0.080 0.16-0.24v0.16l-0.16 0.16 0.24 0.24 0.16-0.080 0.080 0.24-0.4-0.24 0.64 0.48 0.080 0.4-0.16-0.32 0.080 0.24 0.080 0.080 0.64-0.16 0.24-0.24v0.24l0.56-0.48h0.32v-0.16l-0.32-0.080 0.24 0.080-0.16-0.080 0.4-0.32h0.4l0.64 0.32 0.32 0.32 0.24 0.080v0.32l0.88 0.64h0.4l0.4 0.48 0.16 0.96-0.16 1.36 0.24 0.32v-0.24l-0.24-0.080 0.32 0.24 0.080-0.48-0.24-0.080 0.16-0.16 0.16 0.16v0.16l0.24-0.16 0.16 0.16-0.4 0.64h-0.080v0.24l-0.080-0.16v0.16l0.32 0.080 0.64 1.040h0.24l-0.24-0.32 0.24 0.080 0.4-0.16-0.24 0.16 0.24 0.88 0.4-0.56-0.32 0.56 0.32 0.080 0.16 0.8 0.32 0.080-0.080 0.16 0.24-0.080 0.48 0.16 0.56 0.88 0.48 0.16-0.16 0.16 0.080-0.16h-0.24l-0.080-0.080-0.080 0.080v0.16l0.16 0.16 0.4-0.16h0.32l0.24-0.24h0.4v-0.96l0.16-0.56v0.32l-0.16-2.16-0.32-0.8-0.32-0.080h0.24v0.080l-0.48-0.64-0.080-0.32-0.96-1.28-0.24-0.88h0.16v0.32h0.32l0.16 0.8 0.4 0.72-0.4-0.8 0.080-0.48-0.32-0.32-0.72-0.88-0.96-1.52-0.4-1.12-0.24-0.24v-0.080l0.080 0.080v-0.32h-0.080l-0.080-0.32 0.080-0.16h-0.16l0.16-0.080-0.16-0.24 0.16 0.080v-0.080h-0.16l0.080-0.24 0.080 0.080 0.24-0.32-0.4-0.080h0.24l-0.080-0.16 0.080 0.080 0.24-0.4-0.24 0.24-0.080-0.24 0.24-0.16-0.16-0.080 0.24 0.24v-0.24h-0.24v-0.080l-0.080-0.16h0.32l0.16-0.16h-0.24v-0.080h0.32v-0.24l0.24-0.080-0.24-0.16 0.24-0.4v0.32l0.16-0.32-0.32-0.16-0.16-0.48 0.16 0.16 0.16 0.32h0.080v-0.32l0.080 0.4 0.32-0.16v-0.16l-0.24 0.16 0.24-0.24h-0.32l0.16-0.16h-0.24l0.16-0.080 0.48 0.080 0.080-0.16-0.080-0.16 0.16 0.16 0.32-0.24 0.16-0.16-0.16-0.080v-0.24l0.16 0.24 0.48-0.48-0.080-0.24 0.4-0.080v-0.080l0.080-0.080 0.080-0.24-0.16-0.080v-0.24l0.080-0.24-0.080 0.32 0.16 0.16v-0.48l0.56-0.8 0.56-0.48h0.72v-0.64l0.080 0.080v0.48l0.16-0.88 0.32-0.4 0.24-0.24-0.080-0.080h0.16l0.24-0.32v-0.080l0.080 0.080 0.64-0.16h-0.080l0.080-0.24 0.24 0.24-0.16-0.24 0.24 0.080 0.24-0.32v-0.32h-0.080v0.080l-0.16 0.16v-0.16h-0.24l0.16 0.16-0.24-0.16-0.080 0.24h-0.48l-0.24-0.32 0.56 0.24 0.32-0.4v-0.080l-0.16 0.080 0.32-0.32-0.96-0.16-0.24-0.16 0.88 0.080-0.16-0.24 0.32-0.080-0.16 0.080 0.16 0.24 0.16-0.24 0.080 0.24v-0.080l0.4 0.080 0.32-0.72 0.24 0.16v-0.72l-0.32-0.16v0.16h-0.24v0.56h-0.24l0.24-0.080-0.24-0.16 0.080-0.080v-0.32l-0.32 0.080v0.16l-0.24-0.16-0.56 0.24-0.16-0.8 0.080 0.080 0.080 0.4 0.24 0.080 0.4-0.24-0.32-0.080 0.48 0.080-0.16-0.24 0.24 0.16 0.16-0.16-0.24-0.32 0.48 0.24-0.16-0.24 0.4 0.48-0.4-0.8v0.24l-0.16-0.32-0.080-0.080 0.24 0.080-0.080-0.16-0.080 0.080v-0.32l0.72 1.36 0.4 0.24-0.56-0.8-0.4-0.56-0.32-0.72h-0.56l0.080 0.24h-0.24l-0.16 0.080v-0.16l-0.32-0.24-0.080-0.16-0.080 0.080-0.48-0.080-0.080-0.080h-0.4l0.4-0.16 0.16 0.24 0.16-0.24 0.24 0.24 0.16-0.080 0.4 0.32 0.24-0.080-0.24-0.4h-0.24l-0.56-0.4v-0.16l0.64 0.48h0.16l-0.16-0.32 0.24 0.16v-0.4h-0.24l0.16-0.080-0.4-0.080-0.88-0.8-0.32-0.080h0.080l0.24 0.080 0.88 0.8v-0.080l0.32 0.080-0.080-0.56 0.080 0.080v-0.16l-0.48-0.16-0.16-0.24h-0.56l-0.32-0.32-0.24 0.24h-0.24v-0.8l0.32-0.16-0.080-0.32h0.080v0.4l-0.24 0.32v0.4h0.16l0.24-0.32 0.32 0.48v-0.4l0.16 0.4h0.32l0.24 0.16v-0.16l0.32 0.16-0.24-0.4-0.48-0.24-0.16-0.48 0.080 0.4 0.56 0.16-0.48-0.8v-0.32l-0.080-0.080h0.24l-0.32-0.24h0.16l-0.080-0.16-0.24-0.080h0.32l-0.16-0.24 0.16 0.080-0.080-0.080 0.080-0.16-0.080-0.080h0.24v0.080l0.080-0.32v0.24l0.24-0.24v-0.16l0.24-0.16-0.16 0.24 0.24-0.24v0.16l0.080 0.080h-0.16l-0.16 0.24h0.32l-0.48 0.16-0.16 0.4 0.24 0.24 0.24-0.24-0.16 0.24h-0.32v0.32l0.24-0.24 0.24 0.16-0.16 0.080 0.16 0.24-0.32-0.16v0.4l0.080-0.24 0.4 0.24 0.080-0.16-0.080 0.24h-0.4l0.080 0.080h0.16l-0.16 0.16h-0.080l0.32 0.32v-0.16l0.24 0.32 0.16-0.32v0.16l0.080-0.32v0.32h0.16l-0.16 0.24h0.32l-0.080 0.4 0.4-0.080-0.16 0.080 0.16 0.080-0.16 0.16v0.32l-0.16 0.24v0.64l0.16 0.24 0.080-0.24v-0.48l0.24-0.16 0.16-1.28 0.32-0.56-0.080-0.16zM79.52 53.040l0.48-0.56 0.32 0.080 0.080 0.24-0.080 0.56h-0.32zM85.2 28.24l0.16-0.96-0.32 1.040z"></path>
</svg>
