<?xml version="1.0" encoding="utf-8"?>
<!-- Generated by IcoMoon.io -->
<!DOCTYPE svg PUBLIC "-//W3C//DTD SVG 1.1//EN" "http://www.w3.org/Graphics/SVG/1.1/DTD/svg11.dtd">
<svg version="1.1" xmlns="http://www.w3.org/2000/svg" xmlns:xlink="http://www.w3.org/1999/xlink" width="92" height="80" viewBox="0 0 92 80">
<path d="M81.84 51.36l-0.4 0.16 0.32 0.32h0.080v-0.48zM82.72 43.2l0.080-0.24v-0.72l-0.56 0.96h0.48zM83.6 41.2l0.32-0.72 0.16-0.080-0.56 0.64zM86.24 34.64l0.56-1.36-2.64 0.24-0.96 1.28 0.72 0.8-1.2 0.4-0.16 1.6-1.12 0.88-0.8 3.68 0.64 2.16 0.56-0.96 0.32 0.56 0.56-3.44 0.88-0.64-0.4-0.16 0.4-0.56 0.48 0.72 0.56-0.48zM87.2 34.8l0.8-1.92-1.52 2.16h0.4zM62.080 19.6l-4.64-3.52-0.8 3.52-4.32 4.56-1.28-0.72-2.88 5.36-2.16-0.72-0.24-1.2-1.12-0.48-1.52 4.16-4.88 7.2 0.56 0.8-0.72 1.36-1.6 1.12-0.72-0.56-2.16 0.96-1.12-0.4-0.24 1.12-3.52 0.8-1.44-1.12-2.16 1.52-3.44-2.16-0.24-2.080-3.76 3.040-3.44 1.76-2.080 2.88-2 0.4-0.72 1.2-5.44 1.52 35.68 2.16h20.64l20.32-0.24-0.16-0.56 0.8 0.56v-2.4l1.28 2.4-1.52-4.64-3.28-0.4 0.16 1.2-0.8-0.4-1.52 0.4 0.56-1.2-1.84-1.12-0.24-1.76-0.64 0.4-2.32-0.96-0.56-0.72-0.56 0.32-1.92-0.4 0.16-0.56 2.080 0.8 0.32-0.56 0.72 1.12 0.8-1.12 1.28 1.68 0.88-0.4 2.4 2.96 1.040-0.4 0.4-1.12-0.64-0.080 0.24-0.48-0.8-1.040-1.52-0.4-2.72-3.040 0.16-0.24 3.36 3.28 0.88-0.32-0.72-0.48 0.32-1.52 1.44 1.6 0.16-2.32-1.52-0.24 0.96-0.56-2.4-0.8-4.16-5.44-1.92-0.96 0.72-0.16 1.2 0.96 4.4 5.44 0.4-0.64 1.6 0.8-0.4-2.72 0.96 0.4v-1.12l-2.8-1.36-0.72-1.6-1.36 0.080-2.080-0.8-1.2-1.36 0.56-0.24-0.24-0.72-3.2 0.72 0.72-0.32-0.88-0.8 0.56 0.4 0.72-2.96 0.64 0.080 0.16-0.8 0.96-0.56v-1.92l-2.16-1.84-2.24-0.96 0.48-1.2-1.12-1.040-1.68-0.24z"></path>
</svg>
