<?xml version="1.0" encoding="UTF-8"?>
<svg width="40px" height="31px" viewBox="0 0 40 31" version="1.1" xmlns="http://www.w3.org/2000/svg" xmlns:xlink="http://www.w3.org/1999/xlink">
    <title>U.S. Virgin Islands</title>
    <g id="Symbols" stroke="none" stroke-width="1" fill="none" fill-rule="evenodd">
        <g id="U.S.-Virgin-Islands" fill-rule="nonzero">
            <path d="M11.8,24.3 L12.6,26.5 L12.3,28.8 L11.1,29.8 L11.3,30.5 L12.8,29.5 L16,29.5 L16.6,29.8 L18.6,29.1 L20.8,28.7 L22.5,29 L25.3,27.9 L26.5,28.4 L29.2,27.7 L32,26.3 L33.2,26.3 L35.5,25.3 L36.5,24.2 L38.2,24.3 L39.2,23.4 L38.2,22.9 L35.9,23.4 L35.2,22.8 L33.3,23 L31.8,22.8 L29.6,22.9 L28.6,23.4 L27.9,23.9 L27,23.8 L25.3,22.6 L24.1,21 L23.7,21.1 L23.4,21.7 L21.1,20.8 L16.7,22.9 L15.2,22.7 L13.6,22.1 L12.4,22.6 L11.8,24.3 Z M23.6,2.9 L24.2,3.4 L24,4 L23.2,4.3 L21.5,4.5 L21.4,4.9 L20.8,4.3 L20.6,5.4 L19.6,5.9 L19.7,7 L21.3,8.1 L21.9,7.4 L23.2,7.6 L24,7.1 L25,7.7 L26.1,7.5 L26,8.3 L27.3,8.4 L27.8,9.1 L28.1,7.3 L28,6.5 L26.9,5.3 L27.7,5.6 L28.2,5.4 L27.8,4.4 L28.6,4.3 L29.1,5.7 L29.8,5.2 L29.8,6.3 L30.5,6.3 L31.2,6 L31.4,5.3 L29.2,4.3 L28.8,3.8 L27.6,3.7 L27.2,3.2 L26.2,3.2 L26.1,3.5 L25,3.4 L25.1,2.8 L23.6,2.9 Z M11,0.1 L11.7,1.1 L10.9,1.7 L10,0 L11,0.1 Z M0.6,3.9 L0,4.8 L1.3,5.6 L3.8,4.8 L5.1,5.5 L4.6,5.9 L7.2,7.1 L6.5,8.4 L7.1,8.6 L7.6,7.4 L9,7.1 L8.3,5.8 L9.4,5.9 L9.5,7.3 L11,8.1 L12.2,8.1 L13.2,8.9 L14.1,8.7 L13.9,7.7 L15.1,7.5 L16,8.1 L16.7,7.6 L15.7,6.8 L16.2,6.4 L14.1,4.7 L12.4,4.3 L12.4,3.8 L10.1,3.3 L8.2,1.9 L9.5,3.4 L9.2,3.8 L8.7,3.7 L7.3,2.4 L7.2,3.1 L4,2.9 L3.7,3.7 L2.9,3.2 L2.5,3.8 L0.6,3.9 Z"></path>
        </g>
    </g>
</svg>