<?xml version="1.0" encoding="utf-8"?>
<!-- Generated by IcoMoon.io -->
<!DOCTYPE svg PUBLIC "-//W3C//DTD SVG 1.1//EN" "http://www.w3.org/Graphics/SVG/1.1/DTD/svg11.dtd">
<svg version="1.1" xmlns="http://www.w3.org/2000/svg" xmlns:xlink="http://www.w3.org/1999/xlink" width="81" height="80" viewBox="0 0 81 80">
<path d="M51.6 17.68h-15.44l0.24-17.76-2.16 0.72 0.88 2.72-0.4 1.52 0.4 1.28-2 4.64-0.32 2.8-0.72 0.16v1.040l-1.040 1.92 0.56 0.96-0.8 1.68-5.12 4.24-2.16 1.040-0.72-1.2h-0.8l-1.12 1.2-0.64 1.36h-1.44l-0.96 1.76v1.28l-1.12 0.48 0.72 2.8-0.88-0.32-1.12 1.44-0.64-2.24-0.88-0.64-0.8 0.4-2.4 4.16 0.24 3.2-1.44 0.4-0.88 2.8-3.76 0.32 0.080 3.36-0.96 1.76 2.32 3.44-0.16 0.72 2.64 4.96 2.64 2.32 2.32 0.64-0.4 1.28 2.16 3.44 2.72 1.6 1.6 0.16 3.12-2.56 1.84 1.84 5.36-1.36 0.56-1.84 1.6 0.88 3.2-1.76 1.28 0.88 2.32-1.68-0.16-1.040 1.36-0.96-1.12-1.2 1.36-2.48 3.12-3.6 1.36-3.44 1.68-1.68 2.4-6.080 1.52 0.48 0.48 1.6 3.44 1.12 4.24-8.16 1.92 1.040 1.76-2.64h1.040l1.44-1.2 2.32-3.28 0.24-2 1.2-3.6 7.36 5.84 1.36-3.68-0.24-1.76-0.88-0.48 0.64-1.040-0.88 0.16-0.16-0.96-0.32 0.64-0.32-1.040 0.64-0.24-0.24-0.64-1.92 0.32-3.040-2.080-1.52 1.36-2.16 0.32 0.24 0.48-0.48 0.24 0.24 0.56-0.4 0.48-3.28-0.4-1.040-0.4 0.16-0.72-0.56-0.4-0.48 1.28-2.16 2.16-1.36-0.48-0.88 0.24-2.64 3.040-2.96 1.92z"></path>
</svg>
