<svg style="position: absolute; width: 0; height: 0; overflow: hidden;" version="1.1" xmlns="http://www.w3.org/2000/svg" xmlns:xlink="http://www.w3.org/1999/xlink">
  <defs>
    <symbol id="icon-state-AK" viewBox="0 0 98 80">
      <title>AK</title>
      <path d="M-14.4 66l0.48-0.080-0.24-0.16-0.24 0.16v0.080zM-18.72 62.72l0.72 1.68 0.16 0.16-0.16-0.32zM-19.92 61.68l0.24 0.32h0.24zM-13.28 64.64l0.16-0.080-0.16-0.16v0.24zM-7.6 66.16h-0.24v0.64h0.48zM-7.040 66.4l-0.080 0.4h0.24v-0.4h-0.16zM-6.72 66.4h-0.32l0.32 0.4v-0.4zM-11.040 65.040l-0.8-0.4 0.32 1.28 1.040-0.72zM-9.52 66v-0.64l-1.52 0.4v0.16zM-6.080 66.4v-0.24l-0.24 0.24h0.24zM-8.16 65.76l-0.32-0.32-0.72 1.36h1.040v-1.040zM-19.040 61.68h0.4l-0.080-0.32-0.32 0.080v0.24zM-16.56 62.72l0.56-0.080-0.32-0.64-0.64 0.4zM-6.48 65.92l-0.24-0.48-0.16 0.32 0.16 0.24zM-20.72 60.24l0.080-0.24-1.12 0.24v0.32zM-1.040 67.2l-0.88-0.16 0.88 0.64 1.36 0.24-0.88-0.24zM-23.76 57.6v-0.16l-0.16-0.24v0.24zM1.92 67.44v-0.24l-0.56 0.24h0.56zM-1.68 65.92l-3.44 0.48 1.44 0.64h1.36zM-28.24 54.64l-0.32-0.080h-0.56l0.56 0.48zM4.88 67.68v-0.24l-0.16-0.080-0.24 0.080zM6.24 67.44v-0.24l-0.56 0.24h0.56zM7.52 67.36l0.4-0.16-0.4-0.16-0.24 0.32h0.24zM8.48 66.8l-0.56 0.24 0.56 0.32v-0.56zM-28.88 51.84l-1.2-0.080 1.6 1.44-0.32-0.8zM8.56 66.8l0.16-0.4h-0.16v0.4zM13.040 65.2l-3.12 2.24 0.8-0.080 2.56-1.36zM17.44 65.040l-0.4 0.16v0.24l0.24-0.080zM14.96 66l-1.68 0.16h2.4l1.6-1.6-1.76-0.16 0.56 0.96zM20.4 64.56l-0.56-0.16-0.24 0.16 0.56 0.080zM18.32 64l-0.32-0.16v0.56h0.72zM19.040 63.84h-0.32l0.16 0.56 0.4-0.16zM26.16 64.4l-0.32-0.16v0.16h0.32zM25.52 64l-0.24-0.16 0.24 0.56v-0.4zM91.52 55.92v0.32l0.56 0.24-0.24-0.56h-0.32zM33.2 62.72v0.48l0.24-0.16zM26.88 62.4v-0.4l-0.48 0.24zM94.64 55.040v-0.48l-0.48 0.48h0.48zM23.52 61.44l-1.84 0.4-0.96 1.44 4.16-0.24-0.080-0.4-0.56-0.24-0.16-0.96h-0.56zM33.2 62.4h-0.32v0.32h0.32v-0.32zM27.92 61.68h-0.4l0.16 0.32 0.48-0.16zM91.040 55.040v0.56h0.080l0.4-0.16zM28.88 61.44h-0.32l0.32 0.24v-0.24zM32.88 62v-0.32l-0.4 0.72zM90.48 55.6v0.64l1.36 0.64zM94.16 54.080l-0.32-0.24-0.32-0.080 0.16 1.12zM32.080 61.84l-0.8 0.16-0.080 1.040 1.12-1.040zM89.76 54.88l-0.24 0.16 0.16 0.4 0.4-0.24zM31.040 61.12h-0.16l-0.24 0.24 0.4 0.32v-0.56zM30.32 61.36v-0.48l-0.4 1.12 0.72-0.16zM92.48 53.44l0.64 0.88h0.16v-0.56zM89.12 54.64l-0.24 0.56 0.48 0.24 0.16-0.8h-0.4zM31.28 60.56l-0.24 0.32 0.56 0.24v-0.24zM89.36 54.56l0.16-0.24h-0.4v0.24h0.24zM89.68 54.32v-0.24h-0.32zM88.72 54.32v0.32l0.16-0.080zM33.68 59.84v-0.24h-0.24zM88.72 53.2l0.16 0.32 0.48-0.32h-0.64zM34.72 59.2h-0.4v0.4h0.64zM89.36 53.040l-0.24 0.16h0.24v-0.16zM87.040 53.2l-0.16 0.24 0.4 0.080 0.080-0.32h-0.32zM41.76 60v-0.4h-0.24l-0.4 0.4h0.64zM88.080 53.2l-0.24-0.16v0.16h0.24zM93.28 51.040l-0.8 2.16 1.040 0.32v-1.12l0.88 1.36v-1.92zM88.72 51.76l-0.56 0.4v0.88l0.72-0.64zM90.32 51.040v-0.4l-0.24 0.8 1.44 0.32-0.4-0.72h-0.8zM88.080 51.12l0.080 0.64h0.56l0.8 1.040-0.16 0.96 0.8-0.32-0.080 1.44 1.040-0.24 2.16 1.68-0.8-2.24-1.6-0.24 0.16-0.64 1.040 0.24zM89.76 50.4l-0.4 0.24-0.24 0.24 0.64 0.16v-0.64zM90.88 50.4l-0.56-0.32 1.2 0.96 0.16-0.24zM45.2 57.2l-0.32-0.16-0.080 0.16 0.4 0.24v-0.24zM38.48 56.88h-0.4l-0.16 0.16h0.8zM44.080 56.88l-0.64 0.8 0.64-0.48v-0.32zM44.8 56.88l-0.32 0.16-0.24 0.16h0.4zM11.92 53.040l0.080 0.16h0.48zM88.88 49.040l0.24 1.2h0.4l0.24-0.56zM86.72 49.68l-0.72 0.4 1.28 2.96 0.080-2.64zM86.72 48.64l0.88 2.24 1.12-0.24-0.88-1.52 1.040 0.72-0.16-1.2h-2zM46.8 54.64l-0.56 0.4 0.24 0.4 0.88-0.56zM11.68 50.64v-0.24l-0.8 0.24 0.32 0.24zM82.96 49.040h-0.64l0.4 1.2 0.56-0.16zM83.28 48.4l0.72 2.24 1.040 0.16 1.040 1.76-0.64-1.92-1.12-2zM48.080 51.6l-0.16 0.16 0.4 0.080v-0.080zM46.56 51.84l-0.48-0.24-0.16 0.16 0.64 0.4v-0.32zM47.6 51.76l0.080-0.16h-0.32v0.16h0.24zM47.040 51.76l-0.56-0.32 0.56 0.72-0.96 0.88-0.88-0.64 0.48 1.92-0.16-0.24-0.32-0.32v-0.56h-0.4l0.080-0.16-0.24-0.24-1.2 1.040 1.040 2.080 0.32-1.040h0.72l-0.72 1.44 2-2.48 1.12 0.24-0.64-0.64 1.44-0.24zM80.56 46.72l-0.32-0.32 0.32 1.12v-0.8zM46.56 51.040l-0.32 0.080 1.12 0.32h-0.32l-0.24-0.4h-0.24zM49.36 50.8l0.16-0.16v-0.24zM81.68 45.6l-0.64 0.8-0.48-0.64-0.080 0.24 1.12 1.040-0.8-0.32v0.8l1.52 1.12 0.4-0.24-0.8-1.12 2.32 0.8-0.56-1.12-2.080-0.56 1.92 0.32v-0.96l-1.6 0.64zM47.6 50.4l-0.24-0.16h-0.080l0.080 0.16h0.24zM84.24 44.64h-0.24l-0.32 0.16 0.8 0.16zM83.28 44.64l2 3.2-0.24 1.6 1.28-1.68-1.84-2.4 1.84 1.36-1.6-1.76zM47.6 50.4l-1.040 0.48 1.040 0.72 1.68-1.36-1.6-0.56-0.32 0.4 0.24 0.16v0.16zM47.92 49.68l0.16-0.56v-0.080l-0.4 0.4zM31.28 48.24l0.4-0.48-0.8 0.64zM48.32 47.84v-0.080l-0.24 0.32 0.48-0.24h-0.24zM51.44 46.24l0.24-0.24-0.24-0.24-0.16 0.48h0.16zM46.24 46.4v-0.4l-0.32 0.24v0.16h0.32zM52.32 45.6h-0.24v0.16h0.24v-0.16zM61.92 41.44v-0.48l-0.4 0.48h0.4zM22.16 40.16l-2.8 0.080 2.32 2.4 1.2-0.8zM59.12 41.28v0.72l0.72-0.56v-0.16l-0.32 0.16zM48.72 42.32l0.56-0.48-0.32-0.24-0.4 0.72h0.16zM10.64 37.84l-1.12-1.36 0.4 0.96zM59.84 40.96l0.8-0.48v-0.24l-1.12 1.040zM56.32 40.24v0.48l0.16-0.24zM56.080 40.72v-0.48h-0.32v0.24zM57.84 39.6h-0.32l0.32 0.24v-0.24zM56.16 39.6l-0.080 0.32 0.080 0.24 0.16-0.24zM16.88 27.68l-0.16-0.24-0.4-0.32 0.56 0.72v-0.16zM30.64 28.72h-0.32l-0.24 0.32 0.56 0.080v-0.4zM16.16 26.24l-0.88-1.2-0.56 1.52 0.56 0.56 0.72-0.56h0.16l0.88 1.12-0.16 0.32 0.8 0.4 0.32 0.72 1.6-0.72-2.32-2.4zM24.24 19.040l0.56-0.24 0.080-0.24zM25.12 18.4l0.72-0.56h-0.16zM27.28 17.44l-0.32 0.16h0.24zM27.52 17.44l0.8-0.32 0.16-0.080zM50.080 45.040l0.64-0.4-0.48 1.12-0.96 0.24 0.24 0.96 1.36-0.24 0.56-1.36 1.28-0.4v-0.64l0.56 0.48v-1.2l0.32 1.040 0.24-1.76 0.32 1.2 1.52-0.64v-1.2l0.8-0.64h-1.36l0.4-0.32 0.56-0.32-1.2-0.8 1.6-1.92v1.68l0.4-1.12 0.64 0.8 1.76-0.96-0.8 0.96h1.2l-0.8 0.56 0.96-0.32-0.32 0.4 1.36-0.080-0.24 0.56-0.24 0.24 1.12 0.48 1.040-1.84-0.24 2 1.52 0.64 4.88-0.64 0.4-0.64 0.24 0.64-0.080 0.4 2 0.24 1.44-1.76 1.28 0.8-0.56 0.96-0.56-1.52-0.4 1.92 7.44 3.6 0.88-1.28-1.52-1.36-1.040 0.48v-1.040l2 0.96-0.32-1.28 0.88 0.32 0.24 2 0.88-0.4 1.040 0.4-1.92-4.32 2.32 3.6h0.64l0.72 0.48 0.32-1.52v1.76l0.64-0.24 0.64 1.2v-0.56l1.52 0.96-0.24 0.32-1.12-0.48-0.16 0.16 1.52 0.64v0.24l-0.24 0.48-0.56 0.080v0.4l1.68-0.16 1.040 1.36 2.64 0.96v0.24l-0.88 0.24 0.32 2.32 1.68-2.8 1.76 2.8-0.4 0.64 0.64-1.040-0.24 2.24 1.2-1.2-1.2-4-4.16-0.72-5.040-5.68-5.040-3.6-1.84 0.88-0.32 1.92-0.24 0.080-1.12 1.36-4.4-3.92v-0.96l-3.44 0.72-7.12-35.12-3.040-1.28-2.48 1.040-6.16-1.52-2.16 0.48-1.92-0.32 0.8-0.16-0.32-1.12-2.48 0.32-1.12-1.44-1.2 1.44-0.32-0.4 0.72-1.040-0.96-0.88-1.92 2-3.12 0.56 1.2 0.56-0.8 1.2-0.56-0.72 0.4-0.88-3.040 1.36 0.24-0.72-2.72 4.32-3.92 0.24-0.8 1.76 3.040 3.44 0.4 2.080h2.16v0.32l-0.16 0.64 1.36 0.16-0.24 1.52 1.92-0.16v0.96l-2.16-0.4-0.88-2.080 0.32 2.72 1.12-0.24 0.24 0.88-4.16-0.24-0.72-0.64 0.96-1.44v-0.080h-0.8l-2.4 0.56 0.32 0.8-1.52-0.24-2 1.28h-1.2l1.2 1.2 1.84 0.96-1.28-0.16v0.48l0.56 0.96 0.080 1.36 4.96 1.36 0.080-0.96 0.4 1.36 2.88-2.16 0.56 1.12-1.28 1.040 1.2 2.24-1.040 1.2-1.76-0.32-2.96 1.92 0.24-0.8-0.96-0.24v0.64l-1.36 0.56 0.32 1.6-0.88-0.4-1.2 2.4h-1.040l0.64 2.72 0.8-0.88 1.040-0.56-0.4 0.4h-0.24l-0.080 0.16h-0.32l-0.080 0.56-0.32 0.080 1.040 0.56-0.72 0.72h0.4l1.6 0.4 0.56-0.32-0.32 0.56 0.88 0.4-2 0.32 0.16-0.48-0.56-0.48-0.32-0.4-1.28 1.28 3.12 3.2 1.92-0.32-0.080-1.12 1.6-1.44-1.2 1.44 1.040 3.36-0.64 0.64 0.32 0.8h0.48l-0.24 1.12-1.28 0.56 1.040 0.32 2.88-1.68 2.72 2.96 0.88-2.96 0.64 0.56 0.16 0.56-0.32-0.56-0.48 0.24 0.48 1.28 2.88-1.84-0.32 1.44-1.28 1.68 0.88 0.72-0.88 0.080 0.080 2.32-1.84 0.64-0.88 2.080-0.48-0.48-3.44 2.16v2l-0.96-0.56v0.56l-0.64-1.2-1.52 0.24-3.76 2.72-0.16 0.88 0.64-0.24-0.080-0.64 1.040 0.64v-1.44l0.56 1.28h1.12l0.8-2 1.28 0.4-0.48 0.64 3.2-1.68 0.32 1.040 0.32-1.040 2-0.16 0.16-0.8h0.24v0.72l0.72-0.72-0.96-0.4 0.56-0.64 4-1.76v-1.6l4.56-2.72 2.24-2.88-2-1.2 1.6-2.4 0.4 0.4 1.12-0.96-0.8-1.44h0.48l0.4 0.24 0.24-0.24 3.36-4.080 1.2 0.24 1.36-1.28-1.36 1.68 1.92 0.72-2.72-0.32-1.68 1.12-0.72 3.92 0.080 0.32z"></path>
    </symbol>
    <symbol id="icon-state-AL" viewBox="0 0 47 80">
      <title>AL</title>
      <path d="M8.080 65.36l-0.4-0.24-2.16 0.24h2.56zM35.68 4.56l-27.52-0.4 0.96 1.36-5.12 38.72 0.32 19.36 1.2-0.080 1.92 1.040 1.44-5.28 1.040 1.84-0.24 1.36 0.24 1.040h0.96l0.72 1.6-3.040 0.64 4.24-0.4 1.12-0.64h-0.4v-0.32l0.56 0.16 1.68-1.52-0.4-1.36 0.4-1.52-2.48-2.56 0.4-1.6 28.56 0.16-0.080-1.2-1.040-1.28 0.72-4.64-1.2-3.76 1.2-4.24 1.52-1.36-1.12-0.96 0.080-1.36-1.28-2.56-1.12-3.6z"></path>
    </symbol>
    <symbol id="icon-state-AR" viewBox="0 0 76 80">
      <title>AR</title>
      <path d="M5.68 23.28l-1.68-18.8 30 0.4h31.040l1.2 2v1.44l-3.12 2.96-1.12 2.16 9.12-0.4 0.56 1.76-0.96-0.24-0.56 0.64 1.28 0.8-3.36 1.68 0.56 1.36-0.4 0.88 0.24 0.88-1.28 0.64-0.080 1.040-1.12 1.52 0.56 3.44-0.48 0.48h-0.8l-0.72 1.44-1.28 0.8 0.48 1.52-2.48 1.52-0.16 1.52h-1.12l-0.64 1.6v3.76l-1.2 0.72-0.88-0.080v1.6h-0.96l-0.48 1.44-1.52 0.72 1.2 1.040-0.16 1.040-2.88 0.96 0.96 0.88-0.64 0.96 0.48 1.040-2.48 2.24 1.040 0.88-0.16 0.8-1.040 0.32 1.52 1.6v1.68l-0.72 0.8 0.96 0.88 0.24 2-0.96 0.56v1.84h-41.2v-9.36l-1.92-0.72-2.88 0.4 0.080-0.4h-0.72l-0.8-1.2z"></path>
    </symbol>
    <symbol id="icon-state-AZ" viewBox="0 0 59 80">
      <title>AZ</title>
      <path d="M54.4 14.48v-9.28l-41.68-0.56-0.48 8.24-0.64 1.68-0.96 0.16-1.040-1.12-1.6-0.4-1.36 0.4-0.32 0.96 0.64 1.52-0.32 3.76 0.72 3.2-0.64 0.8 0.24 2.64 1.52 2.56 0.32 1.84 2.16 1.92-2.4 1.6-1.2 1.6 0.24 2.56-0.48 1.68-1.040 1.12-0.8 0.4v0.8l0.32 1.36-0.080 1.2 1.6 0.72 0.24 1.6-0.72 1.36h-1.6l-1.040 2.32 32.96 12.96 18 0.080z"></path>
    </symbol>
    <symbol id="icon-state-CA" viewBox="0 0 67 80">
      <title>CA</title>
      <path d="M38.72 63.76l-1.2-1.76h-0.24l0.8 1.68zM31.68 60.64h-0.32l0.8 0.32v-0.24zM38.72 59.6l-1.52-0.32 1.040 0.96h0.64zM28.48 55.52h-1.2l0.56 0.96 0.8-0.48zM26.88 55.36l-0.48-0.24-0.32 0.24 0.8 0.16v-0.16zM29.76 55.2l-0.72-0.080 0.88 0.72 1.52-0.48-0.16-0.24zM27.6 6.64l-0.080-7.68h-22.4l-0.080 1.44 0.4 0.72 0.56 1.76-0.96 4.8 0.48-0.56-0.96 0.96-0.56 1.92 0.080 1.36 2.080 1.76 0.96 2.080-0.32 2.24 0.56 1.92v1.2l3.28 3.44 1.52 2.48-0.8-0.72-0.16 1.68 0.4-0.64 2.32 1.76 0.4-0.4-0.4-1.76 0.72-0.080 1.28 0.8 0.8-0.72 0.64 0.72 1.28-0.72-0.4 0.72 0.88-0.64 0.96 0.72-1.2-0.72-0.24 0.72h-2.64l-0.4-0.080-0.8 0.080-0.16 0.32 0.48 1.2 0.72 0.56 0.88 1.92h-0.56l-1.44-1.040-0.080-1.44-0.72 0.24v1.84l1.2 2.8 1.040 1.2h1.28l0.8 0.88-0.4 1.44-0.64 0.16 0.48 2.24 2.080 2.080 1.36 2.32 2.24 1.68v1.44l1.52 0.4v4.32l0.8 0.48 5.2 0.32 1.92 0.96 1.040 1.2 1.92 0.64 1.76-0.16 0.72 1.92 1.52-0.080 3.76 2.56 1.44 1.92 0.48 2.88 0.72-0.32 0.16 0.48-0.64-0.16 0.64 0.96 15.52-2.72 0.080-1.68-1.2-0.56-0.72-2.4 1.2-0.96-0.16-2.96 2.24-2.72-1.52-0.96-2-3.52-31.92-26.72z"></path>
    </symbol>
    <symbol id="icon-state-CO" viewBox="0 0 80 80">
      <title>CO</title>
      <path d="M85.28 19.040l-0.4-14.72-39.68 0.64-38.88-0.8-2.32 59.12 42.72 0.88 40.64-0.88z"></path>
    </symbol>
    <symbol id="icon-state-CT" viewBox="0 0 94 80">
      <title>CT</title>
      <path d="M36.88 4.48l-21.6-0.96-3.12 44.96 2.72 4.64-10.88 6.4 3.36 5.6 2-1.040 0.8 0.8 2.56-1.36 0.32 0.48 0.8-1.6 1.36 0.080 5.68-3.6 2.64-1.36 1.52 0.48 1.44-1.76 0.56 0.32 2-1.36 0.96 1.12 1.28-0.56 3.2-2.48 1.84-0.4 4.32-5.12 0.24 1.76 0.88 1.12h3.44l2.88-0.56 2.24 0.64 1.28-0.8 2.56-0.64 2.8 1.12 0.88-0.32 0.56 0.64 2.4-1.76 3.76 0.56 0.96-0.72-0.8-0.56 0.56-1.28-1.84-2.48 2.16 1.040v2.16l2.56 1.6 2.8-1.68 1.2 0.64 0.4-1.6 3.68 0.88 1.12-2.48 2.080 2.080 3.2-1.52h3.52l1.12 0.56-0.64 0.96 1.36-0.48 0.64-4 1.040-1.36 0.4-6.4-0.64-29.76-42.32-0.16-0.080 1.28-1.84 0.16-0.24-1.44z"></path>
    </symbol>
    <symbol id="icon-state-DE" viewBox="0 0 34 80">
      <title>DE</title>
      <path d="M16.32 3.84l-2.24-1.36-3.76-0.080-3.44 1.52-2.88 3.68 2.48 56.4h21.92l0.24-0.32 0.96 0.32-0.48-7.2-1.2 2.080-1.040-0.96-2.96 0.88 0.72-0.88h-0.72l0.56-0.64 2.48-0.88 0.72-0.56-1.76-0.96h1.040l-0.56-1.76h1.68l0.48 0.56 0.080 2.16 0.4-1.68-0.4-4.72-0.24-0.72-2.96-0.24-4.96-5.36-0.24-2.72-1.76-3.2-0.88-0.56-0.48-4.24 0.16-3.84-0.96-2.56-1.040-1.44-1.12-0.24-3.2-6.16 0.88-2.48-0.24-1.68-1.44-1.44 0.48-1.84 1.52-0.72 2-2.88 0.48-1.76z"></path>
    </symbol>
    <symbol id="icon-state-FL" viewBox="0 0 73 80">
      <title>FL</title>
      <path d="M53.76 65.28l-0.56 0.24-0.16 0.080h0.72v-0.32zM54.56 65.28l-0.48-0.080-0.32 0.4zM56.4 64.56v-0.32h-0.24v0.24zM55.52 64.24l0.16 0.4-0.56-0.080-0.48 0.72 1.12-0.64zM56.080 64.24l-0.080-0.080h-0.24v0.4zM59.68 64.16l0.32-0.080v-0.24l-1.040 0.24zM57.2 64.56l-0.16-0.48-0.32-0.32 0.4 0.88zM60.96 63.76l0.080-0.56-1.040 0.88zM62.080 63.040v-0.32l-0.56 0.4zM63.52 62l0.32-0.32-0.4 0.32h0.080zM59.92 58.32l0.080-0.32h-0.32v0.32h0.24zM59.68 57.84h-0.4l0.32 0.16zM66.080 59.52l1.040-1.92-1.040 0.64v0.64l-2.080 2.8h0.24zM67.36 56.88l0.24-0.32 0.080-0.16-0.4 0.64zM67.84 54.32v-0.4h-0.080l-0.080 0.4h0.16zM57.12 53.2l-0.4-0.56-0.32 0.24v0.32h0.72zM56.16 52.56h-0.16l-0.24 0.080 0.4 0.32v-0.4zM54.56 52.48h-0.48l0.16 0.16zM55.68 52.56v-0.080l-0.16-0.24v0.4zM50.48 46.64l-0.72-0.72 0.4 0.72 1.040 0.24zM50.8 46.24l-0.32-1.68-0.64-0.080 0.72 1.52zM49.36 44l-0.24-0.48v0.88zM46.4 38.080l-0.56-0.96h-0.24l0.8 1.040v-0.080zM67.68 39.52l-1.6-5.12-0.8-1.44 1.44 4.24zM63.52 26.080l-0.080-0.48-0.88 0.88 0.88 2.88v-1.92zM45.6 24.16v0.16h0.24v-0.16h-0.24zM45.6 24h0.24l-0.24-0.24v0.24zM42.72 20.24l-0.080-0.32-0.16 0.24v0.080h0.24zM25.12 14.4h-0.96l0.64 0.48zM26.16 15.040l2.48-1.44-2.72 1.36h-0.8l0.48 0.32zM29.28 13.52l0.4-0.4-0.88 0.48zM12.8 6.8h0.32l-1.44-0.24-5.2 0.56h0.4zM48.32 33.28l-1.92 2.72h0.16l-0.64 0.080 0.48 0.4h-0.8l0.24 0.24-0.64-0.48 0.32 0.48 1.040 0.72 0.080 1.12 2.16 4.48 1.36 0.4-1.040-2.4 1.040 1.040 1.76-0.64-1.12 0.88 0.16 3.6h1.040l0.32-1.040 0.96-0.48-1.84 2.24 1.040 0.24v-0.56l0.24 0.56 0.56 3.6v-0.48l0.48 1.2 0.8 0.24-0.8 0.72 0.96-0.32 2.4 1.12 1.52 2.64 0.32 1.76 2.080 1.28-0.8 0.24h0.32l-0.88-0.56-0.4-0.48-0.64 0.96 0.32 0.72 0.72 0.64 1.84-0.8 1.36 0.32 1.92-0.88 0.080 0.48 0.48 0.24-0.080-0.48-0.4-0.16 0.48-0.080 0.4 0.56-0.24-0.56 0.88-1.2 0.32-2.56 1.12-2.8v1.36l0.96-10.24-0.96-3.2-1.52-1.040 1.040 0.32v0.16l-1.28-3.12-0.32-1.76-2.96-6.88-1.28-4.080 0.96 0.4-0.080 1.44h1.44l-0.32 3.76 1.76 3.52-1.36-3.52v-1.76l0.56-0.64-0.96-1.76-2.48-4-2.8-7.28-1.2-6.72-0.96-0.64v-0.8l0.64 0.96v-1.76l-4.72-1.040-0.56 0.48v3.76l-0.96 0.080-0.72-2-22.48-2-1.040-2.8-22-0.96-0.24 1.36 1.84 1.84-0.4 1.6 0.64 0.56-1.52 1.76 2.24-0.56 1.040-1.28-0.32-1.040 0.96 1.12 0.4-1.44 0.48 0.56-0.4 0.48 1.040 0.72-2.56 0.88 3.68-0.48 1.44 0.16 0.8-1.040 0.8 0.080v0.48l1.6-0.48 0.64 0.4 0.32 0.96-1.12-0.56v0.56l-0.4-0.56-0.56 0.48-1.44-0.32 3.84 1.36 2.88 1.6-0.32-1.040-0.72-0.16 0.72-0.4 0.56 0.48 1.12-0.48 0.24 0.4-1.6 0.72 1.36 0.8 0.64-0.32 0.080 1.28 0.8-0.24-0.56 0.32-1.92-1.36 2.72 2.72 0.32 0.72-0.32 1.28-0.72-1.84 0.48 1.36 0.24 0.48 2.88-0.32 1.28-0.64-0.16 0.48 3.28-1.52 1.12 0.16 0.16-0.16v-0.32l-0.96-0.4 0.080-0.32 0.88 0.32-0.48-0.56 1.76-0.64 0.32 0.48 1.36-0.32 2.88 1.76 1.12 2 1.28 0.64-0.16 1.28 1.52 1.12 1.52 2.48h2.24l0.56 1.92 0.72 0.88v1.040l-0.64-0.080 0.64 0.8-0.4 2.64-1.68 5.52 1.040 2.080v-0.48l-0.64-1.040 1.28 1.2 0.8-1.6-1.2-0.64 0.48-0.32h-0.32v-0.48l1.28 0.56 0.080 1.36h0.64v-1.040h0.4zM62 39.52l1.12 0.96 0.4 1.2-0.72 2.88-1.44-0.72-1.76-1.92z"></path>
    </symbol>
    <symbol id="icon-state-GA" viewBox="0 0 60 80">
      <title>GA</title>
      <path d="M49.52 60.64v-0.88l0.48-2.080-0.88 1.040zM10 37.92l-0.24 1.12 1.040 0.88-1.52 1.44-1.44 4.56 1.12 3.68-0.88 4.72 0.88 1.28 0.16 1.52 1.44 3.44 29.92 2.32 0.8 2.56 1.44-0.080 0.48-2.72-0.32-2 0.72-1.12 5.36 1.44-0.32-1.84 0.48 0.080-0.16-0.88 0.56-0.64-0.64-0.4 0.64-0.4-0.64-0.88 0.96 0.88 0.16-1.44-0.4 0.72-0.48-0.72 0.4 0.16v-1.2l0.32-0.080 0.56 0.96 1.12-1.44-0.64-0.88-1.76-0.64 2.4 0.4-0.64-1.2 0.64 0.48 1.2-2.080-1.44 0.72 0.24-0.56-0.64-0.24 1.44-0.64-0.48-0.56 0.88 0.96 0.24-1.44v-0.4l-0.080 0.4-1.040 0.24 0.48-0.64-0.88-0.72 2 0.32 0.8-1.2-1.28-0.24 0.56-0.4-0.32-0.32 1.6 0.4 0.48-0.4-0.4-0.48 0.4-0.48 0.4 0.24 0.72-0.64-3.44-1.68v-2.48l-0.64-2.080-2.32-1.76v-1.68l-1.36-3.92-2.64-1.44-0.24-1.040-0.88-0.4 0.16-0.72-0.96-0.64v-1.44l-2.8-1.76-0.96-2.24-3.28-2.56-1.68-2.72-1.68-3.76-1.84-0.56-1.44-1.44-1.84-1.44 0.32-1.44 2.24-2.32-27.12-0.48 3.68 27.28 0.88 3.76z"></path>
    </symbol>
    <symbol id="icon-state-HI" viewBox="0 0 109 80">
      <title>HI</title>
      <path d="M90.48 42.16l-5.28-2.32 0.88 5.28-4.24 4.64 2.88 13.84 4.4 2.88 16.24-12.24-7.68-8.96zM72.4 34.96l-0.48-1.68-2.16 1.36 0.8 0.48zM66.080 30.48l0.56-2.56-3.84-0.48 1.52 3.040h1.76zM71.68 25.040l-2.32 2.24 5.44 6.48 7.76-2.72-4.48-4.16-4.56 0.8zM59.68 21.2l-1.040 2.48 10.72-1.28h-3.28zM47.12 13.84l-1.12-2.32-5.84 2.8 3.12 5.28 2.080-1.6 5.44 2.32-0.48-3.44zM4.32 9.6l2.4-2.32 0.24-1.76-2.96 2.4zM20 1.36l-4.24-0.080-3.92 3.92 6.4 3.2z"></path>
    </symbol>
    <symbol id="icon-state-IA" viewBox="0 0 82 80">
      <title>IA</title>
      <path d="M72 26.16l-0.8-2.32-3.6-0.8-0.8-0.96-1.28-5.76 1.040-2.4-1.28-0.64-0.8-2.24-28.96 0.32-30.72-0.4 0.56 1.92-0.56 2.080 0.96 0.4 0.4 1.36-2.16 5.76 0.96 1.36 0.48 2.24 0.88 0.4 0.56 4.64 2.080 3.040v1.36l0.8 1.36-0.4 4.16 1.2 0.24v0.88l0.96 0.32-0.72 2 1.2 0.32-0.72 1.6 0.8 0.56-0.4 1.68 0.64 2.64-0.48 2.48 0.96 1.12v0.96l20.56 0.64 26.72-0.8 2.88 3.2 1.36 0.080-0.4-2.72 2.88-1.68 0.8-2.72 1.68-2.080-0.4-2.16-1.68-1.52 0.8-3.040 3.6-0.56 3.12-1.44 0.96-1.040 0.32-2.32 1.36-1.2 0.4-3.2-0.24-1.040-2.8-2.080-0.48-1.84-2.24-1.44v-0.72z"></path>
    </symbol>
    <symbol id="icon-state-ID" viewBox="0 0 48 80">
      <title>ID</title>
      <path d="M43.68 41.52l-2.080-2.32-0.8 1.040 0.32 0.88-5.12-0.16-0.88 0.96-2.24-0.32-0.72 1.12-0.88-0.88-0.96-2.88-1.2-0.080-0.72-0.72v-1.36l-1.68-2.64-0.56-2.64-0.96-0.88-2.080 1.92-1.6-0.88 0.4-1.2-0.4-0.64 1.040-0.88-0.64-2.56 0.4-0.24 0.88-4.4-1.6 0.16-0.56-0.88-0.72 0.32-3.12-5.12-2.4-1.68 0.4-0.4-0.4-0.64 0.16-1.36-2-2.88 0.48-8.8-5.92-0.4-1.44 23.52 1.2 4.32 1.52 1.52 0.72 1.44-2.88 5.12-0.16 1.28-2.48 3.44v1.68l1.36 0.4 0.64 0.8-1.2 3.040-0.8 16.56 20 0.8 20.080 0.080z"></path>
    </symbol>
    <symbol id="icon-state-IL" viewBox="0 0 44 80">
      <title>IL</title>
      <path d="M37.040 0.72l-24.4-0.4 1.68 1.76 0.16 1.36 2.080 1.68-0.32 3.12-2.32 3.44-2.24 1.12-2.96 0.16-0.64 2.080 1.040 1.36 0.24 1.68-2 3.44-2.16 1.12 0.080 2.16-0.96 0.4-0.32 1.12 0.16 2.96 0.96 3.36 5.2 5.28 0.96 4.32 0.64 0.4 1.44-0.88 2.56 1.28-0.4 2.56-1.76 3.52 0.080 1.36 2.16 2.4 1.76 0.72 3.76 3.36v1.68l0.48 1.6-0.48 1.44 0.96 2.48 1.12 0.64-0.32-0.72 0.4-0.16 0.96 1.2h0.4l-0.48-1.040 1.68-1.84 4.4 1.84 0.72-0.24-0.32-3.52 3.6-1.2-0.64-1.68 1.040-1.52-0.48-0.72h0.48l-0.48-0.8h0.48v-1.84l0.88-0.32-0.64-0.16 0.88-0.88-0.72-0.72 0.56-0.88 0.72 0.32 0.96-2.080 1.040-0.48-0.16-0.72 1.44-2.4-0.24-2.16-1.36-1.92 0.8-1.040-0.32-1.36 0.88-0.32-0.080-27.76-2.64-5.92v-3.040z"></path>
    </symbol>
    <symbol id="icon-state-IN" viewBox="0 0 51 80">
      <title>IN</title>
      <path d="M46.24 2.16v-0.8l-25.040-0.080-2.4 1.28-2.96 0.8-1.6-0.32-0.080-0.88-0.4 0.4-0.88-0.88-0.88 38.64-1.12 0.56 0.16 1.92-0.8 1.44 1.6 2.64-0.24 1.36 0.48 2-2.080 2.96 0.080 1.28-1.52 0.48 0.080 0.56-1.12 2.080-0.24-0.32-0.48 0.64-0.48-0.32-0.72 1.12 0.72 1.040-1.2 1.040 0.8 0.32-0.88 0.4v2.4l-1.040 0.24 1.040 1.040-0.88 0.32 1.84 0.48 0.56-0.72-0.24-1.12 0.24-0.4 1.44 0.56 1.6-0.16v1.12h0.64l0.48-0.96-0.080-1.28 0.48 0.88 1.92-0.4 3.36 1.76 0.48 0.8 1.36-2.16 2.56-1.2 0.48 1.2 1.6 0.4-0.080 0.48 0.4 0.4 0.48-1.040 0.88-0.32 0.080-1.84 0.8-0.4-0.080-1.28 0.48 0.72 1.28-0.8-0.88-0.64 1.36 0.56 0.32 1.52 2.72 1.76 1.52-1.12 0.32-2.48 1.040-1.76 0.8 0.32 1.44-0.72 0.8-2.4 0.96-0.16 1.28-1.52-0.48-2.64 2.48-0.24 1.040 0.64 3.040-1.68h1.76l0.16-1.52-1.12-0.32 0.72-1.12-0.72-1.36 0.72-0.56z"></path>
    </symbol>
    <symbol id="icon-state-KS" viewBox="0 0 98 80">
      <title>KS</title>
      <path d="M93.76 56.8l-1.040-32.32-2.72-1.12-0.96-2.48-2.32-2.24 1.44-2.96 1.12-0.080-1.12-2.48-1.44 0.64-2.56-2.080-38.96 0.48-39.2-1.040-2 45.44 45.040 0.96z"></path>
    </symbol>
    <symbol id="icon-state-KY" viewBox="0 0 93 80">
      <title>KY</title>
      <path d="M4.96 50.32v-0.96h-0.96v0.96h0.96zM59.36 16.16l-0.96-1.040-1.52 1.28 0.56 1.12-0.56 0.8 1.040 0.32-0.48 1.6-1.28-0.24-2.72 1.36-0.72-0.72-2.080 0.32 0.32 2.32-1.84 1.28-0.88 2.080-2 0.48-1.12 3.44-1.36 0.72-2.16-1.28-0.32-1.28-1.040-0.56 0.4 0.72h-1.2l0.080 0.96-0.88 0.4v1.28l-1.12 1.28-2-2-2.32 0.96-1.12 1.68-3.040-2.16-1.76 0.48-0.56-0.96v1.6l-0.56 0.4-0.32-1.040-1.28 0.4-1.36-0.88 0.16 1.28-0.48 0.72-0.96-0.32-1.44 1.92 0.72 2.4-4.64 1.2-0.16 1.2 0.64 2.4-0.64 0.88-4.32-2.32-2.080 0.48-1.28 1.44 0.48 1.6-0.24 3.040-0.96 2.16-1.68-0.88-0.72 1.84 15.6 0.8-0.32-2.72 2.64 0.88 45.92 1.52 6.8-2.4 0.72-1.44 2.080-0.8 2.080-3.2 3.52-2.080 4.32-3.6-1.92-0.48-3.040-3.36-2.8-4.72 0.72-1.2-0.16-2.48-2.48-2.080-0.72-2.32-1.6 0.4-1.28 1.36-1.76 0.24-2.4-1.44-2.080 0.96-1.6-1.6-3.92-0.88-0.96-2.8-1.36-1.040z"></path>
    </symbol>
    <symbol id="icon-state-LA" viewBox="0 0 80 80">
      <title>LA</title>
      <path d="M46.32 65.36l0.48 0.16h0.48l-0.4-0.16h-0.56zM50.4 65.12l-1.68 0.56h0.24l1.12-0.32zM53.76 65.36l-0.64-0.24-0.8-0.080 0.72 0.32h0.72zM55.44 65.040l-0.4-0.24-0.4 0.56zM53.12 62.48l0.24-0.32h-0.24l-0.080 0.56zM59.12 62.72l1.040-0.56-0.32-0.32-0.72 0.56v0.32zM60.64 61.52h-0.080l-0.32 0.16 0.080 0.16zM70.48 58.24h0.32v-0.4l-0.72 0.56zM57.84 58.16v0.4l1.44 0.48-0.16-0.48zM71.76 57.6l0.24-0.16 0.32-0.64zM34.48 58.88l1.12-1.68-2.88-0.96-1.52 0.88 2.72 1.76h0.56zM74.080 54.96l0.4-0.72 0.080-0.32-0.8 1.2zM67.040 53.76l-0.56-0.56-0.24 1.040 0.4-0.48 0.4 0.48v-0.48zM68.32 53.12l-0.080 0.080 0.88 0.56v-0.88zM69.12 51.28h0.56v-0.32l-0.56 0.080v0.24zM68.4 51.44l0.4-0.48 0.32-0.56-0.8 1.040h0.080zM75.44 52.88l0.080-1.6-0.080-1.2-0.88-1.040 0.88 1.92-0.56 2.64zM66.96 48.080v-0.24l-0.16 0.16zM69.76 48.64l-0.4-0.24 0.96-0.96-2.32 1.68 1.36-0.080 0.4 0.48 0.56-0.4zM9.76 54.24l5.2-0.080 6.88 2.8 5.44 1.040 3.52-0.8 0.48-0.64-1.040 0.24-0.48-1.12 0.56-0.48-1.040 0.4-0.4-1.040 0.88-0.16v0.56l2.16-1.52h1.76l-0.080 1.68 3.040-0.48v1.6h1.12v1.76l1.92-0.4v0.64l1.84 0.64 0.4-2.080h0.32l-0.32 2.24 2 2v1.12l-0.4 0.24-0.24-1.36-0.72-0.080-0.080-0.56-0.96 0.96-0.64-0.32 0.24 0.8 0.48 0.56 2.88 0.96 0.88-0.56 0.16 0.8 1.76 0.72 0.56-0.96 0.8 0.32-0.4 0.72 0.64 0.24 1.44-0.96 0.080 0.48 0.32-1.68 0.56 0.24-0.24-1.36 1.6 0.32 0.48-1.12 0.88 1.84 0.64-1.040 0.72 1.12 0.48-0.48 0.24 2.8 1.76-1.040 0.88-1.28h-0.48l-0.16-0.8 1.12-0.32-0.48-0.8 0.16 0.32v-1.52l-2.48-1.36 0.4-1.040 0.64 0.88 0.4-0.24 2.4 1.28 0.96 0.16 0.080-0.48h0.64l-0.32 0.64 0.96 0.16 0.24 0.96-1.040 0.72h1.92l0.88-0.4 0.32 1.36h2.080l-0.48 0.16 1.52 2.48 0.8-0.64v-1.040l0.32 0.8 0.32-0.4-1.76 3.76 1.44-2 0.64-0.32v-0.64l1.76 1.6-0.16-0.64 0.4-0.8 0.32 0.32-0.080-0.88 0.32 0.64 0.72-1.040-1.040-0.080 1.12-0.32-0.4-0.56-1.52-0.24 0.48-0.64-1.2-1.2-0.72 0.56-0.4-0.56-1.44-0.24 0.48-0.48h-2.56l0.080-1.040-2.24-0.88-1.040-1.68 1.92 0.16-1.2-1.36 2.96 1.2-0.48-0.88h-0.88l-0.080-0.72 0.72-0.48 0.64-1.12 1.040 1.040 0.96-0.4-0.48-0.72 0.56-0.8h-0.88l0.32-0.48-0.48 0.32-0.32-0.48 0.8-0.32-1.12-0.48 1.12-1.12-0.72 0.16-0.8-0.48-1.2 1.040-0.4 1.84-0.96 0.32-0.72-0.8 0.24-0.48-1.6 0.080-0.32-0.96 0.64-0.64 1.040 0.24 0.96-1.68-0.32-0.32h-0.56l0.48 0.32-0.88 0.64v-1.040l-0.72 1.040-1.28-0.64-1.44 1.52-2.16 0.48-3.28-0.88-0.72-1.040 0.4-1.040 2.96-2.8 1.84 0.4 1.040 1.44 3.28 0.48 0.48 1.040 1.6-0.32v0.4l0.88-0.56-0.64-0.4-1.52-3.52-1.76-1.92-0.72-1.76 1.44-4.96-26.080 0.32 1.12-1.040-1.040-3.2 1.6-0.32 0.4-1.92-0.4-1.44 1.28-1.12 0.96-4.080 3.44-2.96v-2.080l0.88-0.080 1.52-2.4-2.48-2.56v-1.68l-0.96-1.36 1.36-0.88-1.36-0.8 1.2-2.4-1.2-0.8-0.080-0.64h-38.16l-0.32 15.92 2.8 3.36 0.080 3.2 1.28 1.12-0.32 0.64 1.36 1.6-0.32 0.88 0.96 1.92 0.72 0.24-0.16 1.36 0.72 0.88-0.96 0.48 0.56 0.96-0.56 2.16-2.32 3.84 0.48 1.52-0.64 1.6 0.48 1.6-0.16 3.040-1.12 1.36 0.48 1.44-0.56 0.96-1.2 0.24-0.16 0.48 0.64 1.28 1.76-0.8z"></path>
    </symbol>
    <symbol id="icon-state-MA" viewBox="0 0 112 80">
      <title>MA</title>
      <path d="M105.52 62.88l-0.88-0.56 0.48 1.040-1.28 2.48 1.76-1.52-0.72 1.52-5.68 1.040 5.040 1.2 2.88-0.72zM92.96 63.76l-0.24-2.56-1.36 1.6 1.36 1.2zM88.72 59.52l-1.92 0.72-2.72 3.28-2.48 0.72 1.92 1.6 2.96-1.6 4.64-0.24-0.24-2.080-1.76-0.56 1.040-0.64-0.48-1.040-1.2 0.96zM106 56.24l1.12-3.12-0.48-0.88-1.28 4.16zM80.24 5.36l-1.76-0.48-4.16 2.56-1.92 0.16-1.76 2.48-2.96 2-55.76-2.48-7.92 26 0.88 0.96 19.6 1.2v0.96l1.2-0.16 0.24-0.8 39.44 0.8 0.48 4.56 0.88 0.4 0.48 4.32 2.64 2.8 0.48-0.88h1.36l1.76-2.72-2.24 4.8 1.68 0.56 0.32 5.84 0.64-0.56-0.4-0.72 1.12 0.4 0.48-1.12 0.56 1.12-1.040 0.8 1.040 0.080 2.64-0.88 1.36-3.92 1.76 1.52-0.16-1.44 1.28-1.12 1.040 0.48 0.8-1.68h0.72v-2.24l1.76 1.2 0.24-0.96 0.64 0.56-0.88 1.84 0.16 3.92-1.12 1.92 5.28-1.2 2.48-3.12 0.8 0.88 3.76-1.28-0.16 1.52 2.64-2 6.88-0.64 0.24-4.72h-1.52l0.4-2.4 1.36 0.64-1.92-5.36-2.24-2.72-2.96-1.84h-1.92l-0.72 1.12 2.080 1.68 0.48-1.44 1.92 0.56 1.12 6 0.8-1.84 1.44 0.96-0.96 0.24 0.88 3.6-0.88 0.96-6.4 2.72-2.56 0.4 1.52-0.64-3.68-0.56-2.88-1.84-0.8-0.8-0.48-4.72-2.16-0.72-2.32-2.16h0.96l0.48-2.080 0.96 1.92-0.72 0.16 1.44-0.16-4.4-8.48-4.48-3.2 0.96 2.24-2.8 0.72-0.080-1.36-1.12-0.32 0.4-1.040-1.36 0.24-0.24-0.96 0.88-0.32-1.12-0.72 0.48-0.48 1.44 0.48-0.48-0.88 1.2 0.88-0.080-3.040 2.080 0.24-0.8-1.44 2.24-1.12-0.4-1.040-1.040 0.56 0.48-1.040 5.12-1.92 3.12-2.080-0.8-2.24-1.6 1.040v1.44l-0.56-0.8-1.68-0.24-0.32-0.72 0.8-0.16-2.48-1.44v-1.28l1.68 1.28-1.040-2.48-2.16-1.76h1.52l-0.080-2.16z"></path>
    </symbol>
    <symbol id="icon-state-MD" viewBox="0 0 100 80">
      <title>MD</title>
      <path d="M76.64 57.12l-0.8-1.36 0.56 1.36-0.96 0.56 0.88 0.48zM76.32 52.48l-0.48-0.88-1.040 0.4 0.48 0.48h1.040zM92.32 55.76l1.2-0.96 2-6-1.84 3.6zM96 47.52l0.48-2.72h-0.24l-0.64 2.96zM9.44 10.88h-4.88l-0.56 13.68 4.16-2.56 4.080-4.24 1.12-0.4 1.68 0.72 3.28-2.96 0.8-1.92 0.64 0.8-0.32 0.96 3.52 1.28h2.24l0.8-0.8-0.48-0.48 1.040-0.4-0.56-0.56 3.28-0.4 1.92-1.76 0.88 0.080 3.52 2.64 2.4-0.080 0.32 0.64-0.88 0.48 0.48 1.2 0.4-0.56 0.32 1.12h1.040l-0.72 1.36 1.2 0.72-0.16 1.68 3.84 1.6 1.92 1.44 0.24 0.88-1.12 1.44 1.28 1.92 3.68 0.96 0.8 1.68 2.72 1.28 1.36-1.6 2.8 2.96-2.4 2.24 0.16 2.24-1.84 1.040-0.56 1.52-1.12 0.48 0.24 0.72-1.28 0.48-0.64 2.4 0.64 2.24 1.76-0.16 0.88-2.080 0.56 1.36 0.88-1.76 3.040 5.040 0.96 0.32 0.080-0.64-0.8-2.48 1.12 0.96 1.12 3.2h3.12l2.24 2.96 0.16-0.88 0.88 0.64 0.080-1.92 0.96 2.72 2.16 1.44-0.32-2.8-1.36-2.16 0.16-1.68h-1.6l-1.040-1.6-2.24-1.44-1.28-3.2-0.16-3.68 0.96 4.96 4 3.92 1.44-0.32-0.24-1.6-2.48-3.36v-4.64l-0.88-1.12 1.44-2.24h-1.12l-0.24-1.12 1.36-0.4-1.36-1.68 2.080 0.8-2.64-3.36 0.56-0.48 1.76 2.16 1.2-0.64-2.24-1.76 2 0.56-0.88-2.88-0.56 0.4-2.8-2.72 0.88-0.48 3.12 1.84 0.8-0.8-1.2-0.56-0.8-1.44 1.52 1.44-0.56-1.52 1.28 0.080 0.8-1.12-1.52-1.040 1.84-0.080 0.8 2.24 0.72-0.8-0.48-0.96 0.56-2.64 0.56 3.040 3.040-2.56-1.12-0.96 0.8-1.76 1.84-0.16 1.040-0.96-1.44 3.6 3.6-3.12-1.12 1.92 1.040 1.36-1.92-0.4-1.68 2.16 3.6 0.64-5.76 0.24-1.12 1.28-1.92 4.32 1.12 3.2 0.8-2.32 2.24-0.48-2.16 2.24v1.44l-1.44 0.16-1.6-0.8-0.64 3.84 0.64 0.4-0.16-1.36 1.76-1.52 1.36 0.8v1.12l0.56-0.48v0.56l0.88 0.48-1.44 1.68 0.64 0.64 0.8-0.64-0.080 1.040-1.36 0.080-2.080-1.76-1.44 4.16 0.88-0.32 0.56-2.56v1.84l1.2-1.36 0.4 2.16 0.56-0.8 0.4 1.28 0.96-0.24-0.88 0.88 1.36-0.16 0.32 0.96 1.12 0.56 1.36-1.52-0.24 1.2-1.6 1.040-2.4-0.72v-0.88l-2.56 0.32 0.64 0.72-0.72 0.96 1.76-0.64 0.48 0.32-1.44 1.36-0.24 1.44-0.56-0.88-0.8 0.8 2.16 4.080 0.32-2.16 3.76 4.32v-2.080l0.8-1.28 0.64-0.32 0.080 0.48-0.96 1.12 0.88 1.6 2.24-4.32-0.96 3.84 1.68 0.96-2.24 1.040-0.16 1.52 2.96-0.56 0.48 0.080-1.76 1.6 2.24-0.64-2.88 3.36 0.88-0.16-0.24 1.68 1.68-1.040 2.88 0.080 0.48-0.8 5.040-0.88 0.56-1.6 1.6-0.88 0.64-3.28 1.12-0.48-0.32 0.8 0.8-0.32 1.12-2.16 0.4-0.72-0.96-0.32 0.080-1.12-0.96-0.48h1.44l-0.080-0.64 0.56-0.24-12.96 0.24-2.080-33.68z"></path>
    </symbol>
    <symbol id="icon-state-ME" viewBox="0 0 52 80">
      <title>ME</title>
      <path d="M28.4 52.72l0.24-0.72-1.2-0.48 0.16 0.88zM30.4 49.68l-0.48-0.64-0.4 1.76h0.88l-0.4-0.8zM34.96 48.48l0.24-0.64-1.12-1.36-0.96 0.32-0.72 1.68 1.12 1.2 0.48-0.32-0.32-0.88h1.28zM26.88 4.48l-0.88-0.72-0.24-2.4-1.84-0.4-8.16 11.28-0.56 4.24-1.2 1.040-1.12 2.080 0.32 1.12-0.64 0.96-0.080 1.44 0.48 0.8-1.6 1.92v1.2l-2 0.88-1.44 2.24 0.88 1.52-0.8 0.24-1.040-0.56-0.96 2.88-0.96-1.76-1.040 0.64 0.48 28.96 1.52 2.32-0.16 1.2 0.72 1.36 0.4-0.4 0.64 0.32 1.6-3.84 2.32-1.76-0.48-0.24 0.4-1.040 1.44-0.48v-0.8l-0.88-0.48 0.56-0.16 0.64-1.52 2.24-1.36-0.32 0.4 0.64-0.32-0.88 1.52 1.040-1.2-0.56 1.52 1.28-1.040v-0.88l0.56 2.56 0.48-0.64-0.48-3.76-0.48 0.4-0.080-0.32 1.12-1.2 0.080 4.48 0.64-1.36-0.4 0.32-0.24-0.88 1.44-2.080-0.24 1.040 0.24 0.48-0.24 0.96 0.64 0.16v0.56l0.080-2 0.72-1.12-0.16 2.8v-0.96l0.4 0.96 1.44-3.36v1.2h0.88l-0.32 0.48 1.040-0.96-0.4 1.2 0.8-0.24v-0.8l1.52-0.88-0.080-1.2 1.36-2.8-0.56-1.44 2-0.88v-1.36l0.56 0.48-0.72 2 0.88-0.56 0.48 0.48-1.2 0.64-0.16 0.8 0.88-0.16 2.24 1.28-0.4-2.56 0.88-0.16 0.24 0.32-0.24-1.44h0.56l0.16 1.36 0.56-1.040 0.96 0.32-0.16-1.2 0.88 0.88 0.16-0.88 0.24 1.040 0.24-0.56 0.48 0.32 0.64 2.32 0.88-1.2-0.64-1.040 0.64-0.4 0.4 1.36 0.32-1.28 0.080 1.36 0.72-2.72 0.4-0.24v1.040l0.72-1.040 0.080 1.52 0.56-1.040 0.8 0.56 0.32-1.76 1.28 0.56 0.080-0.8 0.4 0.96 0.56-0.56-0.56-1.12 0.88-0.24 0.4 1.36 0.16-0.4 0.96 0.080 2.16-2.64-0.96-1.040 0.24 0.96-0.32-0.88-0.96 1.12-0.48-1.52 0.88 0.32v-0.88l0.64 0.16 0.24-0.48-1.36-2.96-1.2-0.32-0.64 0.64-1.44-1.52 0.32-1.76-0.8-1.68 0.8-0.72v-0.8l-1.84-0.4-2.32-1.44 0.4-2.96-0.48-17.84-2.080-2.080-3.12-2.080-1.28 1.12-0.96-0.4-3.92 2z"></path>
    </symbol>
    <symbol id="icon-state-MI" viewBox="0 0 72 80">
      <title>MI</title>
      <path d="M62 59.68v-1.2l-0.32 1.2h0.32zM37.28 27.52l0.32-0.24-0.32-0.32-0.32 0.32zM38.4 26.64v-0.56l-0.56-0.32v0.88h0.56zM39.52 22.96l-0.32-0.24-0.24-0.32 0.56 0.88v-0.32zM41.84 20.96l0.32-1.92h-0.64l-0.56 1.6zM48.32 18.72l-2.24 0.32 0.32 0.24-1.2 1.2v1.36l0.64 0.88 0.8 0.24-3.44 1.44-0.32 3.12-1.040 2.8 0.32-2.8-0.88 2.56-0.32-0.8 0.56-4.080-2 2.88-0.88-0.24-1.040 0.88-0.32 1.6-1.44 0.88 0.32 3.44-2.32 3.12 0.88 3.12-0.88 2 1.44 4.32 0.88-0.32-0.64 0.56 0.64 2.56 0.24 3.36-1.44 4.88-2.24 4.24-1.68 1.44h17.28v0.56l11.12-0.56 2.24-3.36-0.32-0.88 0.64-2.080 2-1.36v-1.68l0.88-0.64-0.32-0.56 1.36-0.24v1.44l0.88-0.88 0.88-4.56-2.24-8.8-0.88-1.68-1.68-1.12-2.56 1.12-1.12 0.8h0.56l-1.2 2.32-0.56-0.32-1.12 1.44-2-1.12 0.64-3.12 1.92-0.88 0.56-2.32 1.44-0.8 0.32-5.12-1.44-2.24 0.24-0.88 1.2 0.56-0.88-2.8-4.56-2.32h-1.44l-0.8-1.36-2.32-0.56zM50.64 18.4h-1.44l1.12 0.88h0.64zM42.4 18.4l-0.24-0.24h-0.32l0.32 0.56zM50.96 16.4l-0.64 0.32h0.88l-0.56-0.32h0.32zM57.68 16.080l-1.6-1.040 0.24 0.56-1.68 0.8 2.48 0.56zM52.88 13.6l-0.32-0.56-0.24-0.64-0.24 0.64zM52.56 12.4l-0.24-1.12 0.24-0.8-0.48-0.24-0.56 0.8 0.8 1.36h0.24zM33.52 11.040l-0.8-0.8 0.32 0.8h0.48zM18.8 4.48l0.32-0.88-0.88-0.24h-0.32v-1.2l-2.56 2.32-1.12 0.32-2.32 1.44-2.8 0.32-5.12 2.8 1.44 0.56 0.8 1.92 7.76 2.64 1.92 1.12 2.56 0.24 3.12 1.12v1.44l2.32 1.52-0.56 3.36h1.68l-0.64 1.92 0.88 1.2v-0.88l4.24-5.6 0.88-2.64v2.64l0.88-0.64 0.88-1.44h1.68v1.2l-0.56-0.32-0.8 1.44 0.8 0.48 0.8-1.6 1.2-0.64 0.88-1.44 2.48 0.32 0.32-0.56 2-0.32 0.88-1.040 4 0.72 2.16 1.76 0.64-2 0.88 0.56 0.56-0.32 4.56 0.32v-0.32l-1.44-1.040 0.24-0.56-1.6-0.56 0.48-0.32-1.36-2.8-1.76 0.8-0.56-0.8-1.36 0.48-1.76-0.48 0.56-3.2-4.24 1.12h-4.88l-3.92 2.88-0.88-0.8-0.88 0.48-0.88-1.040-1.6 0.56-1.2-0.32-2-3.44-1.2-0.8-2.48-0.32-1.44 0.8 1.12-1.36-1.92 1.2-0.56 1.040 0.24-2.56zM25.040 0.24l-0.8-0.56-3.52 0.56-2.48 1.92v0.88l1.44 0.56-0.56 0.64 0.56 0.8 1.68-2.56 2-1.36-0.56-0.56z"></path>
    </symbol>
    <symbol id="icon-state-MN" viewBox="0 0 64 80">
      <title>MN</title>
      <path d="M18.24 4.48l-0.24-1.44-14-0.48 0.8 4-0.4 1.28v4.32l1.76 5.92-0.16 6.72 0.4 0.8-0.24 3.12 1.44 5.44-0.32 3.44-2.24 2.64 1.12 1.76 1.12 0.56 0.64 0.96-0.8 20 20.8 0.48 21.040-0.080-0.48-4.4-0.8-1.28-2.16-0.64-3.52-3.92-1.6-0.4-0.72-1.12-1.52-0.4-1.84-1.76 0.48-1.76-0.4-1.52 0.4-0.72v-1.52l0.64-1.68-0.64-1.52-1.040-0.080-0.24-1.36 1.68-2.32 3.12-2.080v-6.4h0.48l0.96-1.6 4.4-3.52 4.96-5.6 9.12-4.48-1.68-0.24-0.96 0.32-1.6-1.28-4.48 0.64-1.040-1.68-2.8 2h-2.4l-0.8-0.4-0.32-0.96-1.84-0.56-0.64-1.2-1.52 0.24-0.16 0.88-0.48 0.24-0.96-2.32-1.52-0.16 0.4-0.88-2.24-0.8-2.16-0.24-1.44 0.4-0.4 0.64-1.92 0.080-0.88-1.2-5.36-1.12-0.72-0.64v-0.96h-0.96l-1.040-1.2zM19.6-0.8v2.24l0.96-0.48 0.32-1.040-0.16-0.64z"></path>
    </symbol>
    <symbol id="icon-state-MO" viewBox="0 0 81 80">
      <title>MO</title>
      <path d="M50.88 8.56l-3.2-3.44h-24.72l-18.88-1.36-0.080 0.72 0.64 0.64 0.32 2.88 1.92 1.2 0.56 3.040 3.36 2.48 1.6-0.4 0.8 1.040v1.28h-1.2l-1.6 2.56 2.24 2.32 0.56 2.48 2.48 0.96-1.92 37.76 51.12 1.040 1.12 1.76-0.080 1.2-2.72 2.4-0.72 1.84 7.44-0.080 1.28-2.080-0.96-1.68 1.6-0.16-0.88-0.96 1.2-0.8-0.48-2.4h0.72l0.32 1.44 1.12-2.48 1.84 0.72 0.88-2.56 0.080-3.12h-0.64l-0.88-1.52-0.64 0.24 0.32 1.040-1.040-0.64-1.84-3.040 1.2-1.92-1.2-2.16v-1.76l-4.48-4-2.16-0.88-2.64-2.8-0.16-1.76 2.64-6.88-3.36-2-1.2 1.040-0.88 0.080-0.96-1.6-0.88-3.92-6.24-6.32-0.96-2.16-0.72-4.4z"></path>
    </symbol>
    <symbol id="icon-state-MS" viewBox="0 0 49 80">
      <title>MS</title>
      <path d="M35.12 65.040l0.48-0.24-0.56 0.24h0.080zM41.28 64.8l-0.64-0.080 0.16 0.32zM34 64.56v-0.16l-1.040 0.32 0.72 0.4zM40 64.8l-1.76-0.4h-0.72v0.16zM42 0.56l-21.68-0.24 0.4 1.2-2 1.28-0.4 1.28-0.88 0.080-0.32 4-1.040 0.64h-0.96l-0.16 1.12h-0.4l-0.72 1.040-0.8 0.72 0.72 1.28-2.48 0.88 0.56 0.88-0.24 0.64 0.16 0.96-2.080 1.76 0.88 0.48-0.24 0.8-0.64 0.16 1.2 1.36-0.8 2 0.8 0.56 0.32 1.52-0.96 0.72v1.68l1.040 0.72-1.040 2.080 0.96 0.96-1.12 0.8 0.8 1.040-0.24 1.36 2.4 2-1.52 2.32-0.88 0.16 0.24 1.6-3.12 2.4-1.12 3.44-1.12 0.96 0.48 1.12-0.48 1.68-1.44 0.4 0.88 2.88-0.96 0.56 22 0.56-1.2 4.080 0.56 1.6 1.52 1.52 1.2 3.52h1.36l0.24-0.72 1.28-0.8-0.48-0.48 0.4-0.48 1.040 0.88 4.32-1.28-1.28-0.16 0.64-0.4 2 1.28 1.76-0.56 1.44 1.12 0.8-0.64-0.96-20.56 4.16-40.64-0.96-1.12h-1.84z"></path>
    </symbol>
    <symbol id="icon-state-MT" viewBox="0 0 80 80">
      <title>MT</title>
      <path d="M86.72 41.84l-2.32-30.64-39.6 1.2-40-1.84-0.8 10 2 3.2-0.080 1.44 0.4 0.8-0.72 0.32 2.64 2.080 3.6 5.92 0.64-0.48 0.64 0.96h1.76l-1.76 5.12 0.64 2.56-1.12 1.28-0.16 1.92 1.6 1.040 2.4-2 1.36 0.96 0.32 2.96 1.84 3.12v1.6l1.92 1.12 1.12 3.12 1.12 0.96 0.48-1.28 2.72 0.4 1.28-0.96 5.52 0.32-0.32-0.96 0.96-1.12 2.24 2.72 0.080-5.12h25.44l24.8-1.12z"></path>
    </symbol>
    <symbol id="icon-state-NC" viewBox="0 0 104 80">
      <title>NC</title>
      <path d="M73.52 55.6l-0.8 0.48-0.24 0.4 0.56 0.16zM74.64 52.24l-0.24 0.16-0.32 0.96 0.16-0.080zM79.84 47.68l-1.2 0.24-1.28 1.040-0.64 0.72 1.2-1.12zM88.64 45.92l-0.4-0.48-0.88-0.24 1.040 0.72h0.24zM86.88 45.2l-0.56-0.16-1.76 0.16-2.080 0.72 2.96-0.72h1.44zM88.8 46.32l1.36-2.32 1.92-2.4-2.080 2.24zM92.8 41.2v-0.32l1.040-0.72h-0.48zM95.12 39.28l1.52-1.040-2.24 1.2-0.4 0.56zM99.12 37.84l0.48-1.52 0.4-3.28-0.88-2.48 0.56 2.8-0.24 3.52-2.4 1.52zM98.080 30l-0.4-1.36-0.8-0.080 0.8 1.28zM95.92 23.52l-0.96-2.96 0.8 3.2 1.44 3.6-0.32 0.080 2.24 3.040-2.24-4.48zM94.56 20.56h-0.88l0.32 0.64h0.72zM49.36 21.2l-15.92-1.36-0.56 3.36-1.92 0.48-1.92 2.64-1.6-0.72-3.84 2.48-0.8-1.36-1.84 1.84-0.88-0.48-1.2 2.080-1.92 0.4-3.68 2.4-4.24 0.4-1.36 1.2-0.72 1.92-2.4 0.4-0.56 3.28 13.28 0.4 7.92-2.48 14.24 1.2v1.040l1.36-0.64 1.52 2.24 0.080 1.6 12.24 0.56 11.92 12.4 2.080-1.2 3.68 0.8 1.040-1.52-0.32-2.48 0.64 1.2-0.16 2.16 2.080-5.12 2-1.92 1.76-0.72-0.72-1.2 0.72-0.48-0.56-1.44 1.2 1.36-0.72 0.72 0.8 0.4 1.92-1.6v-1.040l0.48 1.040 2.080-0.72h2.16l-0.88-0.32 1.040-0.56 0.56 1.2 0.16-1.52 1.2 1.040 2.48-3.040-0.96-0.8 0.4 0.64-1.44 0.56 0.080-1.76-0.4 1.36-0.88-0.16 0.32 0.72-0.96-0.72-1.28 1.12-2.24-0.96-1.44-2.24 3.36 2.080 2.4-1.76-0.16-0.8-1.2 0.16 2.080-1.44-5.28-1.92-1.040-1.36 4.96 1.68-0.56-1.68 1.92-0.24-1.2 0.56 1.040 1.36 0.72-0.96 0.64 1.52 0.16-0.72 2.16 0.72 1.36-0.88 1.44-3.12 0.48 0.88 1.12-0.88v-2.48l-1.28-1.92 0.16 0.56h-0.8l0.32 0.72-0.72-0.56-0.56 0.48-0.32 3.2-1.2-0.56 1.2-0.16-1.040-1.2h0.72v-2.48l-2.48 0.16 0.24 0.56-1.76-0.72-3.2 0.56 0.32-0.72-0.8-1.6 0.16-2.56 0.64 0.48-0.32 1.36 0.32 1.76 1.12 0.56 2.96-1.2-1.76-1.6 2.64 1.52-0.72-1.68 1.36 1.2 1.12-0.48-1.44-2 2.96 1.92-0.64-1.84 1.92 2.96-1.44-4.56v0.8l-0.56-0.48v-0.32l-0.64-0.56v-1.040z"></path>
    </symbol>
    <symbol id="icon-state-ND" viewBox="0 0 89 80">
      <title>ND</title>
      <path d="M84.48 56.32l-0.72-5.76-2.32-4.88 0.16-4.4-0.8-1.040-0.8-9.36-3.040-8.080-0.64-6.16 0.4-1.68-1.36-5.36-34.96 0.8-34.32-0.96-2.080 47.040 40.4 0.96z"></path>
    </symbol>
    <symbol id="icon-state-NE" viewBox="0 0 90 80">
      <title>NE</title>
      <path d="M73.44 21.44l-1.2-0.4-0.64-1.6-3.92-1.12-1.52-1.28-5.12 0.4-1.44 1.040-4.48-2.4h-25.28l-24.72-0.88-1.12 24.4 18.64 0.8-0.32 12.16 32 0.24 31.44-1.12-1.040-0.56-0.56-2.48-1.68-0.64-0.64-2.48-1.6-2.48-0.24-5.68-0.64-0.48 0.48-1.040-0.88-0.24 0.24-1.36-0.8-0.48 0.080-0.64-0.8-0.16v-2.96l-2.72-4.56-0.64-3.84z"></path>
    </symbol>
    <symbol id="icon-state-NH" viewBox="0 0 41 80">
      <title>NH</title>
      <path d="M30.32 1.36l-0.24-1.28-1.28 1.44-2.64-1.2-2.24 1.6 0.64 0.56-2.16 5.12 0.4 2.56-2.16 3.84 1.52 3.76-0.8 0.4-0.24 1.36-1.28 1.6-3.040 2.56-2.32 0.16-1.040 1.44-0.24 4.4-1.12 2.4 0.32 0.72-1.52 2.24-0.48 2.4-1.68 1.6-0.48 2.72-1.2 1.28-0.24 6.4-0.64 0.96-0.64 6.16-0.8 0.88-0.72 2.24 0.080 1.12 1.6 2.56 21.040 0.72 1.84-1.28 1.040-1.52h1.28l2.64-1.76 2.080 0.16 1.76-4.16v-0.4l-0.88 0.16 0.24-0.56-1.52-1.92v-2.080l-2.8-3.68 0.48-4.16z"></path>
    </symbol>
    <symbol id="icon-state-NJ" viewBox="0 0 42 80">
      <title>NJ</title>
      <path d="M29.040 53.84l1.28-1.52h-1.28l-0.64 1.52-1.68-0.64 0.88 0.64h1.44zM31.92 49.6l2-2.88 0.72-2.96-3.52 6.48zM36.88 14.88l1.28-3.52 0.72-2.24-17.040-9.84-2 0.64-1.52 1.36-1.44 4.32-2 2.16-2.16 2 1.28 2.96-0.64 2.16h-1.28l-0.8 1.36v4.96l2.080 0.72 1.52 3.52h0.72l0.56 1.36 4.96 5.76-0.56 0.72-3.68 2-3.52 2.96h-0.64l0.64 1.36-1.28 1.44-3.76 0.72-2 0.64-2.8 5.68 0.56 1.52v1.36h-0.56v0.64l3.52 4.32 0.64-0.72 0.64 1.36h1.44l1.52 2.16 0.8 1.52 1.92-0.72 0.88 0.72h2l0.72 2.16-1.44 2.080v2.8l1.44-0.56 2.24-1.6v-0.64l2-2.080-1.28-0.72h1.28l0.72-2.16 2.080-2.16h-2.080l0.8-0.8h1.28l1.44-2v0.64l-0.64 1.36 2.96-1.36-0.8-1.36h-0.88v-1.52h1.68v-2.72h0.64l1.28 1.36-0.64-1.36 3.52-4.24v-2.24l1.44-3.52-0.72-0.72 0.72-0.64-0.72-0.72 1.28-0.64v-1.6l0.96 1.6-1.52 6.24h0.56l0.96-6.96v-1.52l1.28-5.6v-3.6l-0.56 0.64-2.96-1.36h-1.44l-1.36-0.64v-2.16l1.36-2.72 1.44-2.24v1.36l2.24-1.36z"></path>
    </symbol>
    <symbol id="icon-state-NM" viewBox="0 0 62 80">
      <title>NM</title>
      <path d="M26.48 59.6l-0.8-1.84h32.080l-0.16-52.4h-25.36l-25.52-0.96-2.72 59.68 7.36 0.32 0.32-4.8 15.44 0.56z"></path>
    </symbol>
    <symbol id="icon-state-NV" viewBox="0 0 50 80">
      <title>NV</title>
      <path d="M45.84 55.84l-0.8-51.84-19.92 0.16-19.76-0.88-1.36 26.88 37.92 36.32 0.32-1.84-0.56-2.8-0.72-5.12 1.28-0.48h1.44l1.28 1.040 0.48-0.16z"></path>
    </symbol>
    <symbol id="icon-state-NY" viewBox="0 0 92 80">
      <title>NY</title>
      <path d="M64.48 64.080l-1.2 0.16-0.72 1.84 1.92-1.2v-0.8zM73.44 63.68l-1.040 0.24-2.48 0.56 1.76-0.16zM74.4 63.92l3.92-1.84-5.44 2v0.16zM83.92 56.88l-1.040-0.16-2.96 2.4-5.28 0.32-1.12 0.8-2-0.56 0.4 0.72-0.8-0.72-0.4 0.8-1.44-0.080-0.32 1.12-0.72-0.88-0.16 1.040-0.24-0.24v0.64l-1.84 0.16-1.28 1.84 0.4 1.040 1.36-0.32-0.24-0.56 0.8-0.32 0.8 0.56-1.84 0.8 3.68-0.48-1.44-0.32 11.6-2.96-0.96 0.56 9.28-4.4-2.72 1.040-0.72-0.8-0.080 0.56-1.44-0.080-1.44 1.84h-1.84zM86.48 55.040h0.16l0.56-0.56-0.96 0.4zM13.92 28.88l-1.040-0.48-0.080 0.88 0.48 0.4zM42.080 16.16l0.16-0.080v-0.48l-0.72 1.040zM43.68 11.92l-0.56 0.16-0.16 0.24 0.96-0.24zM45.36 11.040l-1.28 0.4 0.16 0.64 0.64-0.64zM56.32 2.080l-4.080 2-4.56 3.84-1.6 2.96-5.2 3.44 0.56 1.36 0.96-0.64 0.88 0.4-0.88 1.040 1.52-0.32-1.68 2.16-0.16-0.72-0.64 0.72 0.8 2.96 0.24-0.24-0.080 1.040-0.88 0.96-1.6-0.16-3.040 2.64-2.32 0.4-0.32 0.8-4.080-0.88-2.32 0.56-1.68-1.44-6.48-0.96-7.36 1.28-0.080 2.56 1.84 0.8-0.56 1.040 0.4 2.8-1.68 0.88-1.28 1.92-6.72 4-0.24 3.76 46.88 1.84 0.88 1.76 1.92 0.8 0.080 3.040 0.72 1.52 2.64 1.040 0.48 0.96 8.48 5.12-0.8-3.84 0.56-0.72 0.64 4.16-1.36 4.4 0.88-1.44 1.28-0.16-0.16-0.64 1.84-1.76-0.88-1.44 2.64-1.68-0.8-0.96 0.48-11.44 2.48-9.36-0.24-11.36-0.4-1.040-1.12 0.72-0.16-0.56 0.56-2.48-0.8-3.92 1.12-2.56 0.4-2.96-0.8-2.4 0.080-4.8v-0.8h-15.2z"></path>
    </symbol>
    <symbol id="icon-state-OH" viewBox="0 0 64 80">
      <title>OH</title>
      <path d="M59.6 26.48l-0.56-22.32-10.4 4.48-4.8 3.92-3.68-0.16-5.28 1.92-1.2-0.24-1.68-1.36 0.96 1.040-2.32-0.72-1.6 0.72-1.68-0.64 4.48-0.72-1.92-1.36-0.48 0.88-1.28-0.080-1.2-1.36-4.72-1.84-16.8 0.16-1.44 43.52 1.36-0.8 1.2 1.2 2.24-0.4 1.92 1.52 1.2 3.28 1.68 0.88 1.44-0.16 1.36 0.32 2 2.24h0.88l0.32-0.72 1.36-0.48 2.080 0.88 0.72 0.96 2-0.16 1.6-1.68 1.68-0.56 1.040 2.64 1.68 0.96 1.28 1.92 3.52-0.48 0.56-2.4 1.52-0.4-0.48-2.88 2-3.6 0.72-0.32 0.72 0.48 0.64 1.92 0.88-1.36 0.88 0.16-0.24-1.6-0.64-0.8 0.88-0.24v-1.2l0.96-1.68h1.28l0.32-1.2 1.2-1.040h0.64l0.72 1.040 1.84-0.88 4.48-3.92 0.4-1.68-0.4-0.88 0.88-1.68-0.16-0.88h0.64l0.16-2.56 1.6-4-0.32-1.040 0.32-1.84-0.88-1.68z"></path>
    </symbol>
    <symbol id="icon-state-OK" viewBox="0 0 90 80">
      <title>OK</title>
      <path d="M83.52 21.040l-0.16-5.92-39.36 0.56-39.68-1.2-0.32 5.84 28.32 1.040-0.32 22.56h0.96l2.16 2.4 2.48 0.16 0.48-1.12 1.68 1.76 0.080 1.040 4.48 1.2 1.28-0.32 0.96 1.040 1.44-0.8h2.4l0.16 1.44 1.28 0.24 0.32 1.52h0.8l2-1.52 2 2.080 2.16-0.96 0.72 2.16 0.64-1.76 1.44-1.040 1.68 1.2 1.52-0.56 0.080 0.56 2.56 1.68 0.56-0.64 3.2-1.6 1.6 0.24 1.68-1.2 1.040 1.040h1.36l1.36-1.2 2.4 1.2 1.12 1.12 3.84 1.2-0.32-20.24z"></path>
    </symbol>
    <symbol id="icon-state-OR" viewBox="0 0 63 80">
      <title>OR</title>
      <path d="M14.64 13.92l-0.8 0.32-0.64-0.080-0.64-0.8-1.28 0.4-0.48-0.16-0.56 0.080 0.48 0.48-0.16 0.32-0.080-0.56-1.12-0.56 0.32 1.76-0.4 0.8-0.080 1.68 0.32 0.88 0.4-0.16-0.56 1.040 0.56 0.72-0.4 0.16-0.16-0.64-0.16 0.96 0.32 0.32-0.56 0.72 0.080 1.68-0.72 3.040v1.76l0.32 0.24h-0.32l-0.32 1.52 0.4 0.48-0.32-0.16-0.32 1.12-0.8 5.6 0.48-0.32 0.4 0.32-0.56-0.24-0.4 0.8-0.88 2.4 0.96-0.96 0.24 1.040-0.48-0.4-0.64 1.2-0.080-0.72-0.32 0.24-0.64 2.72-1.040 1.92 1.040 1.84-0.32 2.8 0.4 2.16 0.96 1.12 25.84 0.56 24.56-0.4-0.88-17.2 0.56-1.84-0.24-0.8 0.56-0.64-0.64-0.88-1.44-0.080-0.16-1.040 1.040-3.28 1.2-1.6v-1.040l2.24-5.36-0.72-1.68-1.36-0.64-0.88-1.52-13.92 0.4-0.56 0.56-3.2 0.24-4.24 1.84h-2.56l-1.76 0.88-1.68 0.080-0.88-0.72-3.36-0.24-3.040 1.44-3.040-0.96-0.88-3.84-1.44-1.12h-0.56z"></path>
    </symbol>
    <symbol id="icon-state-PA" viewBox="0 0 78 80">
      <title>PA</title>
      <path d="M73.52 27.28l-0.48-1.36-2.96-0.88-0.88-1.44-0.48-3.68-1.84-0.8-0.24-0.88-0.96-0.8h-51.76v-4.16l-4.24 2.16 0.56-0.8-1.68 1.28-3.52 1.52-1.040 35.6 57.44 0.24 0.8-1.36 1.28-0.64 2 0.4 3.52-1.44 0.24-1.12 4.48-3.36-3.040-3.68h-0.64l-0.64-2.24-1.36-0.16-0.080-1.92v-0.96l1.040-0.64 0.48-1.2-0.96-1.92 2.16-2.16 1.84-3.2z"></path>
    </symbol>
    <symbol id="icon-state-RI" viewBox="0 0 48 80">
      <title>RI</title>
      <path d="M18.88 67.040l1.28-0.88-0.96-1.92v-2.32l-0.96-0.32v1.84l-1.36 0.72-0.48 1.6 0.24 0.88 0.64 0.56zM28.64 44.48l1.28-1.36 0.72-4.16v-2.16l-1.12-0.64-0.88 3.68 0.64 0.64-0.96 0.96-0.080 2.56zM37.2 41.76l0.24-7.92 0.8-3.84-2.64 2.24-0.64 2.64-1.6 1.92v1.52l-0.88 1.84 0.88 1.92-2.24 1.28-0.32 1.52 0.48 0.32 1.36-1.2 1.040 0.32 2-2.4 1.76 0.56zM43.52 40.72l-0.32-5.84-0.64-1.040 0.64-3.84-3.52-1.28-0.72 2.32-0.16 3.12 0.88 6-0.32 1.28 0.8 2.48zM29.68 12.88l-0.64-8.88-22.48 0.4 0.080 36.080-0.64 7.28-0.64 0.32-0.72 1.6-0.64 5.28 4.72-0.88 9.28-3.28 2.48-0.16 2.56 0.88 0.56-0.24 3.44-7.28 0.080-1.36-0.080-3.68-1.2-2.64 1.84-2.72 0.32-1.36-0.88-2.8-1.36-0.72 1.36-1.28 1.2 0.4 0.96 0.96 1.28-2.56-0.48-0.88-1.2-1.36v-5.52l1.040 1.92 0.88 3.36 1.12 0.96 1.44 0.8 0.48-2.4 0.8 0.4-1.28 4.72 0.48 1.84 1.76-0.4 1.36-1.12 0.24-2.24-1.6-2.8-2.96-2.32-1.12-1.2 0.32-6.72z"></path>
    </symbol>
    <symbol id="icon-state-SC" viewBox="0 0 85 80">
      <title>SC</title>
      <path d="M68.24 46.080l0.32-0.72v-0.32l-0.32 0.32v0.72zM19.76 3.84l-0.24-0.32-0.64 0.8-4 0.88-1.040 1.040-5.84 1.28-3.2 3.36-0.8 2.16 2.96 2 1.92 2.24 2.96 0.8 2 5.52 1.84 2.32 0.56 1.68 4.8 3.68 1.52 3.2 1.84 0.72 2 2 0.16 2.16 1.36 1.12-0.16 0.88 1.2 0.96 0.16 1.040 4 2.32 0.32 2.16 1.52 3.52v2.24l3.36 2.8 1.12 3.2-0.48 2.48 1.36 2h1.2l1.84 1.040 1.68-4.16 0.16 0.8-0.72 1.84 2.32-2-1.84-2-1.12-4.32 1.2 0.96 0.48 2.56 1.28 1.12v-3.040h0.4l0.32 3.76 2.8-1.2 0.56-1.68-1.84 1.2 1.44-1.36-2.16-0.64 1.84-0.4-3.36-0.32 0.080-0.48h2.32l-0.16-0.88 2.48 1.68 0.48-1.12 0.56 0.96 2-1.52-0.88-1.28 1.36 1.12 2.72-0.8-0.24-0.72 1.2-0.16 1.2-0.96 0.16-0.72-1.68-0.8h0.64l-0.32-1.36h0.88l-0.24 1.040 1.36 0.8 3.84-3.12 0.32-0.4-0.64 0.4-0.32-0.4 0.64-1.52 1.040-0.48 0.48 0.88 1.68-0.4 0.32-0.96 1.2-0.88-0.72-0.96 1.040 0.64v-0.8l0.8 0.48 0.56-0.8-1.84-2.24 1.12-2.16 0.56-0.64-1.2 2.48 0.88 0.32 0.48 1.52 0.8-3.84 3.040-4.48 2.8-2.56 3.040-1.36-0.48-0.64 0.48-0.16-17.6-17.28-18-0.48-0.080-2.64-2.32-2.88-1.84 0.88-0.16-1.68z"></path>
    </symbol>
    <symbol id="icon-state-SD" viewBox="0 0 73 80">
      <title>SD</title>
      <path d="M66.72 15.2l-30.24 0.56-30.56-0.88-1.92 34.24 23.6 0.72h24.080l4.080 2.48 1.36-1.2 4.96-0.16 1.36 1.040 3.6 1.28 0.8 1.36 1.28 0.24-0.64-1.6-0.88-0.96 1.2-4.4-0.16-1.040-0.8-0.080 0.4-1.84-0.64-1.28 1.2-0.080-0.96-20.96-0.96-1.12-1.28-0.24-1.2-2.16 1.68-1.92z"></path>
    </symbol>
    <symbol id="icon-state-TN" viewBox="0 0 104 80">
      <title>TN</title>
      <path d="M78 19.28l-45.76-0.48-2.48-0.72 0.080 2.64-15.28-0.48-0.64 0.8-0.72-0.8 0.16 1.52-1.040 0.56 0.72 1.12-1.52 0.080 0.88 1.44-1.12 1.52 0.4 2.080-0.96-0.4 0.32 1.12-2.56 1.28 0.32 2.56-2.4 2.24 0.48 3.12-2.88 1.76 40.16 1.28 26.8-0.24 0.4-3.28 2.32-0.4 0.72-2.24 1.36-1.12 4.48-0.96 3.44-2.72 2.080-0.4 0.72-2.32 1.28 0.32 1.92-1.84 0.64 1.36 3.92-2.8 1.52 0.48 1.84-2.8 1.92-0.4 0.48-3.68z"></path>
    </symbol>
    <symbol id="icon-state-TX" viewBox="0 0 82 80">
      <title>TX</title>
      <path d="M56.88 62.56l1.68 4.72-1.44-7.040-0.24 0.080-0.16 0.16zM57.76 58.080l0.32-0.8 0.8-1.68-1.12 1.68-0.88 2.8zM59.6 54l-0.56 1.6 0.8-1.12v-0.56zM60.64 53.28l1.76-0.88-2 0.88-0.56 0.88zM63.040 51.68l-0.4 0.080 0.88-0.4zM71.52 45.2h-0.4v0.24l-1.36 1.44zM40.72-0.72h-15.92l-0.88 29.68-19.92-0.8 0.32 1.12 6.48 6.96 2.4 1.52 2.64 6.64 6.16 4.16 1.36 0.32 1.68-1.84 0.96-3.36 1.6-0.16 0.48-0.64 0.96 0.4 4.16 0.24 0.56 1.36 0.64-0.16 3.2 3.040 2.32 5.52 1.2 1.2 1.44 2.4 1.92 0.96 0.4 3.6 1.44 1.68 0.8 2.64 1.6 0.16 3.92 1.76 3.12 0.16 1.84 1.44 0.16-0.72 1.12-0.56-0.32-0.4-0.24 0.24 0.16-0.56-0.72-0.080-1.68-4.64 0.48-0.48-0.48-0.64 0.64-1.76h-1.92l0.72-0.16-0.72-1.12 0.88 1.12 0.72-0.8-0.32 0.96 0.64-0.24 1.040-2.56-1.68-1.28 2 0.24 0.96-1.84-0.72 0.72-0.24-0.96 0.96-0.56 0.32 0.72 0.32-0.16 0.72-0.72-0.080-1.36 0.8 0.8 1.28-0.72-0.8-0.080 0.4-0.48-0.88-1.28 1.040 0.32-0.16 0.72 0.4-0.4 0.080-0.32-0.32-0.64 0.24 0.080 0.24 0.56 1.040-0.32 0.32 0.32-0.48 0.32 1.28-0.56-1.28 1.36 2.8-1.76-1.2 0.4v-0.080l2.96-1.44 1.44-1.44v-0.8l1.6-1.040-0.56-0.48-0.8-2 0.96 0.24 0.72-0.56-0.32 1.52 2.080-0.4v0.16l-1.44 0.56-0.24 0.96 3.84-2.48 1.12-0.32-0.48-0.88 1.2-1.6-0.48-3.28 1.2-3.12-2.24-3.44v-1.36l-1.36-1.2-0.64-10.32-1.92 0.24-4.8-2.48-0.64 0.72-1.2-0.24-1.12 0.48-0.72-0.24-2.16 1.28-1.76-1.040-0.8 0.32-0.8-0.56-1.2 1.52-0.32-1.28-1.28 0.8-1.28-1.12-1.36 0.64-1.040-1.6-2.16 0.72-0.48-0.72-3.040-0.48-1.28-1.36-0.24 0.32h-1.2l-2.080-1.2z"></path>
    </symbol>
    <symbol id="icon-state-UT" viewBox="0 0 56 80">
      <title>UT</title>
      <path d="M18.88 16.4l0.16-0.24-0.16-0.24-0.080 0.080zM22.24 17.92v-1.2l-0.64-1.2v1.28zM20.88 14.8l-0.24-0.64-0.4 0.16zM9.040 4.32l-3.36-0.16-1.68 59.6 23.84 0.4 23.84-0.4-1.2-47.6-18.080 0.24v-11.84zM16.080 8.72l0.8-0.56 0.72 0.56-0.32 1.68 0.8 0.8 1.12 0.16 0.8 2.64 0.64-0.4-0.4-2.64 1.040 0.16v0.64h2l-0.4 0.64-1.28-0.080-0.72 0.8 0.56 0.080 1.36 2.4 1.6 1.2-1.76 1.12-0.56 1.2-1.44 1.040-0.56-0.24-0.8-2.8-0.48 1.28-0.72-1.28-1.2-0.8-0.080-2.16-0.56-1.040-0.64-0.72-0.56 0.72-0.4-0.16 0.64-0.56-0.64-2.4 0.4-0.4-0.4-0.48z"></path>
    </symbol>
    <symbol id="icon-state-VA" viewBox="0 0 92 80">
      <title>VA</title>
      <path d="M81.84 51.36l-0.4 0.16 0.32 0.32h0.080v-0.48zM82.72 43.2l0.080-0.24v-0.72l-0.56 0.96h0.48zM83.6 41.2l0.32-0.72 0.16-0.080-0.56 0.64zM86.24 34.64l0.56-1.36-2.64 0.24-0.96 1.28 0.72 0.8-1.2 0.4-0.16 1.6-1.12 0.88-0.8 3.68 0.64 2.16 0.56-0.96 0.32 0.56 0.56-3.44 0.88-0.64-0.4-0.16 0.4-0.56 0.48 0.72 0.56-0.48zM87.2 34.8l0.8-1.92-1.52 2.16h0.4zM62.080 19.6l-4.64-3.52-0.8 3.52-4.32 4.56-1.28-0.72-2.88 5.36-2.16-0.72-0.24-1.2-1.12-0.48-1.52 4.16-4.88 7.2 0.56 0.8-0.72 1.36-1.6 1.12-0.72-0.56-2.16 0.96-1.12-0.4-0.24 1.12-3.52 0.8-1.44-1.12-2.16 1.52-3.44-2.16-0.24-2.080-3.76 3.040-3.44 1.76-2.080 2.88-2 0.4-0.72 1.2-5.44 1.52 35.68 2.16h20.64l20.32-0.24-0.16-0.56 0.8 0.56v-2.4l1.28 2.4-1.52-4.64-3.28-0.4 0.16 1.2-0.8-0.4-1.52 0.4 0.56-1.2-1.84-1.12-0.24-1.76-0.64 0.4-2.32-0.96-0.56-0.72-0.56 0.32-1.92-0.4 0.16-0.56 2.080 0.8 0.32-0.56 0.72 1.12 0.8-1.12 1.28 1.68 0.88-0.4 2.4 2.96 1.040-0.4 0.4-1.12-0.64-0.080 0.24-0.48-0.8-1.040-1.52-0.4-2.72-3.040 0.16-0.24 3.36 3.28 0.88-0.32-0.72-0.48 0.32-1.52 1.44 1.6 0.16-2.32-1.52-0.24 0.96-0.56-2.4-0.8-4.16-5.44-1.92-0.96 0.72-0.16 1.2 0.96 4.4 5.44 0.4-0.64 1.6 0.8-0.4-2.72 0.96 0.4v-1.12l-2.8-1.36-0.72-1.6-1.36 0.080-2.080-0.8-1.2-1.36 0.56-0.24-0.24-0.72-3.2 0.72 0.72-0.32-0.88-0.8 0.56 0.4 0.72-2.96 0.64 0.080 0.16-0.8 0.96-0.56v-1.92l-2.16-1.84-2.24-0.96 0.48-1.2-1.12-1.040-1.68-0.24z"></path>
    </symbol>
    <symbol id="icon-state-VT" viewBox="0 0 46 80">
      <title>VT</title>
      <path d="M41.76 12.4v-0.56l-1.84-4 0.48-1.76 2-2.64-0.48-2.16 0.56-1.12-36.4 0.32 0.16 1.76-0.88 2.4 0.88 1.92-0.96 4.56 1.68 4.88-0.88 2.48 0.16 3.28-1.12 1.28-1.12 3.84 1.36 7.84-1.36 4.8 0.24 1.12 1.28-1.52h0.88l1.28 2-1.040 20.72 0.72 1.6 16.080 0.72-1.52-2.88-0.24-1.28 0.64-2.72 0.96-0.96 0.88-6.8 0.64-1.36 0.32-7.040 1.040-1.6 0.56-3.040 1.84-1.92 0.72-2.72 1.6-2.56-0.4-0.64 1.36-3.040 0.16-4.8 1.28-1.76 2.4-0.16 3.6-2.8 1.52-2 0.16-1.44z"></path>
    </symbol>
    <symbol id="icon-state-WA" viewBox="0 0 88 80">
      <title>WA</title>
      <path d="M10.8 50.24l0.16-0.48-0.32-0.64-0.32 0.88zM23.92 40.48l0.32-0.48-0.32-0.32-0.48 0.32zM22.32 39.68v-1.28l0.16-0.48-0.8 0.96zM26.8 36.32l-0.32-1.44-0.48 0.8-0.16 1.76 0.64-0.96 0.24 0.16-0.4 0.8 1.12-0.64zM26.24 33.44l-0.56-1.6-0.32 1.6 0.88 0.48v-0.48zM24.64 26.72l-0.4-0.64-0.080-0.24 0.080 1.44zM25.52 21.52l-0.8 0.16-0.96 2.32 0.88 1.2h0.56l0.48 2.48h0.8l0.8 1.2 0.16-1.6-1.2-1.040-0.4 1.28-0.32-2.88-1.36-0.64 1.2-1.2 0.88 0.32zM22.96 20.48l-0.32-1.52-0.56 1.28 1.040 0.96zM24.64 19.28l0.080-0.32-0.48-0.56-0.080 0.48zM21.52 19.6l-0.96-1.44-0.8 0.24 0.32 1.6 1.6 0.56zM22.96 16.72h-0.8l-0.8 0.96 0.16 0.72 0.16-0.48 0.48 0.56 0.64-0.080-0.32-1.52 0.8 1.52 0.64-0.88zM25.36 17.68l-0.24-0.48-0.72-0.8v0.32zM21.2 12.56l0.16-0.16h-0.64v0.32zM80.4 11.92l-27.12 0.8-29.12-0.16 0.080 0.48-0.64 0.32 0.56 0.32 0.56 2.72 0.96-0.56 0.8 0.4 0.48 2.64-0.24 0.24-1.040-0.48 0.8 1.92-0.8-0.48v0.48l-0.56-0.8-0.72 0.24 0.24 1.040 0.24 0.4 0.8-0.48 0.32 0.96 1.44 1.12v0.96h-1.2l0.080 1.6 1.44 1.12-1.040-1.6 0.24-1.12 0.72 0.24 0.080 2 1.6 0.96-1.2 1.2-0.96 2.16-0.4 2.080 0.96 0.88-0.080 0.48-0.72-0.080 0.8 3.2-1.040 1.44-1.040-0.8-0.48 1.6-1.6 1.6-0.96-0.96-0.32 0.48v-0.48l-0.48 1.6-0.32-1.28-0.8 0.8 0.8-1.44-1.44 1.28 0.64-0.64h-0.64l0.16-0.16 0.96-0.48 1.76-3.2 0.32 3.36 0.48-2.56 0.96-0.96v0.48l-0.56 1.12 1.2 0.64 0.64-3.84-0.48-0.96-1.28 0.8 0.48-0.8-0.56-0.64 0.080-0.48 0.96 1.12-0.56-2.32 0.56 0.72 0.48-0.8 0.8-0.16-0.64-2.32-0.72-0.56 0.4 1.92-0.64-0.48-1.44 2.72-1.92 0.96-1.76 3.040 0.64 0.32 2.24-0.96-2.4 1.28-0.96-0.16 3.36-5.76-0.16-1.12 0.32 0.64 0.32-0.96v2.4l2-2.88-1.68-3.040 0.16-0.88-1.12 0.32 0.48 1.12-0.48 0.72-0.4-1.68-1.2 0.88-1.28-1.6 0.48-0.48-1.44 0.96-6.72-0.96-7.68-3.68 0.64 0.96-0.88 2.56 0.4 2.32 2.88 5.36 0.24 4.32 1.12 2.56v3.84l0.96-1.76 1.040 1.12 1.76 0.48-2.32 0.8v0.96l-0.96-1.12 0.4 2.72 2.080-0.080 1.28 0.96-0.72 0.080-0.56-0.48-0.16 1.52-0.64-0.4 0.4 1.12-0.24 1.2 0.96 0.72-0.8-0.24-0.48 0.72-0.8-3.76-0.72 5.36 0.96-0.48 1.52 0.96 1.76-0.72 0.88 0.64h1.68l1.44 1.6 1.92-0.4 1.44 0.88 1.76 2.4 0.64 4.96 4.8 1.28 5.040-2.24 5.44 0.32 1.28 1.28 2.56-0.32 2.88-1.28 4.16-0.16 3.040-1.52 2.96-0.56 0.96-0.8 4.88-0.48 0.96-0.72 22.24-0.88-0.96-1.44 0.48-0.96-0.48-1.44-1.12-1.6z"></path>
    </symbol>
    <symbol id="icon-state-WI" viewBox="0 0 67 80">
      <title>WI</title>
      <path d="M61.6 24.48l-0.88 1.36-1.2 0.48-0.24 1.68-1.040 1.28-0.080 1.040 0.72 0.96 1.52-1.84-0.080-0.56 1.36-1.84-0.56-0.56 0.56 0.16-0.080-1.44 0.64-0.16-0.16-0.56h-0.48zM62.56 22.8l-0.32 0.96h1.040l0.080-0.88zM25.28 4.080l1.44-0.8-0.16-0.48-2 1.6zM27.040 2l0.24-0.32-1.28 0.48 1.040 0.24v-0.4zM24.48 1.84l-0.64-0.4-0.8 0.4-1.44 1.12-0.96-0.4-1.92 1.44-3.68 1.12-1.68 0.16-1.28-1.28-1.2 1.52h-0.64l-0.16 8.16-0.72 0.64h-0.72l-2.88 1.6-1.76 2.88v1.84l1.28 0.080 0.8 2.080-1.12 1.76v2.32l-0.48 0.72 0.48 2.080-0.72 2.48 2.16 2 1.92 0.4 1.040 1.52 1.84 0.64 1.6 1.44 1.28 2.56 1.52 1.36 2.48 0.72 1.12 1.28 0.4 2.72v3.68l0.4 1.44 1.12 0.8-0.8 2.16 0.8 5.12 0.8 1.2 3.2 0.8 0.48 2h29.6l0.080-4.080-1.36-3.36-0.16-3.36 1.92-6.24-0.4-3.28 0.88-2.32 1.44-1.44-0.64-1.76 1.92-6.72-1.12-1.12-1.28 0.56-1.76 2.64-1.6 1.6-0.64 0.16-0.64-0.48 1.92-4.8 1.92-1.12 0.48-1.6-1.28-1.12 0.4-2.72-2 0.16 0.72-1.68-0.080-2.72-0.88-0.88-2.16-0.56 0.16-1.12-0.96-1.040-3.44-0.96-2.96-0.16-2.72-1.44-9.84-2.64-1.040-2.48-1.52-0.4-0.24-0.72-1.6-0.16-1.76-1.36-0.24 0.88-1.52 0.4 1.76-4zM25.6 2.16v-0.32l-0.48-0.32-0.24 0.32zM23.2 1.44l0.24-0.32-0.24-0.24-0.32 0.4zM28.32 0.88v-0.88l-0.64 1.12z"></path>
    </symbol>
    <symbol id="icon-state-WV" viewBox="0 0 81 80">
      <title>WV</title>
      <path d="M51.6 17.68h-15.44l0.24-17.76-2.16 0.72 0.88 2.72-0.4 1.52 0.4 1.28-2 4.64-0.32 2.8-0.72 0.16v1.040l-1.040 1.92 0.56 0.96-0.8 1.68-5.12 4.24-2.16 1.040-0.72-1.2h-0.8l-1.12 1.2-0.64 1.36h-1.44l-0.96 1.76v1.28l-1.12 0.48 0.72 2.8-0.88-0.32-1.12 1.44-0.64-2.24-0.88-0.64-0.8 0.4-2.4 4.16 0.24 3.2-1.44 0.4-0.88 2.8-3.76 0.32 0.080 3.36-0.96 1.76 2.32 3.44-0.16 0.72 2.64 4.96 2.64 2.32 2.32 0.64-0.4 1.28 2.16 3.44 2.72 1.6 1.6 0.16 3.12-2.56 1.84 1.84 5.36-1.36 0.56-1.84 1.6 0.88 3.2-1.76 1.28 0.88 2.32-1.68-0.16-1.040 1.36-0.96-1.12-1.2 1.36-2.48 3.12-3.6 1.36-3.44 1.68-1.68 2.4-6.080 1.52 0.48 0.48 1.6 3.44 1.12 4.24-8.16 1.92 1.040 1.76-2.64h1.040l1.44-1.2 2.32-3.28 0.24-2 1.2-3.6 7.36 5.84 1.36-3.68-0.24-1.76-0.88-0.48 0.64-1.040-0.88 0.16-0.16-0.96-0.32 0.64-0.32-1.040 0.64-0.24-0.24-0.64-1.92 0.32-3.040-2.080-1.52 1.36-2.16 0.32 0.24 0.48-0.48 0.24 0.24 0.56-0.4 0.48-3.28-0.4-1.040-0.4 0.16-0.72-0.56-0.4-0.48 1.28-2.16 2.16-1.36-0.48-0.88 0.24-2.64 3.040-2.96 1.92z"></path>
    </symbol>
    <symbol id="icon-state-WY" viewBox="0 0 84 80">
      <title>WY</title>
      <path d="M80.16 35.12l-0.4-28.88-36.64-0.32-35.2-1.84-3.92 57.84 37.36 1.84 39.12 0.32z"></path>
    </symbol>
    <symbol id="icon-state-DC" viewBox="0 0 60 80">
      <title>DC</title>
      <path d="M56.4 36.8l-34.16-34.24-18.24 18.56 9.84 8.32 2.24 2.96 10.32 6.48 1.76 16v10.8z"></path>
    </symbol>
    <symbol id="icon-state-USA" viewBox="0 0 99 80">
      <title>USA</title>
      <path d="M79.36 58.080h-0.080l-0.16 0.16h0.24v-0.16zM79.52 58h-0.080l-0.080 0.080zM79.84 57.84l-0.080-0.080-0.16-0.080 0.24 0.32v-0.16zM81.52 56.48l0.16-0.32-0.16 0.080v0.080l-0.32 0.72zM67.12 47.6l1.2-0.32h-0.24l-1.040 0.32h0.080zM49.36 54.080l0.32-0.48v-0.080l-0.080 0.080zM50.48 53.040v-0.16l-0.64 0.48-0.16 0.24 0.32-0.24zM79.84 49.44l-0.24 0.24 0.24 0.48-0.080-0.4zM61.12 50.8l-0.24 0.16h0.24v-0.16zM53.52 50.8h-0.16l-0.56 0.48zM77.76 54.24l-0.080-0.32h-0.16zM49.2 57.76l-0.4-1.76v0.32zM49.12 54.56h-0.16l-0.16 0.88 0.16-0.56zM81.2 52.16l-0.8-1.2 0.48 0.8zM58.96 50.16l0.080-0.16-0.32-0.24-0.16 0.24 0.24 0.16h0.16zM71.44 48.48l0.56-0.32-0.8 0.32 0.080 0.16zM63.68 48.64v-0.32l-0.32 0.16zM64.4 49.040v-0.4l-0.16-0.24zM85.52 34.16l0.16-0.24-0.4 0.24v0.24zM86 33.84l0.080-0.32-0.080-0.48-0.24-0.32 0.24 0.88-0.32 0.32zM85.6 32.56l-0.080-0.16h-0.16zM85.040 34.56l0.16-0.080 0.080-0.080h-0.080zM82.96 36.16l-0.080 0.080v0.16zM8.64 37.92l-0.32-0.16 0.080 0.32 0.32-0.080zM9.2 39.6h-0.080l0.32 0.16-0.080-0.080zM9.040 37.92l-0.24-0.16 0.24 0.32 0.56-0.080-0.16-0.080h-0.4zM11.12 40.88l-0.24-0.48h-0.080l0.080 0.4zM11.28 39.68l-0.4-0.16 0.24 0.080v0.24h0.32zM84.32 35.36h-0.080l-0.32 0.080-0.32 0.16 0.4-0.16zM86.080 24.4l0.16-0.24v-0.16l-0.16 0.48v-0.080zM86 24.8l0.080-0.24-0.24 0.24h0.16zM92.96 12.32l-0.16-0.24-0.16 0.4 0.24 0.080v-0.24h0.080zM92.48 12.64h-0.24v0.16l0.24-0.080v-0.080zM92.24 13.12v-0.080l-0.24-0.080 0.080 0.16h0.16zM91.84 18.96v0.24l-0.24 0.080 0.4-0.080zM90.88 19.040l-0.32 0.32h0.16l0.32-0.16zM77.2 18.88h-0.24l0.080 0.080 0.16 0.080v-0.16zM81.2 15.2l-0.16 0.16 0.080 0.080 0.080-0.080v-0.16zM50.96 8.96l0.080 0.48 0.24-0.080v-0.24zM63.84 16.24l-0.48 0.72 0.16 0.32 0.32-0.64v-0.24h0.080zM69.040 14.080l-0.32-0.24v0.16l-0.16 0.16 0.4 0.16zM68 13.6v-0.48h-0.16l-0.16 0.16zM64.16 13.76l-0.16-0.16v0.16h0.16zM66 15.36l0.080-0.32h-0.080l-0.080 0.32h0.080zM67.84 14.72l-0.16-0.080-0.16 0.080 0.16 0.080zM57.92 13.76l0.24-0.080-0.16-0.080-0.24 0.24zM58.16 13.52v-0.16l-0.24 0.16h0.24zM10.080 9.36l0.080-0.24-0.080-0.16-0.16 0.4h0.16zM62.32 12l-0.16-0.080-0.72 0.16-0.4 0.48v0.16h0.24l0.080-0.080v0.16h-0.080l0.080 0.24 0.24-0.48 0.32-0.32-0.080-0.16zM10.16 9.68v-0.16h-0.080l-0.16 0.32zM60.88 10.64l-0.8 0.56-0.080 0.24 0.4-0.16h-0.080l0.48-0.32zM10.24 7.6l-0.32 0.32 0.24 0.24v0.32l0.24 0.16 0.080-0.16-0.24-0.16-0.080 0.16 0.080-0.4-0.16-0.16h0.32zM10.4 7.28v-0.16l-0.16-0.080zM9.76 7.36l-0.16-0.24v0.24l0.16 0.080v-0.080zM10.16 7.12l-0.24-0.24-0.16 0.24 0.16 0.16v-0.24l0.16 0.24zM87.12 21.84h-0.080l-0.16 0.080zM87.36 21.84l0.48-0.48-0.72 0.48v0.080zM85.84 22.080l-0.16 0.080v0.32l0.16-0.32v-0.080zM88.48 20.4l-0.56 0.48-1.52 0.48v0.24l-0.080-0.16v0.24l-0.32 0.16-0.16 0.24 0.16 0.080 0.32-0.16-0.080 0.16 0.4-0.16-0.24 0.080 1.68-0.8-0.24 0.080 1.28-1.040-0.32 0.32-0.080-0.080v0.080h-0.32l-0.080 0.32-0.4 0.080zM85.28 27.040l0.080 0.16-0.080-0.56-0.24 0.16 0.16-0.16-0.16-0.16 0.16 0.080v-0.24l-0.56-0.16-0.72-1.36 0.24-0.56 0.32-0.16 0.16-0.32-0.080 0.32-0.4 0.32-0.24 0.4 0.080 0.24 0.8 0.48 0.48-0.080v0.56l0.24-0.16 0.24-0.72h-0.16l0.24-0.16-0.080-0.16v-0.080h0.080v-0.24h0.16l0.24-0.4v-0.16h0.080l-0.080-1.040-0.16-0.48v0.24l-0.48-0.16 0.080-0.32 0.16-0.16 0.16-0.56-0.32-0.64 0.16 0.16 0.16 0.32-0.16 0.72 0.16-0.16 0.24-0.16 0.080-0.4 0.8-0.64 0.24-0.32 0.72-0.080 0.24-0.16-0.16-0.080 0.24 0.080 0.24-0.16 0.88-0.32v-0.88l0.24 0.080h0.080l0.080-0.080-0.080 0.24 0.080 0.32 0.24-0.24v0.16l0.24-0.16v-0.16h0.080l0.080-0.32h0.24v0.4l0.24-0.24 0.8-0.4-0.080-0.32-0.32-0.32-0.4 0.080h0.4l0.080 0.16h0.080v0.24l-0.32 0.16h-0.4l-0.080-0.32h-0.32v-0.16l0.080 0.080-0.32-0.24-0.32-0.16h0.080l-0.080 0.16-0.16-0.16 0.080-0.080v-0.24h0.080l-0.080-0.24 0.4-0.24v-0.080l-0.080 0.16-0.16-0.080-0.24-0.24 0.080-0.72 0.080 0.080v-0.48l0.32-0.48-0.080-0.16 0.24-0.080-0.24-0.080 0.32-0.56 0.080 0.16 0.16-0.32 0.16 0.32-0.080-0.4-0.080-0.080 0.080-0.16 0.16 0.56-0.080-0.32 0.080-0.24v0.24l0.24 0.080 0.24-0.56v0.24l0.16-0.16v0.24l0.16-0.080 0.080-0.96-0.080-0.080 0.16-0.24v-0.16h0.080v0.4l0.080-0.16-0.080 0.24 0.56 0.080-0.24-0.4h0.24l-0.080-0.24 0.16 0.24 0.16-0.24-0.16-0.080 0.24 0.080v-0.080l0.24 0.32v-0.48l0.16 0.24v-0.24l0.080 0.24v-0.4l0.16 0.080v-0.16l0.080 0.16v-0.080h0.24v-0.16h0.080v-0.16l0.080 0.16v-0.4l0.16 0.24 0.16-0.080 0.24-0.48-0.24-0.080-0.16 0.24-0.080-0.24 0.24-0.16-0.32-0.32-0.16 0.080-0.32-0.080-0.16-0.72h-0.56l-0.88-2.72-0.72-0.32h-0.24l-0.72 0.64-0.24-0.16-0.080-0.32h-0.24l-0.8 1.84 0.080 0.56-0.16 0.56 0.16 0.48-0.080 0.48-0.24 0.4-0.16 0.16 0.24 0.16-0.32 0.080v0.32l-0.24-0.080-0.24 0.16h-0.16l-0.16 0.24 0.080 0.4-5.2 1.28-0.4 0.4-0.56 0.72-0.16 0.48-0.72 0.64 0.16 0.24 0.24-0.16v0.16h0.16l-0.32 0.32 0.32 0.32-0.080 0.24-0.32 0.16-0.64 0.72-1.040 0.16-0.8-0.080-1.44 0.56 0.080 0.32 0.24 0.080 0.16 0.48-0.96 1.040-1.12 0.96-1.44 0.96-0.64 0.56-0.4 0.080-0.64 0.24-0.4-0.080 0.080 0.080h-0.72l0.64-0.16-0.32-0.080-0.24 0.080-0.8-0.16 0.4-0.72-0.080-0.16 0.080-0.4 0.32-0.32v-0.48l0.16-0.16h0.16v0.32l0.24-0.080v-0.88l-0.56-1.68-0.4-0.4h-0.24l-0.56 0.32 0.080 0.080-0.24 0.48-0.32 0.16-0.4-0.16 0.080-0.56 0.32-0.24 0.16-0.32 0.16-0.24v-0.96l-0.32-0.4v-0.16h0.24l-0.24-0.32-1.12-0.4-0.32-0.32h-0.4l-0.48-0.16-0.24 0.080 0.080 0.080-0.16 0.56 0.24 0.16-0.56 0.32v0.56l-0.16 0.48v-0.32l-0.24 0.32-0.080-0.080 0.080-0.72-0.24 0.56h-0.24l-0.16 0.080v0.4l-0.24 0.080 0.080 0.64-0.32 0.8 0.080 0.48-0.080 0.4 0.48 0.72 0.080-0.080v0.080l0.24 0.56v1.040l-0.48 1.28-0.56 0.48-0.32 0.24-0.56-0.4-0.48-0.88v-1.2l-0.4-0.4-0.080-0.48 0.32-0.96-0.080-0.4 0.32-0.64-0.080-0.24 0.16-1.040-0.16-0.16-0.4 0.16-0.32 0.64-0.16-0.080v-0.16l0.24-0.56 0.24-0.24v-0.24l0.72-1.2 0.080-0.56 0.080 0.56 0.16-0.4 0.48-0.16-0.24 0.56 0.16 0.16 0.48-0.88h0.56l0.4-0.080 0.080-0.32 0.88 0.080 0.32 0.24 0.16-0.48 0.24 0.16h0.080l0.8-0.16-0.24-0.32-0.32-0.080h0.16l-0.32-0.48-0.4 0.24-0.16-0.16-0.16 0.16-0.4-0.16 0.080-0.56-0.8 0.32-0.96 0.16-0.72 0.56-0.24-0.080-0.080 0.080-0.16-0.16-0.72 0.080-0.32-0.48-0.32-0.16h-0.56l-0.16 0.24 0.16-0.32-0.4 0.48v-0.48l-0.48-0.48-0.32 0.48-0.56 0.32-0.72 0.24-0.96 0.56-0.56-0.16v0.080l-0.16 0.080 0.16-0.56-0.080-0.080-0.8 0.32-0.8 0.24-0.24-0.24 1.84-1.76 1.68-0.88h-0.32l-0.24 0.080-0.24-0.32-0.96 0.24-0.16-0.32-0.56 0.4h-0.4l-0.88-0.56-0.24 0.16-0.16 0.16-0.16-0.4h-0.4v-0.16l-0.8-0.080-0.8 0.16-0.080-0.16-1.2-0.16-0.080-0.32-0.4-0.24-0.4 0.24-0.16-0.24-5.6 0.24-5.6-0.080-5.52-0.24-5.84-0.4-9.040-1.12-8.88-1.6-0.080 0.080 0.080 0.48h0.4v0.32h-0.24l0.080 0.24-0.24-0.16-0.080 0.080 0.24 0.080 0.24 0.32-0.16 0.16h-0.080v0.24l0.080 0.16-0.080-0.32 0.080-0.080 0.24 0.48-0.48 0.32v0.96l-0.16 0.080-0.16-0.080-0.080 0.16-0.24 0.24-0.16-0.24-0.080 0.24-0.16-0.24-0.080 0.16 0.24-0.16h-0.32l0.56-0.4v0.4l0.24-0.4v0.080l-0.16 0.16 0.16 0.080 0.24-0.48v-0.080l-0.32 0.080 0.080-0.24 0.080 0.16v-0.24l0.16-0.16h0.080l-0.080-0.4v0.24l-0.32 0.32h-0.32l-0.32 0.4h0.48l-0.48 0.080-0.080-0.080 0.64-0.64v0.080l0.4-0.32-0.24-0.32 0.080-0.16h-0.16v0.24l-0.080-0.24-0.080 0.16-0.16-0.4-0.24 0.16-1.040-0.32-1.040-0.72-0.080 0.8 0.32 0.72v1.44l0.16-0.16 0.32 0.32-0.32 0.080 0.080 0.16-0.24-0.24v0.4l0.48 0.16h-0.24v0.48h-0.080v0.080l-0.16-0.64-0.24 0.8 0.64 0.080 0.32 0.080 0.24 0.32-0.24-0.24h-0.56l0.080 0.080-0.32-0.16 0.080 0.32-0.32 0.56 0.080 0.16h0.16l-0.24 0.16 0.080 0.24h-0.080v-0.080l-0.48 1.36v0.48l-0.24 0.24 0.16 0.080-0.24 0.24-0.32 1.28h0.080l-0.24 0.080-0.24 0.4 0.24-0.16v0.24l-0.080-0.080-0.16 0.16-0.080-0.080-0.56 0.96 0.16 0.4-0.16 0.64v0.56l0.16 0.24-0.16 0.4 0.16 0.24v0.48l-0.32 0.72v0.24l-0.24 0.4 0.24-0.080-0.24 0.32-0.080-0.080-0.4 0.48v0.4l0.56 0.64 0.080 0.8-0.080 0.56v0.56l-0.080 0.4 0.8 1.2 0.32 0.72-0.16-0.24-0.24 0.48 0.24-0.24 0.56 0.8 0.080-0.080v-0.56h0.24l0.32 0.32 0.32-0.24 0.080 0.24 0.48-0.16-0.24 0.24 0.32-0.080-0.24 0.24-0.72-0.24-0.080-0.16-0.24 0.16-0.080 0.080 0.080 0.16v0.16l0.16 0.080 0.16 0.8h-0.080l-0.48-0.48v-0.4h-0.16l-0.16 0.48 0.24 0.96 0.32 0.32 0.32 0.16 0.080 0.24-0.080 0.4-0.32 0.16 0.16 0.56 0.48 0.8 0.16 0.72 0.64 0.56-0.080 0.48 0.32 0.24-0.24 1.2 0.32 0.32 1.52 0.32 0.48 0.4 0.16 0.4 0.56 0.32h0.48l0.16 0.64 0.4 0.080 0.96 1.040 0.24 0.64v0.72l0.24 0.16v0.080l-0.24-0.080 0.16 0.24 4.32 0.24-0.32 0.4 6.56 3.36 5.12 0.4 0.16-0.96 3.2 0.24 0.32 0.56 0.4 0.32 1.040 1.2 0.72 0.48 0.56 0.96-0.16 0.48 0.32 0.64 0.88 0.8 0.48 0.080 0.72 0.48 0.4 0.080 0.32-0.32 0.24-0.080v-0.24l0.32-0.88h0.64l0.080-0.32 0.4 0.24 1.2 0.080 0.24 0.4 0.16-0.080 0.080 0.16 0.32 0.16 0.64 0.8 0.080 0.32 0.48 0.96 0.080 0.48 0.48 0.24 0.4 0.8 0.64 0.4 0.080 1.040 0.4 0.56 0.32 0.88 0.56 0.080 0.24 0.24h0.48l0.4 0.32 1.040 0.16 0.64 0.4v-0.16l0.4-0.16v-0.24l-0.16 0.16 0.080-0.16-0.24-0.080-0.080-0.48-0.24-0.32h0.16l-0.24-0.64-0.16-0.080v-0.080l0.16 0.080-0.16-0.32h0.16l0.080-0.56h-0.56l0.48-0.24v0.080l-0.16 0.080 0.24-0.080 0.32-0.8-0.32-0.16v-0.080l-0.24-0.080 0.72 0.080 0.24-0.56-0.16 0.24-0.24-0.24 0.16-0.24 0.24-0.080 0.080 0.24 0.16-0.16 0.24-0.080-0.16-0.4h0.16v-0.080l0.16 0.32 0.48-0.32h-0.24l0.080-0.16-0.16-0.080-0.16-0.32 0.4 0.080-0.080 0.24 0.080-0.080 0.080-0.16-0.080-0.16h0.080l0.16 0.16 0.32-0.080-0.080 0.080h0.16l-0.16 0.16 0.4-0.16-0.4 0.32 0.88-0.48-0.4 0.16v-0.080l0.64-0.16 0.8-0.64-0.080-0.32h0.080l0.56-0.4-0.24-0.16 0.16-0.080-0.24-0.080v-0.24l-0.080-0.16 0.32 0.080 0.16-0.16 0.080 0.080-0.080 0.4 0.56-0.16v0.16l-0.48 0.080-0.080 0.24 1.2-0.72h0.48l-0.24-0.32 0.24-0.32h0.24l-0.16 0.32h-0.16l0.080 0.24 1.12-0.24 1.040 0.32 0.72 0.080 0.56-0.16h-0.24v-0.24l-0.080 0.080-0.080-0.24 0.64-0.080v0.24l0.4-0.16 0.16 0.48 0.24-0.080 0.24 0.16 0.16-0.32v0.32l0.32 0.4-0.080 0.080-0.24-0.32-0.16 0.24 0.88 0.24v-0.16l0.16 0.24 0.24-0.080 0.16-0.32h0.16v-0.24l0.16 0.32 0.080-0.24 0.16 0.16 0.080 0.32 0.4-0.48v-0.24l-0.48-0.080 0.080-0.24 0.48 0.24h0.24l0.080 0.16-0.080 0.080 0.32-0.080v0.16h0.4l0.16 0.32 0.16-0.16-0.24 0.56 0.32-0.48 0.16 0.24 0.24-0.32-0.24-0.16-0.16-0.24v0.080l-0.32-0.080h-0.32v-0.080l-0.4-0.4 0.16-0.080-0.080-0.080 0.4 0.080-0.32-0.24 0.24-0.16 0.24 0.080h0.080v-0.16l-0.24-0.080 0.16-0.16h-0.16l0.16-0.24h-0.24l-0.32 0.56-0.32-0.32 0.24-0.080 0.080-0.24-0.16 0.080-0.24-0.080-0.24 0.24-0.32 0.080-0.4-0.080-0.080-0.24 0.4-0.4 1.12 0.4 0.24-0.080 0.24-0.4 0.16 0.080 0.64-0.32h-0.16l0.4 0.16 0.32-0.16 0.16 0.16 0.16-0.24 0.48 0.24 0.080-0.96 0.24 0.24 0.080 0.32h0.080l0.24 0.4-0.48 0.16 0.72-0.16h0.080l-0.080-0.24h0.32v-0.32l0.16 0.080-0.32 0.32 0.32-0.080 0.32-0.32-0.16-0.24 0.24 0.24 0.16-0.32 0.080 0.080-0.080 0.080 0.32 0.16-0.56 0.16 0.72-0.16h0.32l0.080-0.32 0.24 0.080 0.32-0.080 0.16 0.16h-0.16l-0.56 0.16 0.8 0.080 0.8 0.32-0.32-0.32 0.24-0.080 0.080 0.080 0.16-0.24v0.16l-0.16 0.16 0.24 0.24 0.16-0.080 0.080 0.24-0.4-0.24 0.64 0.48 0.080 0.4-0.16-0.32 0.080 0.24 0.080 0.080 0.64-0.16 0.24-0.24v0.24l0.56-0.48h0.32v-0.16l-0.32-0.080 0.24 0.080-0.16-0.080 0.4-0.32h0.4l0.64 0.32 0.32 0.32 0.24 0.080v0.32l0.88 0.64h0.4l0.4 0.48 0.16 0.96-0.16 1.36 0.24 0.32v-0.24l-0.24-0.080 0.32 0.24 0.080-0.48-0.24-0.080 0.16-0.16 0.16 0.16v0.16l0.24-0.16 0.16 0.16-0.4 0.64h-0.080v0.24l-0.080-0.16v0.16l0.32 0.080 0.64 1.040h0.24l-0.24-0.32 0.24 0.080 0.4-0.16-0.24 0.16 0.24 0.88 0.4-0.56-0.32 0.56 0.32 0.080 0.16 0.8 0.32 0.080-0.080 0.16 0.24-0.080 0.48 0.16 0.56 0.88 0.48 0.16-0.16 0.16 0.080-0.16h-0.24l-0.080-0.080-0.080 0.080v0.16l0.16 0.16 0.4-0.16h0.32l0.24-0.24h0.4v-0.96l0.16-0.56v0.32l-0.16-2.16-0.32-0.8-0.32-0.080h0.24v0.080l-0.48-0.64-0.080-0.32-0.96-1.28-0.24-0.88h0.16v0.32h0.32l0.16 0.8 0.4 0.72-0.4-0.8 0.080-0.48-0.32-0.32-0.72-0.88-0.96-1.52-0.4-1.12-0.24-0.24v-0.080l0.080 0.080v-0.32h-0.080l-0.080-0.32 0.080-0.16h-0.16l0.16-0.080-0.16-0.24 0.16 0.080v-0.080h-0.16l0.080-0.24 0.080 0.080 0.24-0.32-0.4-0.080h0.24l-0.080-0.16 0.080 0.080 0.24-0.4-0.24 0.24-0.080-0.24 0.24-0.16-0.16-0.080 0.24 0.24v-0.24h-0.24v-0.080l-0.080-0.16h0.32l0.16-0.16h-0.24v-0.080h0.32v-0.24l0.24-0.080-0.24-0.16 0.24-0.4v0.32l0.16-0.32-0.32-0.16-0.16-0.48 0.16 0.16 0.16 0.32h0.080v-0.32l0.080 0.4 0.32-0.16v-0.16l-0.24 0.16 0.24-0.24h-0.32l0.16-0.16h-0.24l0.16-0.080 0.48 0.080 0.080-0.16-0.080-0.16 0.16 0.16 0.32-0.24 0.16-0.16-0.16-0.080v-0.24l0.16 0.24 0.48-0.48-0.080-0.24 0.4-0.080v-0.080l0.080-0.080 0.080-0.24-0.16-0.080v-0.24l0.080-0.24-0.080 0.32 0.16 0.16v-0.48l0.56-0.8 0.56-0.48h0.72v-0.64l0.080 0.080v0.48l0.16-0.88 0.32-0.4 0.24-0.24-0.080-0.080h0.16l0.24-0.32v-0.080l0.080 0.080 0.64-0.16h-0.080l0.080-0.24 0.24 0.24-0.16-0.24 0.24 0.080 0.24-0.32v-0.32h-0.080v0.080l-0.16 0.16v-0.16h-0.24l0.16 0.16-0.24-0.16-0.080 0.24h-0.48l-0.24-0.32 0.56 0.24 0.32-0.4v-0.080l-0.16 0.080 0.32-0.32-0.96-0.16-0.24-0.16 0.88 0.080-0.16-0.24 0.32-0.080-0.16 0.080 0.16 0.24 0.16-0.24 0.080 0.24v-0.080l0.4 0.080 0.32-0.72 0.24 0.16v-0.72l-0.32-0.16v0.16h-0.24v0.56h-0.24l0.24-0.080-0.24-0.16 0.080-0.080v-0.32l-0.32 0.080v0.16l-0.24-0.16-0.56 0.24-0.16-0.8 0.080 0.080 0.080 0.4 0.24 0.080 0.4-0.24-0.32-0.080 0.48 0.080-0.16-0.24 0.24 0.16 0.16-0.16-0.24-0.32 0.48 0.24-0.16-0.24 0.4 0.48-0.4-0.8v0.24l-0.16-0.32-0.080-0.080 0.24 0.080-0.080-0.16-0.080 0.080v-0.32l0.72 1.36 0.4 0.24-0.56-0.8-0.4-0.56-0.32-0.72h-0.56l0.080 0.24h-0.24l-0.16 0.080v-0.16l-0.32-0.24-0.080-0.16-0.080 0.080-0.48-0.080-0.080-0.080h-0.4l0.4-0.16 0.16 0.24 0.16-0.24 0.24 0.24 0.16-0.080 0.4 0.32 0.24-0.080-0.24-0.4h-0.24l-0.56-0.4v-0.16l0.64 0.48h0.16l-0.16-0.32 0.24 0.16v-0.4h-0.24l0.16-0.080-0.4-0.080-0.88-0.8-0.32-0.080h0.080l0.24 0.080 0.88 0.8v-0.080l0.32 0.080-0.080-0.56 0.080 0.080v-0.16l-0.48-0.16-0.16-0.24h-0.56l-0.32-0.32-0.24 0.24h-0.24v-0.8l0.32-0.16-0.080-0.32h0.080v0.4l-0.24 0.32v0.4h0.16l0.24-0.32 0.32 0.48v-0.4l0.16 0.4h0.32l0.24 0.16v-0.16l0.32 0.16-0.24-0.4-0.48-0.24-0.16-0.48 0.080 0.4 0.56 0.16-0.48-0.8v-0.32l-0.080-0.080h0.24l-0.32-0.24h0.16l-0.080-0.16-0.24-0.080h0.32l-0.16-0.24 0.16 0.080-0.080-0.080 0.080-0.16-0.080-0.080h0.24v0.080l0.080-0.32v0.24l0.24-0.24v-0.16l0.24-0.16-0.16 0.24 0.24-0.24v0.16l0.080 0.080h-0.16l-0.16 0.24h0.32l-0.48 0.16-0.16 0.4 0.24 0.24 0.24-0.24-0.16 0.24h-0.32v0.32l0.24-0.24 0.24 0.16-0.16 0.080 0.16 0.24-0.32-0.16v0.4l0.080-0.24 0.4 0.24 0.080-0.16-0.080 0.24h-0.4l0.080 0.080h0.16l-0.16 0.16h-0.080l0.32 0.32v-0.16l0.24 0.32 0.16-0.32v0.16l0.080-0.32v0.32h0.16l-0.16 0.24h0.32l-0.080 0.4 0.4-0.080-0.16 0.080 0.16 0.080-0.16 0.16v0.32l-0.16 0.24v0.64l0.16 0.24 0.080-0.24v-0.48l0.24-0.16 0.16-1.28 0.32-0.56-0.080-0.16zM79.52 53.040l0.48-0.56 0.32 0.080 0.080 0.24-0.080 0.56h-0.32zM85.2 28.24l0.16-0.96-0.32 1.040z"></path>
    </symbol>
  </defs>
</svg>